<svg xmlns="http://www.w3.org/2000/svg" width="1519" height="1417" viewBox="0 0 1519 1417">
  <defs>
    <style>
      .cls-1 {
        fill: #fff;
      }

      .cls-1, .cls-2 {
        stroke: #000;
        stroke-width: 7.5px;
        fill-rule: evenodd;
      }

      .cls-2 {
        fill: none;
      }

      .cls-3 {
        fill: #d2d2d2;
      }
    </style>
  </defs>
  <g id="_1" data-name="1">
    <path id="Head" class="cls-1" d="M872,451.449c22.881,0,41.431,19.051,41.431,42.551S894.881,536.551,872,536.551,830.568,517.5,830.568,494,849.118,451.449,872,451.449Z"/>
    <path class="cls-1" d="M777,530"/>
    <path class="cls-2" d="M759,527c-6.242-1.85-41.242-4.35-51-5-6.8-.452-31.742,3.15-40,8-8.395,4.931-17.955,40.934-20,49-3.258,12.85-13.132,52.1-13,58,0.242,10.85.136,35.654,3,42,3.242,7.184,14.425,14.15,24,14,7.332-.115,23.92-10.585,25-18,1.575-10.816,2.758-30.85,4-40s5.758-30.85,7-39-1.242-16.85,11-16c10.383,0.721,10.758.15,16,1s5.758-9.35,10-18c3.9-7.96,8.758-16.85,14-23S765.242,528.85,759,527Z"/>
    <ellipse class="cls-3" cx="697.5" cy="965" rx="296.5" ry="12"/>
    <path id="New_left_leg" data-name="New left leg" class="cls-2" d="M770,787s46.758,11.171,53,15,15.758,8.171,16,15-1.242,18.171-4,21-20.242,39.171-25,46-31.242,47.171-27,61,11.758,18.171,21,18,25.758-13.829,31-20,24.758-30.829,33-43,26.758-47.829,28-52,8.758-39.829,6-51-9.242-25.829-14-33-32.242-22.829-40-28-33-12-33-12l-12,19Z"/>
    <path id="body_new" data-name="body new" class="cls-2" d="M695,679c-2.721,8.162-20.358,41.5-23,48s-27.358,39.5-33,47-56,35-56,35-44.358,15.5-67,26c-6.437,2.984-36.191,16.349-43,31-5.73,12.329-.8,22.377,14,28,22.358,8.5,37.642,6.5,47,2s18.642-7.5,31-12,47.642-20.5,57-24,44.642-23.5,53-27,51.642-31.5,45-30,11-3,11-3a31.155,31.155,0,0,0,11,1c6.358-.5,24.642-13.5,28-17s24.642-27.5,29-34,20.642-40.5,22-45,9.642-26.5,10-33,1.642-8.5,7-5,15.376,4.584,27,5c13.858,0.5,42-8,42-8l46-19,31-18s11.642-14,8-27c-1.744-6.228-11.858-12-29-12-10.638,0-40,11-40,11s-47.358,20.5-49,21-18-31-18-31,4.642-24.5,1-32-11.358-30.5-27-39-38.358-8.5-48-2-25.358,15.5-36,30-22.358,41.5-28,53S697,673,695,679Z"/>
  </g>
</svg>
