<svg xmlns="http://www.w3.org/2000/svg" width="1519" height="1417" viewBox="0 0 1519 1417">
  <defs>
    <style>
      .cls-1 {
        fill: none;
        stroke: #000;
        stroke-width: 7.5px;
        fill-rule: evenodd;
      }

      .cls-2 {
        fill: #d2d2d2;
      }
    </style>
  </defs>
  <g id="_2" data-name="2">
    <path id="Head" class="cls-1" d="M2518,452.449c22.88,0,41.43,19.051,41.43,42.551s-18.55,42.551-41.43,42.551S2476.57,518.5,2476.57,495,2495.12,452.449,2518,452.449Z" transform="translate(-1619)"/>
    <ellipse class="cls-2" cx="759.5" cy="977" rx="296.5" ry="12"/>
    <path id="body_new" data-name="body new" class="cls-1" d="M2342,682c-2.72,8.162-20.36,41.5-23,48s-27.36,39.5-33,47-56,35-56,35-44.36,15.5-67,26c-6.44,2.984-36.19,16.349-43,31-5.73,12.329-.8,22.377,14,28,22.36,8.5,37.64,6.5,47,2s18.64-7.5,31-12,47.64-20.5,57-24,44.64-23.5,53-27,51.64-31.5,45-30,11-3,11-3a31.145,31.145,0,0,0,11,1c6.36-.5,24.64-13.5,28-17s24.64-27.5,29-34,20.64-40.5,22-45,9.64-26.5,10-33,1.64-8.5,7-5,15.38,4.584,27,5c13.86,0.5,42-8,42-8l46-19,31-18s11.64-14,8-27c-1.74-6.228-11.86-12-29-12-10.64,0-40,11-40,11s-47.36,20.5-49,21-18-31-18-31,4.64-24.5,1-32-11.36-30.5-27-39-38.36-8.5-48-2-25.36,15.5-36,30-22.36,41.5-28,53S2344,676,2342,682Z" transform="translate(-1619)"/>
    <path id="New_left_hand_" data-name="New left hand " class="cls-1" d="M2410.94,534.723c-6.23-1.89-41.21-4.612-50.97-5.324-6.79-.5-32.24-1.738-38.72,5.318-9.89,10.78-17.93,42.533-20.02,50.586-3.34,12.829-10.78,53.446-10.69,59.345,0.17,10.851-.97,33.9,1.85,40.269,3.2,7.2,10.92,15.275,20.5,15.186,7.33-.068,23.98-10.433,25.11-17.841,1.65-10.806,2.96-30.832,4.26-39.973a263.935,263.935,0,0,1,7.17-32.131c0.73-2.489,5.88-17.193,8.62-20.387s6.13-7.643,9.68-8.267,7.65-1.5,10.12-1.209" transform="translate(-1619)"/>
    <path id="New_left_leg" data-name="New left leg" class="cls-1" d="M2407,799s59.76,21.171,66,25,17.76,13.171,18,20,2.3,23.061,2,27c-0.76,9.829-4.08,30.728-5,39-0.76,6.829-3.38,25.639-2,34,2.53,15.364,2.77,27.422,22,28,13.26,0.4,17.76-11.829,23-18s10.76-18.829,13-33c2.3-14.519,8.76-50.829,10-55s-3.24-48.829-6-60-18.24-22.829-23-30-32.24-22.829-40-28-33-12-33-12" transform="translate(-1619)"/>
  </g>
</svg>
