<svg xmlns="http://www.w3.org/2000/svg" width="1519" height="1417" viewBox="0 0 1519 1417">
  <defs>
    <style>
      .cls-1 {
        fill: none;
        stroke: #000;
        stroke-width: 7.5px;
        fill-rule: evenodd;
      }

      .cls-2 {
        fill: #d2d2d2;
      }
    </style>
  </defs>
  <g id="_3" data-name="3">
    <path id="Head" class="cls-1" d="M4142,405.449c22.88,0,41.43,19.051,41.43,42.551s-18.55,42.551-41.43,42.551S4100.57,471.5,4100.57,448,4119.12,405.449,4142,405.449Z" transform="translate(-3238)"/>
    <path class="cls-1" d="M4027,735c8.96,17.126,24.48,62.019,19,73-8.75,17.519-21.9,32.415-31,47-12.11,19.415-17.22,41,13,50,9.59,2.858,41.26-33.881,61-60,7.75-10.249,31.3-58.154,30-80-0.64-10.848-6.35-24.979-15-43-5.9-12.29-27.55-33.98-37-27m-31,52c-6.53,17.638-28.91,34.612-42,44-12.88,9.241-24.3,17.952-42.7,25.934-12.92,5.606-24.24,12.352-55.3,21.066-20.18,5.662-47.32,11.541-63.19,2.519-34.18-19.424-.52-42.092,28.19-53.519,28.51-11.347,41.59-15.315,75-30,9.95-4.373,18.01-16.312,36-43m50-224c-15.98,2.472-27.9,8.91-37,13-12.42,5.582-26.81,14.776-34,25-7,9.948,1.18,35.832,6,46,13.43,28.335,10,15,10,15m144-16c28.37-7.478,54.41-3.811,73-3,31.19,1.36,42.08,5.619,39,37-2.04,20.731-41.14,12-69,15-11.19,1.205-48.13,4.249-59-1m-74-131c20.57-22.129,47.51-35.884,66-30,16.38,5.215,32.91,26.951,39.62,48.613,9,29.024-28.97,76.172-33.93,122.894-2.51,23.69-9.77,44.515-19.69,61.263-19.59,33.04-49.57,50.217-74,42.23-11.65-3.807-21.69-11.971-29.27-23.416-10.9-16.47-16.68-39.735-14.73-66.584,2.08-28.712,4.08-36.577,10-55" transform="translate(-3238)"/>
    <ellipse class="cls-2" cx="782.5" cy="960" rx="296.5" ry="12"/>
  </g>
</svg>
