<svg xmlns="http://www.w3.org/2000/svg" width="1519" height="1417" viewBox="0 0 1519 1417">
  <defs>
    <style>
      .cls-1 {
        fill: none;
        stroke: #000;
        stroke-width: 7.5px;
        fill-rule: evenodd;
      }

      .cls-2 {
        fill: #d2d2d2;
      }
    </style>
  </defs>
  <g id="_4" data-name="4">
    <path id="Head" class="cls-1" d="M906,1935.45c22.881,0,41.431,19.05,41.431,42.55s-18.55,42.55-41.431,42.55-41.431-19.05-41.431-42.55S883.118,1935.45,906,1935.45Z" transform="translate(0 -1517)"/>
    <path class="cls-1" d="M781,2248c13.517,12.72,37.1,22.12,51,28,23.961,10.13,36.51,3.94,34,6-13.156,10.8-43.9,24.91-66,39-19.295,12.3-78.382,54.72-58.827,79.45,26.46,33.48,134.755-49.18,160.827-70.45,15.986-13.04,28.15-48.98,27-61-1.27-13.26-12.788-37.02-36-48-16.436-7.77-38.05-17.98-51-18m-62,52c-6.517,17.72-14.184,27.02-27,45-10.879,15.26-15.775,19.15-27,25-3.793,1.98-22.979,9.32-38,8a570.016,570.016,0,0,1-90-15c-22.189-5.59-35.351-23.83-23-48,8.778-17.18,27.333,2.15,58,3,18.113,0.5,50.7,3.85,64-8,8.114-7.23,14.011-19.81,21-48,3.281-13.23,13.745-54.53,16-43m143-48c21.767,5.58,35.371,11.32,44,18,5.063,3.92,6.511,21.52-1,35-7.014,12.59-26.64,3.5-43-1-10.849-2.98-28.531-.46-20-9m-3.518-171.26c16.384,5.21,30.428,19.21,37.142,40.87,9,29.03-8.151,58.32-16.726,104.51-9.089,48.96-67.913,111.82-104.9,99.88-28.439-9.18-30.143-35.21-39-76-3.947-18.18.085-29.58,6-48,2.707-8.43,2.389-17.23,5-26,3-10.1,9.319-17.08,13.608-26.66,9.777-21.84,25.538-37.59,37.392-50.34C812.571,1993.87,835,1991.86,853.482,1997.74Z" transform="translate(0 -1517)"/>
    <path class="cls-1" d="M831,2058l-37,42,43,48,21,29s1.393,10.92-2,14-14.607,12.92-21,12-17.607-4.08-22-8-25-21-25-21l-14-18-20-27-15-26,22-47,7-10,10-11,11-13" transform="translate(0 -1517)"/>
    <ellipse class="cls-2" cx="759.5" cy="977" rx="296.5" ry="12"/>
  </g>
</svg>
