<svg xmlns="http://www.w3.org/2000/svg" width="1519" height="1417" viewBox="0 0 1519 1417">
  <defs>
    <style>
      .cls-1 {
        fill: #d2d2d2;
      }

      .cls-2 {
        fill: #fff;
      }

      .cls-2, .cls-3 {
        stroke: #000;
        stroke-width: 7.5px;
        fill-rule: evenodd;
      }

      .cls-3 {
        fill: none;
      }
    </style>
  </defs>
  <g id="_5" data-name="5">
    <ellipse class="cls-1" cx="759.5" cy="987" rx="296.5" ry="12"/>
    <path id="Head" class="cls-2" d="M2518,1938.45c22.88,0,41.43,19.05,41.43,42.55s-18.55,42.55-41.43,42.55-41.43-19.05-41.43-42.55S2495.12,1938.45,2518,1938.45Z" transform="translate(-1619 -1517)"/>
    <path id="Leg_Right" data-name="Leg Right" class="cls-3" d="M2391,2287c13.52,12.72,78.98,28.09,94.04,29.19,28.96,2.13,41.55,2.19,36.96,12.81-10.33,23.91-58.9,92.41-65,110-7.5,21.62-8.87,49.41,22,43,29.59-6.14,71.91-84.15,91-136,4.12-11.2,8.3-36.15,3-58-2.56-10.56-10.01-21.31-37-43-10.63-8.54-63.55-41.98-73-35m-95.36-130.61c-16.73,1-26.66,2.56-26.79,5.21-1.36,29.31-1.5,56.31.04,74.86,1.9,22.8-12.91,49.1-41.92,36.76-19.17-8.16-13.46-95.6-7.97-123.08,2.2-11.03,3.77-26.2,12.03-35,8.56-9.11,25.15-13.67,37.07-14.57,13.59-1.02,59.03-7.11,66.45,2M2503,2080c5.97,15.66,17.43,41.68,20,41,28.37-7.48,52.77-19.97,70-27,21.19-8.64,50.08-6.38,47,25-2.04,20.73-85.14,50-113,53-11.19,1.2-26.13,4.25-37-1-4.45-2.15-8.26-5.89-11.65-10.23m-12.87-160.03c16.39,5.21,30.43,19.21,37.14,40.87,9,29.03-13.1,76.71-27.62,121.39-25.93,79.77-67.06,135.01-104,123s-45.28-82.79-19.35-162.56c12.98-39.93,31.73-82.26,52.35-104.44C2424.57,1996.87,2446.99,1994.86,2465.48,2000.74ZM2372,2284c-6.52,17.72-3.45,15.06-13,25-12.77,13.29-16.78,16.48-23,21-3.46,2.51-17.48,9.82-21,12-22.47,13.93-89.58,13.4-132-21-16.47-13.36-55.41-45-41-68,18.28-29.18,55.05-7.44,77,14,26.11,25.5,62.7,11.85,76,0,8.11-7.23,20.84-34.43,39-61,7.95-11.64.85-39.31,12-43" transform="translate(-1619 -1517)"/>
  </g>
</svg>
