<svg xmlns="http://www.w3.org/2000/svg" width="1519" height="1417" viewBox="0 0 1519 1417">
  <defs>
    <style>
      .cls-1 {
        fill: #fff;
      }

      .cls-1, .cls-2 {
        stroke: #000;
        stroke-width: 7.5px;
        fill-rule: evenodd;
      }

      .cls-2 {
        fill: none;
      }

      .cls-3 {
        fill: #d2d2d2;
      }
    </style>
  </defs>
  <g id="_6" data-name="6">
    <path id="Head" class="cls-1" d="M4137,1942.45c22.88,0,41.43,19.05,41.43,42.55s-18.55,42.55-41.43,42.55-41.43-19.05-41.43-42.55S4114.12,1942.45,4137,1942.45Z" transform="translate(-3238 -1517)"/>
    <path id="Leg_Right" data-name="Leg Right" class="cls-2" d="M3998.51,2277.21c9.88,8.12,19.69,15.47,27.49,19.79,25.4,14.07,46.59,10.38,42,21-10.33,23.91-58.9,92.41-65,110-7.5,21.62-8.87,49.41,22,43,29.59-6.14,71.91-84.15,91-136,4.12-11.2,8.3-36.15,3-58-2.56-10.56-23.01-31.31-50-53m-108-31c-19.17-8.15-26.48-58.52-28-90-0.54-11.24-.26-48.2,8-57,8.56-9.11,34.18-18.53,46.1-19.43,7.02-.53,22.54-2.4,36.92-2.84M4117,2095c5.97,15.66-1.57,22.68,1,22,28.37-7.48,65.59-9.73,84-7,9.19,1.36,37.02,5.28,24,34-8.04,17.73-52.14,19-80,22-11.19,1.2-33.13,4.25-44-1-11.26-5.44-.41,4.97-7-5m-10.52-155.26c16.39,5.21,30.43,19.21,37.14,40.87,9,29.03-13.1,76.71-27.62,121.39-25.93,79.77-63.06,120.01-100,108s-49.28-67.79-23.35-147.56c12.98-39.93,31.73-82.26,52.35-104.44C4043.57,2000.87,4065.99,1998.86,4084.48,2004.74Zm-92.69,270.91c-6.29,11.15-12.98,21.34-17.79,26.35-12.77,13.29-16.78,18.48-23,23-3.46,2.51-19.98,13.99-24,15-27.47,6.93-88.83,10.41-112,7-9.88-1.46-55.91-11.61-39-43,8-14.85,34.05-7.44,63-13,35.85-6.89,60.87-12.22,72.49-25.72,19.04-22.12,27.31-37.8,45.51-64.28" transform="translate(-3238 -1517)"/>
    <ellipse class="cls-3" cx="759.5" cy="987" rx="296.5" ry="12"/>
  </g>
</svg>
