<svg xmlns="http://www.w3.org/2000/svg" width="1519" height="1417" viewBox="0 0 1519 1417">
  <defs>
    <style>
      .cls-1 {
        fill: none;
        stroke: #000;
        stroke-width: 7.5px;
        fill-rule: evenodd;
      }

      .cls-2 {
        fill: #d2d2d2;
      }
    </style>
  </defs>
  <g id="_7" data-name="7">
    <path id="Head" class="cls-1" d="M936,3475.45c22.881,0,41.431,19.05,41.431,42.55s-18.55,42.55-41.431,42.55-41.432-19.05-41.432-42.55S913.118,3475.45,936,3475.45Z" transform="translate(-33 -3060)"/>
    <path class="cls-1" d="M806,3808c-3.649.81,23.673,25.64,27,32,8.961,17.13-6.515,28.02-17,39-13.524,14.16-35.4,23.41-62,38-20.063,11-43.96,8.9-29.914,37.13C739.248,3984.6,825.4,3942.82,868,3915c10.755-7.03,32.3-52.15,31-74-0.645-10.85-6.345-24.98-15-43-3.561-7.41-12.854-18.25-21.741-24.15M824,3829c-15.91,9.9-11.412,18.11-20,38-6.286,14.56-36.1,43.02-44,45-13.664,3.43-38.439,6.79-61,0-20.075-6.04-42.454-9.67-58.863-17.68-26.422-12.9-24.735-31.7-14.137-45.32,10.938-14.06,28.014-5.46,43-1,16.436,4.9,29.169,13.06,38.367,15.28,9.49,2.3,24.877,8.19,31.633-1.28,4.654-6.53,1.182-48.87,3-81,1.12-19.81,5.55-59.48,8-66m11-62c-4.818-10.17-11-34.05-4-44,7.193-10.22,22.4-26.62,36-26m102,86c20.688,10.36,56.325,17.59,48,48-5.538,20.23-37.14,19.5-62,8m0-195c16.383,5.21,32.91,26.95,39.624,48.61,9,29.03-28.976,76.17-33.93,122.9C879.226,3771.93,829.82,3817.03,793,3805c-28.4-9.28-47.3-44.49-44-90,2.08-28.71,4.085-36.58,10-55,2.707-8.43,14.966-16.69,16.936-25.63,2-9.1,4.383-18.45,8.671-28.03,9.778-21.84,27.539-47.59,39.393-60.34C844.572,3523.87,862.512,3524.12,881,3530Z" transform="translate(-33 -3060)"/>
    <ellipse class="cls-2" cx="759.5" cy="977" rx="296.5" ry="12"/>
  </g>
</svg>
