<svg xmlns="http://www.w3.org/2000/svg" width="1519" height="1417" viewBox="0 0 1519 1417">
  <defs>
    <style>
      .cls-1 {
        fill: #fff;
      }

      .cls-1, .cls-2 {
        stroke: #000;
        stroke-width: 7.5px;
        fill-rule: evenodd;
      }

      .cls-2 {
        fill: none;
      }

      .cls-3 {
        fill: #d2d2d2;
      }
    </style>
  </defs>
  <g id="_8" data-name="8">
    <path id="Head" class="cls-1" d="M2553,3483.45c22.88,0,41.43,19.05,41.43,42.55s-18.55,42.55-41.43,42.55-41.43-19.05-41.43-42.55S2530.12,3483.45,2553,3483.45Z" transform="translate(-1652 -3060)"/>
    <path id="Leg_Right" data-name="Leg Right" class="cls-2" d="M2470,3953c-7.5,21.62-8.87,49.41,22,43,29.59-6.14,84.49-106.02,91-136,2.39-11,2.3-35.15-3-46-4.77-9.76-4.01-15.31-31-37-10.63-8.54-60.55-28.98-70-22-9.06,6.69-42.93,51.53-35,59,13.52,12.72,40.13,10.32,54.04,16.19,23.96,10.13,24.55,16.19,24.96,18.81C2527.05,3874.73,2476.1,3935.41,2470,3953Zm-97-264c-1.57,22.83-20.18,46.59-47,30-17.72-10.96,1.15-96.53,10.72-122.87,3.85-10.57,7.69-25.33,17.19-32.78,9.84-7.71,26.92-9.71,38.84-8.79,13.6,1.04,59.43,1.89,65.39,12.01,5.71,9.71,10.7,38.87,2.14,45.61-12.29,9.67-33.7,3.1-48.73,1.71-16.7-1.53-26.75-1.5-27.28,1.11C2378.5,3643.76,2374.28,3670.43,2373,3689Zm252-65c21.19-8.64,50.08-6.38,47,25-2.04,20.73-85.14,50-113,53-11.19,1.2-26.13,4.25-37-1-11.26-5.44-18.41-21.03-25-31-7-10.59-24.47-54.19-18-64,6.2-9.4,30.18-26.72,40-22,14.1,6.77,17.62,28.89,23,43,5.97,15.66,10.43,24.68,13,24C2583.37,3643.52,2607.77,3631.03,2625,3624Zm-124.52-78.26c16.39,5.21,30.43,19.21,37.14,40.87,9,29.03-13.1,76.71-27.62,121.39-25.93,79.77-67.06,135.01-104,123s-45.28-82.79-19.35-162.56c12.98-39.93,31.73-82.26,52.35-104.44C2459.57,3541.87,2481.99,3539.86,2500.48,3545.74ZM2215,3925c-21.71,7.22-51.13,11.41-63-13-13.22-27.18,69.24-51.94,97-65,27.61-13,52.7-25.15,66-37,8.11-7.23,17.84-19.43,36-46,7.95-11.64,17.85-54.31,29-58,21.06-6.98,39.76,86.78,36,97-6.52,17.72-18.18,37.02-31,45-15.91,9.9-19.78,12.15-31,18-3.79,1.98-15.48,8.82-19,11C2312.53,3890.93,2273.9,3905.41,2215,3925Z" transform="translate(-1652 -3060)"/>
    <ellipse class="cls-3" cx="759.5" cy="987" rx="296.5" ry="12"/>
  </g>
</svg>
