<svg xmlns="http://www.w3.org/2000/svg" xmlns:xlink="http://www.w3.org/1999/xlink" width="500" zoomAndPan="magnify" viewBox="0 0 375 374.999991" height="500" preserveAspectRatio="xMidYMid meet" version="1.0"><defs><g/><clipPath id="e2ee1de16e"><path d="M 74.59375 126.015625 L 146.59375 126.015625 L 146.59375 237.015625 L 74.59375 237.015625 Z M 74.59375 126.015625 " clip-rule="nonzero"/></clipPath><clipPath id="b86db76778"><path d="M 106 126.015625 L 129 126.015625 L 129 149 L 106 149 Z M 106 126.015625 " clip-rule="nonzero"/></clipPath><clipPath id="8033eab9da"><path d="M 227 245 L 245.230469 245 L 245.230469 255 L 227 255 Z M 227 245 " clip-rule="nonzero"/></clipPath><clipPath id="78c6faa8c2"><path d="M 217.855469 240.890625 L 224 240.890625 L 224 246 L 217.855469 246 Z M 217.855469 240.890625 " clip-rule="nonzero"/></clipPath><clipPath id="fa20bdd121"><path d="M 232 254 L 235 254 L 235 257.390625 L 232 257.390625 Z M 232 254 " clip-rule="nonzero"/></clipPath></defs><g clip-path="url(#e2ee1de16e)"><path stroke-linecap="butt" transform="matrix(5.496183, 0, 0, 5.51534, 46.013293, 115.332076)" fill="none" stroke-linejoin="miter" d="M 6.000327 11.999905 C 6.000327 11.999905 6.799888 10.800126 7.399736 9.899938 C 7.799871 9.300048 8.300219 8.899886 9.000278 8.700159 L 11.099747 8.100269 C 12.300154 7.799971 13.49985 8.39986 13.899986 9.499775 L 14.499834 10.800126 C 14.799758 11.599742 15.400317 12.099768 16.199878 12.400067 L 18.000133 12.999956 " stroke="#000000" stroke-width="2" stroke-opacity="1" stroke-miterlimit="10"/></g><g clip-path="url(#b86db76778)"><path fill="#000000" d="M 128.457031 137.394531 C 128.457031 138.117188 128.386719 138.835938 128.246094 139.546875 C 128.105469 140.253906 127.894531 140.945312 127.621094 141.613281 C 127.34375 142.285156 127.003906 142.917969 126.601562 143.523438 C 126.203125 144.125 125.746094 144.679688 125.238281 145.191406 C 124.726562 145.707031 124.171875 146.164062 123.570312 146.566406 C 122.96875 146.96875 122.335938 147.308594 121.671875 147.585938 C 121.003906 147.863281 120.316406 148.070312 119.609375 148.210938 C 118.898438 148.351562 118.183594 148.425781 117.464844 148.425781 C 116.742188 148.425781 116.027344 148.351562 115.320312 148.210938 C 114.609375 148.070312 113.925781 147.863281 113.257812 147.585938 C 112.589844 147.308594 111.957031 146.96875 111.355469 146.566406 C 110.757812 146.164062 110.203125 145.707031 109.691406 145.191406 C 109.179688 144.679688 108.726562 144.125 108.324219 143.523438 C 107.921875 142.917969 107.585938 142.285156 107.308594 141.613281 C 107.03125 140.945312 106.824219 140.253906 106.683594 139.546875 C 106.542969 138.835938 106.472656 138.117188 106.472656 137.394531 C 106.472656 136.667969 106.542969 135.953125 106.683594 135.242188 C 106.824219 134.53125 107.03125 133.839844 107.308594 133.171875 C 107.585938 132.503906 107.921875 131.867188 108.324219 131.265625 C 108.726562 130.664062 109.179688 130.105469 109.691406 129.59375 C 110.203125 129.082031 110.757812 128.625 111.355469 128.222656 C 111.957031 127.820312 112.589844 127.480469 113.257812 127.203125 C 113.925781 126.925781 114.609375 126.714844 115.320312 126.574219 C 116.027344 126.433594 116.742188 126.363281 117.464844 126.363281 C 118.183594 126.363281 118.898438 126.433594 119.609375 126.574219 C 120.316406 126.714844 121.003906 126.925781 121.671875 127.203125 C 122.335938 127.480469 122.96875 127.820312 123.570312 128.222656 C 124.171875 128.625 124.726562 129.082031 125.238281 129.59375 C 125.746094 130.105469 126.203125 130.664062 126.601562 131.265625 C 127.003906 131.867188 127.34375 132.503906 127.621094 133.171875 C 127.894531 133.839844 128.105469 134.53125 128.246094 135.242188 C 128.386719 135.953125 128.457031 136.667969 128.457031 137.394531 Z M 128.457031 137.394531 " fill-opacity="1" fill-rule="nonzero"/></g><path fill="#000000" d="M 104.273438 160.007812 L 98.777344 185.375 C 97.675781 189.238281 99.328125 193.097656 101.523438 195.855469 L 120.210938 216.261719 L 114.714844 190.339844 L 119.664062 167.726562 L 115.816406 160.007812 Z M 104.273438 160.007812 " fill-opacity="1" fill-rule="nonzero"/><path fill="#000000" d="M 126.257812 236.667969 L 137.800781 236.667969 C 135.601562 231.152344 130.105469 217.367188 127.90625 210.746094 L 111.96875 187.582031 L 103.171875 194.203125 L 118.011719 214.058594 Z M 126.257812 236.667969 " fill-opacity="1" fill-rule="nonzero"/><path fill="#000000" d="M 87.785156 236.667969 L 100.425781 222.328125 L 104.824219 209.09375 L 96.578125 199.714844 L 91.632812 215.710938 L 75.144531 236.667969 Z M 87.785156 236.667969 " fill-opacity="1" fill-rule="nonzero"/><g fill="#000000" fill-opacity="1"><g transform="translate(142.930558, 233.225771)"><g><path d="M 12.265625 -11.28125 L 12.265625 -9.96875 L 18.375 -9.96875 C 19.007812 -9.945312 19.65625 -9.800781 20.3125 -9.53125 C 20.96875 -9.257812 21.515625 -8.769531 21.953125 -8.0625 C 22.390625 -7.363281 22.609375 -6.320312 22.609375 -4.9375 C 22.609375 -3.59375 22.390625 -2.566406 21.953125 -1.859375 C 21.515625 -1.160156 20.96875 -0.675781 20.3125 -0.40625 C 19.65625 -0.132812 19.007812 0 18.375 0 L 6.421875 0 C 5.285156 0 4.378906 -0.222656 3.703125 -0.671875 C 3.035156 -1.117188 2.539062 -1.65625 2.21875 -2.28125 C 1.90625 -2.914062 1.703125 -3.539062 1.609375 -4.15625 C 1.523438 -4.769531 1.484375 -5.257812 1.484375 -5.625 L 1.484375 -24.046875 C 1.484375 -24.703125 1.519531 -25.429688 1.59375 -26.234375 C 1.664062 -27.046875 1.894531 -27.828125 2.28125 -28.578125 C 2.675781 -29.328125 3.320312 -29.941406 4.21875 -30.421875 C 5.125 -30.898438 6.398438 -31.140625 8.046875 -31.140625 C 9.660156 -31.140625 10.929688 -30.898438 11.859375 -30.421875 C 12.785156 -29.941406 13.46875 -29.328125 13.90625 -28.578125 C 14.34375 -27.828125 14.613281 -27.046875 14.71875 -26.234375 C 14.820312 -25.429688 14.875 -24.703125 14.875 -24.046875 L 14.875 -11.28125 Z M 15.640625 -2.109375 C 15.878906 -2.171875 15.984375 -2.296875 15.953125 -2.484375 C 15.921875 -2.679688 15.785156 -2.78125 15.546875 -2.78125 C 15.003906 -2.78125 14.300781 -2.742188 13.4375 -2.671875 C 12.570312 -2.597656 11.65625 -2.5625 10.6875 -2.5625 C 9.519531 -2.5625 8.410156 -2.664062 7.359375 -2.875 C 6.316406 -3.082031 5.585938 -3.472656 5.171875 -4.046875 C 5.078125 -4.191406 5.015625 -4.351562 4.984375 -4.53125 C 4.953125 -4.71875 4.910156 -4.882812 4.859375 -5.03125 C 4.828125 -5.207031 4.707031 -5.296875 4.5 -5.296875 C 4.28125 -5.296875 4.1875 -5.160156 4.21875 -4.890625 C 4.28125 -4.679688 4.332031 -4.460938 4.375 -4.234375 C 4.425781 -4.015625 4.507812 -3.800781 4.625 -3.59375 C 5.039062 -2.90625 5.84375 -2.457031 7.03125 -2.25 C 8.21875 -2.039062 9.453125 -1.9375 10.734375 -1.9375 C 11.722656 -1.9375 12.664062 -1.960938 13.5625 -2.015625 C 14.46875 -2.078125 15.160156 -2.109375 15.640625 -2.109375 Z M 3.90625 -27.453125 C 3.789062 -27.335938 3.757812 -27.210938 3.8125 -27.078125 C 3.875 -26.941406 3.96875 -26.875 4.09375 -26.875 C 4.175781 -26.875 4.25 -26.890625 4.3125 -26.921875 C 4.9375 -27.453125 5.578125 -27.832031 6.234375 -28.0625 C 6.898438 -28.289062 7.578125 -28.40625 8.265625 -28.40625 C 9.191406 -28.40625 10.117188 -28.253906 11.046875 -27.953125 L 11.328125 -28.578125 C 10.179688 -28.910156 9.144531 -29.078125 8.21875 -29.078125 C 7.46875 -29.078125 6.734375 -28.957031 6.015625 -28.71875 C 5.296875 -28.476562 4.59375 -28.054688 3.90625 -27.453125 Z M 17.9375 -3.0625 C 17.75 -3.0625 17.691406 -2.945312 17.765625 -2.71875 C 17.847656 -2.488281 17.945312 -2.375 18.0625 -2.375 C 18.125 -2.375 18.203125 -2.4375 18.296875 -2.5625 C 18.378906 -2.65625 18.363281 -2.789062 18.25 -2.96875 C 18.15625 -3.03125 18.050781 -3.0625 17.9375 -3.0625 Z M 12.578125 -27.5 C 12.578125 -27.769531 12.472656 -27.90625 12.265625 -27.90625 C 12.054688 -27.90625 11.9375 -27.800781 11.90625 -27.59375 L 11.90625 -27.546875 C 11.9375 -27.335938 12.054688 -27.234375 12.265625 -27.234375 C 12.441406 -27.234375 12.546875 -27.320312 12.578125 -27.5 Z M 12.578125 -27.5 "/></g></g></g><g fill="#000000" fill-opacity="1"><g transform="translate(174.653824, 233.225771)"><g><path d="M 15.59375 0.546875 C 14.78125 0.546875 13.765625 0.453125 12.546875 0.265625 C 11.335938 0.0859375 10.066406 -0.273438 8.734375 -0.828125 C 7.398438 -1.378906 6.15625 -2.21875 5 -3.34375 C 3.851562 -4.46875 2.910156 -5.957031 2.171875 -7.8125 C 1.441406 -9.675781 1.078125 -12 1.078125 -14.78125 C 1.078125 -17.957031 1.648438 -20.773438 2.796875 -23.234375 C 3.953125 -25.691406 5.640625 -27.625 7.859375 -29.03125 C 10.078125 -30.4375 12.789062 -31.140625 16 -31.140625 L 16.046875 -31.140625 C 19.222656 -31.109375 21.910156 -30.390625 24.109375 -28.984375 C 26.304688 -27.578125 27.972656 -25.644531 29.109375 -23.1875 C 30.253906 -20.726562 30.828125 -17.925781 30.828125 -14.78125 C 30.828125 -12 30.457031 -9.675781 29.71875 -7.8125 C 28.988281 -5.957031 28.046875 -4.46875 26.890625 -3.34375 C 25.742188 -2.21875 24.503906 -1.378906 23.171875 -0.828125 C 21.835938 -0.273438 20.5625 0.0859375 19.34375 0.265625 C 18.132812 0.453125 17.125 0.546875 16.3125 0.546875 Z M 14.5625 -12.890625 C 14.5625 -12.648438 14.628906 -12.359375 14.765625 -12.015625 C 14.898438 -11.671875 15.296875 -11.5 15.953125 -11.5 C 16.554688 -11.5 16.914062 -11.671875 17.03125 -12.015625 C 17.15625 -12.359375 17.21875 -12.648438 17.21875 -12.890625 L 17.21875 -17.25 C 17.21875 -17.488281 17.148438 -17.78125 17.015625 -18.125 C 16.878906 -18.476562 16.476562 -18.65625 15.8125 -18.65625 C 15.25 -18.65625 14.898438 -18.476562 14.765625 -18.125 C 14.628906 -17.78125 14.5625 -17.488281 14.5625 -17.25 Z M 20.9375 -26.421875 C 21.175781 -26.484375 21.28125 -26.59375 21.25 -26.75 C 21.21875 -26.914062 21.082031 -27.03125 20.84375 -27.09375 C 20.101562 -27.488281 19.304688 -27.773438 18.453125 -27.953125 C 17.597656 -28.128906 16.71875 -28.21875 15.8125 -28.21875 C 13.988281 -28.21875 12.207031 -27.84375 10.46875 -27.09375 C 10.351562 -26.976562 10.316406 -26.851562 10.359375 -26.71875 C 10.398438 -26.582031 10.5 -26.515625 10.65625 -26.515625 L 10.734375 -26.515625 C 12.085938 -27.171875 13.632812 -27.5 15.375 -27.5 C 17.34375 -27.5 19.195312 -27.140625 20.9375 -26.421875 Z M 10.734375 -4.53125 C 10.492188 -4.476562 10.394531 -4.367188 10.4375 -4.203125 C 10.488281 -4.035156 10.617188 -3.921875 10.828125 -3.859375 C 11.578125 -3.472656 12.378906 -3.1875 13.234375 -3 C 14.085938 -2.820312 14.960938 -2.734375 15.859375 -2.734375 C 17.691406 -2.734375 19.472656 -3.109375 21.203125 -3.859375 C 21.328125 -3.984375 21.363281 -4.113281 21.3125 -4.25 C 21.269531 -4.382812 21.175781 -4.453125 21.03125 -4.453125 L 20.9375 -4.453125 C 19.59375 -3.785156 18.050781 -3.453125 16.3125 -3.453125 C 14.332031 -3.453125 12.472656 -3.8125 10.734375 -4.53125 Z M 13.703125 -11.1875 C 13.492188 -11.1875 13.40625 -11.050781 13.4375 -10.78125 C 13.550781 -10.300781 13.800781 -9.945312 14.1875 -9.71875 C 14.582031 -9.5 15.003906 -9.390625 15.453125 -9.390625 C 15.898438 -9.390625 16.335938 -9.507812 16.765625 -9.75 C 16.910156 -9.894531 16.945312 -10.023438 16.875 -10.140625 C 16.800781 -10.265625 16.6875 -10.328125 16.53125 -10.328125 C 16.445312 -10.328125 16.390625 -10.316406 16.359375 -10.296875 C 16.054688 -10.140625 15.726562 -10.0625 15.375 -10.0625 C 15.070312 -10.0625 14.789062 -10.128906 14.53125 -10.265625 C 14.28125 -10.398438 14.125 -10.617188 14.0625 -10.921875 C 14.03125 -11.097656 13.910156 -11.1875 13.703125 -11.1875 Z M 19.140625 -18.375 C 19.078125 -18.914062 18.875 -19.394531 18.53125 -19.8125 C 18.1875 -20.238281 17.734375 -20.476562 17.171875 -20.53125 C 16.929688 -20.53125 16.8125 -20.429688 16.8125 -20.234375 C 16.8125 -20.046875 16.914062 -19.921875 17.125 -19.859375 C 17.632812 -19.828125 17.984375 -19.585938 18.171875 -19.140625 C 18.367188 -18.691406 18.46875 -18.421875 18.46875 -18.328125 C 18.53125 -18.117188 18.648438 -18.015625 18.828125 -18.015625 C 19.035156 -18.015625 19.140625 -18.132812 19.140625 -18.375 Z M 9.75 -5.25 C 9.507812 -5.25 9.390625 -5.144531 9.390625 -4.9375 C 9.390625 -4.695312 9.507812 -4.578125 9.75 -4.578125 C 9.957031 -4.578125 10.0625 -4.695312 10.0625 -4.9375 C 10.0625 -5.144531 9.957031 -5.25 9.75 -5.25 Z M 21.921875 -26.375 C 21.710938 -26.375 21.609375 -26.253906 21.609375 -26.015625 C 21.609375 -25.804688 21.710938 -25.703125 21.921875 -25.703125 C 22.160156 -25.703125 22.28125 -25.804688 22.28125 -26.015625 C 22.28125 -26.253906 22.160156 -26.375 21.921875 -26.375 Z M 21.921875 -26.375 "/></g></g></g><g fill="#000000" fill-opacity="1"><g transform="translate(214.599223, 233.225771)"><g><path d="M 8.359375 0.546875 C 6.773438 0.546875 5.523438 0.289062 4.609375 -0.21875 C 3.691406 -0.726562 3.015625 -1.378906 2.578125 -2.171875 C 2.148438 -2.972656 1.875 -3.800781 1.75 -4.65625 C 1.632812 -5.507812 1.578125 -6.296875 1.578125 -7.015625 L 1.578125 -23.640625 C 1.578125 -24.328125 1.628906 -25.097656 1.734375 -25.953125 C 1.835938 -26.804688 2.097656 -27.628906 2.515625 -28.421875 C 2.929688 -29.210938 3.597656 -29.863281 4.515625 -30.375 C 5.429688 -30.882812 6.695312 -31.140625 8.3125 -31.140625 C 9.300781 -31.140625 10.195312 -31.019531 11 -30.78125 C 11.8125 -30.539062 12.5625 -30.066406 13.25 -29.359375 C 13.945312 -28.660156 14.625 -27.609375 15.28125 -26.203125 L 18.0625 -20.453125 L 19.140625 -20.890625 L 16.890625 -25.5625 C 16.742188 -26.019531 16.671875 -26.425781 16.671875 -26.78125 C 16.671875 -27.976562 17.269531 -29.003906 18.46875 -29.859375 C 19.664062 -30.710938 21.359375 -31.140625 23.546875 -31.140625 C 25.128906 -31.140625 26.378906 -30.882812 27.296875 -30.375 C 28.210938 -29.863281 28.882812 -29.21875 29.3125 -28.4375 C 29.75 -27.664062 30.023438 -26.851562 30.140625 -26 C 30.265625 -25.144531 30.328125 -24.359375 30.328125 -23.640625 L 30.328125 -7.015625 C 30.328125 -6.328125 30.273438 -5.554688 30.171875 -4.703125 C 30.066406 -3.847656 29.804688 -3.019531 29.390625 -2.21875 C 28.972656 -1.425781 28.304688 -0.765625 27.390625 -0.234375 C 26.472656 0.285156 25.207031 0.546875 23.59375 0.546875 C 22.601562 0.546875 21.710938 0.410156 20.921875 0.140625 C 20.128906 -0.128906 19.347656 -0.679688 18.578125 -1.515625 C 17.816406 -2.359375 16.988281 -3.632812 16.09375 -5.34375 L 13.390625 -10.6875 L 12.359375 -10.15625 L 15.015625 -5.078125 C 15.160156 -4.628906 15.234375 -4.222656 15.234375 -3.859375 C 15.234375 -2.660156 14.640625 -1.625 13.453125 -0.75 C 12.273438 0.113281 10.578125 0.546875 8.359375 0.546875 Z M 28.171875 -3.90625 C 28.085938 -3.90625 28.015625 -3.890625 27.953125 -3.859375 C 27.316406 -3.328125 26.671875 -2.945312 26.015625 -2.71875 C 25.359375 -2.488281 24.6875 -2.375 24 -2.375 C 23.070312 -2.375 22.140625 -2.523438 21.203125 -2.828125 L 20.9375 -2.203125 C 22.082031 -1.867188 23.117188 -1.703125 24.046875 -1.703125 C 24.816406 -1.703125 25.5625 -1.828125 26.28125 -2.078125 C 27 -2.335938 27.691406 -2.753906 28.359375 -3.328125 C 28.503906 -3.472656 28.546875 -3.601562 28.484375 -3.71875 C 28.429688 -3.84375 28.328125 -3.90625 28.171875 -3.90625 Z M 18.828125 -27.90625 C 18.710938 -27.78125 18.679688 -27.648438 18.734375 -27.515625 C 18.796875 -27.390625 18.890625 -27.328125 19.015625 -27.328125 C 19.097656 -27.328125 19.171875 -27.335938 19.234375 -27.359375 C 19.859375 -27.898438 20.5 -28.28125 21.15625 -28.5 C 21.820312 -28.726562 22.5 -28.84375 23.1875 -28.84375 C 24.113281 -28.84375 25.039062 -28.695312 25.96875 -28.40625 L 26.25 -29.03125 C 25.101562 -29.363281 24.066406 -29.53125 23.140625 -29.53125 C 22.390625 -29.53125 21.65625 -29.410156 20.9375 -29.171875 C 20.21875 -28.929688 19.515625 -28.507812 18.828125 -27.90625 Z M 5.984375 -2.78125 L 5.703125 -2.15625 C 6.847656 -1.820312 7.882812 -1.65625 8.8125 -1.65625 C 9.582031 -1.65625 10.328125 -1.78125 11.046875 -2.03125 C 11.773438 -2.289062 12.46875 -2.707031 13.125 -3.28125 C 13.269531 -3.425781 13.3125 -3.554688 13.25 -3.671875 C 13.195312 -3.796875 13.09375 -3.859375 12.9375 -3.859375 C 12.851562 -3.859375 12.78125 -3.84375 12.71875 -3.8125 C 12.09375 -3.28125 11.445312 -2.898438 10.78125 -2.671875 C 10.125 -2.453125 9.453125 -2.34375 8.765625 -2.34375 C 7.835938 -2.34375 6.910156 -2.488281 5.984375 -2.78125 Z M 3.90625 -27.453125 C 3.789062 -27.335938 3.757812 -27.210938 3.8125 -27.078125 C 3.875 -26.941406 3.96875 -26.875 4.09375 -26.875 C 4.175781 -26.875 4.25 -26.890625 4.3125 -26.921875 C 4.9375 -27.453125 5.578125 -27.832031 6.234375 -28.0625 C 6.898438 -28.289062 7.578125 -28.40625 8.265625 -28.40625 C 9.191406 -28.40625 10.117188 -28.253906 11.046875 -27.953125 L 11.328125 -28.578125 C 10.179688 -28.910156 9.144531 -29.078125 8.21875 -29.078125 C 7.46875 -29.078125 6.734375 -28.957031 6.015625 -28.71875 C 5.296875 -28.476562 4.59375 -28.054688 3.90625 -27.453125 Z M 11.90625 -27.546875 C 11.9375 -27.335938 12.054688 -27.234375 12.265625 -27.234375 C 12.441406 -27.234375 12.546875 -27.320312 12.578125 -27.5 C 12.578125 -27.769531 12.472656 -27.90625 12.265625 -27.90625 C 12.054688 -27.90625 11.9375 -27.800781 11.90625 -27.59375 Z M 20 -3.546875 C 19.84375 -3.546875 19.738281 -3.457031 19.6875 -3.28125 C 19.6875 -3.007812 19.789062 -2.875 20 -2.875 C 20.207031 -2.875 20.328125 -2.976562 20.359375 -3.1875 L 20.359375 -3.234375 C 20.328125 -3.441406 20.207031 -3.546875 20 -3.546875 Z M 4.765625 -3.5 C 4.609375 -3.5 4.503906 -3.410156 4.453125 -3.234375 C 4.453125 -2.960938 4.554688 -2.828125 4.765625 -2.828125 C 4.972656 -2.828125 5.09375 -2.929688 5.125 -3.140625 L 5.125 -3.1875 C 5.09375 -3.394531 4.972656 -3.5 4.765625 -3.5 Z M 26.828125 -28 C 26.859375 -27.789062 26.976562 -27.6875 27.1875 -27.6875 C 27.363281 -27.6875 27.46875 -27.773438 27.5 -27.953125 C 27.5 -28.222656 27.394531 -28.359375 27.1875 -28.359375 C 26.976562 -28.359375 26.859375 -28.253906 26.828125 -28.046875 Z M 26.828125 -28 "/></g></g></g><g fill="#000000" fill-opacity="1"><g transform="translate(254.409829, 233.225771)"><g><path d="M 32 -8.09375 L 32 -6.109375 C 32 -5.453125 31.945312 -4.71875 31.84375 -3.90625 C 31.738281 -3.101562 31.46875 -2.328125 31.03125 -1.578125 C 30.59375 -0.828125 29.898438 -0.210938 28.953125 0.265625 C 28.015625 0.742188 26.722656 0.984375 25.078125 0.984375 C 23.335938 0.984375 21.851562 0.550781 20.625 -0.3125 C 19.394531 -1.1875 18.660156 -2.535156 18.421875 -4.359375 L 17.4375 -4.140625 C 17.5 -3.597656 17.597656 -3.054688 17.734375 -2.515625 C 17.867188 -1.972656 18.066406 -1.445312 18.328125 -0.9375 C 16.710938 -0.40625 15.171875 -0.140625 13.703125 -0.140625 C 11.273438 -0.140625 9.109375 -0.78125 7.203125 -2.0625 C 5.304688 -3.351562 3.800781 -5.132812 2.6875 -7.40625 C 1.582031 -9.6875 1.03125 -12.3125 1.03125 -15.28125 C 1.03125 -18.488281 1.644531 -21.257812 2.875 -23.59375 C 4.101562 -25.925781 5.863281 -27.75 8.15625 -29.0625 C 10.445312 -30.382812 13.195312 -31.078125 16.40625 -31.140625 L 16.984375 -31.140625 C 19.890625 -31.140625 22.320312 -30.753906 24.28125 -29.984375 C 26.25 -29.222656 27.734375 -28.210938 28.734375 -26.953125 C 29.742188 -25.703125 30.25 -24.328125 30.25 -22.828125 C 30.25 -21.835938 30.046875 -20.851562 29.640625 -19.875 C 29.234375 -18.90625 28.644531 -18.09375 27.875 -17.4375 C 27.113281 -16.78125 26.195312 -16.453125 25.125 -16.453125 C 24.195312 -16.453125 23.378906 -16.628906 22.671875 -16.984375 C 21.960938 -17.347656 21.253906 -17.707031 20.546875 -18.0625 C 19.847656 -18.425781 19.035156 -18.609375 18.109375 -18.609375 C 17.328125 -18.609375 16.6875 -18.359375 16.1875 -17.859375 C 15.695312 -17.367188 15.347656 -16.769531 15.140625 -16.0625 C 14.929688 -15.363281 14.84375 -14.664062 14.875 -13.96875 C 15.019531 -11.632812 16.203125 -10.46875 18.421875 -10.46875 C 18.578125 -11.25 18.867188 -12 19.296875 -12.71875 C 19.734375 -13.4375 20.414062 -14.023438 21.34375 -14.484375 C 22.269531 -14.953125 23.546875 -15.1875 25.171875 -15.1875 C 26.785156 -15.1875 28.054688 -14.945312 28.984375 -14.46875 C 29.910156 -13.988281 30.59375 -13.375 31.03125 -12.625 C 31.46875 -11.875 31.738281 -11.09375 31.84375 -10.28125 C 31.945312 -9.476562 32 -8.75 32 -8.09375 Z M 6.375 -24.359375 C 6.132812 -23.960938 5.882812 -23.59375 5.625 -23.25 C 5.375 -22.90625 5.207031 -22.476562 5.125 -21.96875 C 5.1875 -21.757812 5.304688 -21.65625 5.484375 -21.65625 C 5.660156 -21.65625 5.765625 -21.734375 5.796875 -21.890625 C 5.859375 -22.242188 5.976562 -22.554688 6.15625 -22.828125 C 6.332031 -23.097656 6.523438 -23.367188 6.734375 -23.640625 C 8.023438 -25.398438 9.550781 -26.609375 11.3125 -27.265625 C 13.082031 -27.929688 15.019531 -28.265625 17.125 -28.265625 C 17.875 -28.265625 18.660156 -28.148438 19.484375 -27.921875 C 20.304688 -27.703125 21.007812 -27.476562 21.59375 -27.25 C 22.175781 -27.03125 22.46875 -26.921875 22.46875 -26.921875 C 22.53125 -26.828125 22.59375 -26.78125 22.65625 -26.78125 C 22.769531 -26.78125 22.894531 -26.851562 23.03125 -27 C 23.164062 -27.15625 23.234375 -27.320312 23.234375 -27.5 C 22.304688 -28.007812 21.265625 -28.398438 20.109375 -28.671875 C 18.953125 -28.941406 17.757812 -29.078125 16.53125 -29.078125 C 14.582031 -29.078125 12.6875 -28.691406 10.84375 -27.921875 C 9.007812 -27.160156 7.519531 -25.972656 6.375 -24.359375 Z M 29.484375 -2.5625 C 29.535156 -2.707031 29.53125 -2.828125 29.46875 -2.921875 C 29.414062 -3.015625 29.328125 -3.0625 29.203125 -3.0625 C 29.085938 -3.0625 28.984375 -2.984375 28.890625 -2.828125 C 28.648438 -2.285156 28.140625 -1.863281 27.359375 -1.5625 C 26.585938 -1.269531 25.765625 -1.125 24.890625 -1.125 C 24.296875 -1.125 23.734375 -1.207031 23.203125 -1.375 C 22.679688 -1.539062 22.285156 -1.800781 22.015625 -2.15625 C 21.929688 -2.300781 21.878906 -2.457031 21.859375 -2.625 C 21.847656 -2.789062 21.8125 -2.945312 21.75 -3.09375 C 21.71875 -3.28125 21.597656 -3.375 21.390625 -3.375 C 21.179688 -3.375 21.09375 -3.238281 21.125 -2.96875 C 21.175781 -2.757812 21.222656 -2.546875 21.265625 -2.328125 C 21.316406 -2.117188 21.390625 -1.925781 21.484375 -1.75 C 21.773438 -1.269531 22.222656 -0.925781 22.828125 -0.71875 C 23.429688 -0.507812 24.09375 -0.40625 24.8125 -0.40625 C 25.769531 -0.40625 26.710938 -0.597656 27.640625 -0.984375 C 28.566406 -1.378906 29.179688 -1.90625 29.484375 -2.5625 Z M 7.234375 -5.9375 C 7.023438 -5.9375 6.9375 -5.800781 6.96875 -5.53125 C 7.175781 -4.6875 7.628906 -4.03125 8.328125 -3.5625 C 9.035156 -3.101562 9.832031 -2.773438 10.71875 -2.578125 C 11.601562 -2.390625 12.421875 -2.265625 13.171875 -2.203125 C 13.410156 -2.265625 13.519531 -2.375 13.5 -2.53125 C 13.488281 -2.695312 13.394531 -2.8125 13.21875 -2.875 C 12.582031 -2.9375 11.859375 -3.039062 11.046875 -3.1875 C 10.242188 -3.34375 9.507812 -3.613281 8.84375 -4 C 8.1875 -4.382812 7.769531 -4.9375 7.59375 -5.65625 C 7.5625 -5.84375 7.441406 -5.9375 7.234375 -5.9375 Z M 13.53125 -16.671875 C 13.582031 -16.460938 13.703125 -16.359375 13.890625 -16.359375 C 14.066406 -16.359375 14.171875 -16.429688 14.203125 -16.578125 C 14.265625 -17.085938 14.425781 -17.691406 14.6875 -18.390625 C 14.957031 -19.097656 15.425781 -19.53125 16.09375 -19.6875 C 16.269531 -19.800781 16.34375 -19.929688 16.3125 -20.078125 C 16.28125 -20.234375 16.144531 -20.3125 15.90625 -20.3125 C 15.15625 -20.101562 14.59375 -19.628906 14.21875 -18.890625 C 13.84375 -18.160156 13.613281 -17.421875 13.53125 -16.671875 Z M 20.671875 -11.140625 C 20.578125 -10.867188 20.679688 -10.734375 20.984375 -10.734375 C 21.160156 -10.734375 21.265625 -10.8125 21.296875 -10.96875 C 21.453125 -11.351562 21.796875 -11.707031 22.328125 -12.03125 C 22.867188 -12.363281 23.363281 -12.53125 23.8125 -12.53125 C 24 -12.53125 24.117188 -12.519531 24.171875 -12.5 L 24.265625 -12.5 C 24.472656 -12.5 24.578125 -12.585938 24.578125 -12.765625 C 24.578125 -12.941406 24.488281 -13.0625 24.3125 -13.125 C 24.1875 -13.1875 23.992188 -13.21875 23.734375 -13.21875 C 23.128906 -13.21875 22.507812 -13 21.875 -12.5625 C 21.25 -12.125 20.847656 -11.648438 20.671875 -11.140625 Z M 25.75 -12 L 25.890625 -12 C 26.128906 -12.0625 26.234375 -12.1875 26.203125 -12.375 C 26.171875 -12.570312 26.035156 -12.671875 25.796875 -12.671875 C 25.554688 -12.671875 25.4375 -12.570312 25.4375 -12.375 C 25.4375 -12.1875 25.539062 -12.0625 25.75 -12 Z M 24.171875 -26.15625 C 24.203125 -25.945312 24.320312 -25.84375 24.53125 -25.84375 C 24.65625 -25.84375 24.734375 -25.867188 24.765625 -25.921875 C 24.972656 -26.015625 25.0625 -26.148438 25.03125 -26.328125 C 25 -26.515625 24.863281 -26.609375 24.625 -26.609375 L 24.578125 -26.609375 C 24.367188 -26.609375 24.25 -26.5 24.21875 -26.28125 C 24.21875 -26.226562 24.203125 -26.1875 24.171875 -26.15625 Z M 6.15625 -7.734375 C 5.851562 -7.734375 5.78125 -7.550781 5.9375 -7.1875 L 6.015625 -7.0625 C 6.109375 -6.96875 6.203125 -6.921875 6.296875 -6.921875 C 6.410156 -6.921875 6.5 -6.988281 6.5625 -7.125 C 6.625 -7.257812 6.609375 -7.382812 6.515625 -7.5 C 6.515625 -7.53125 6.484375 -7.578125 6.421875 -7.640625 C 6.304688 -7.703125 6.21875 -7.734375 6.15625 -7.734375 Z M 6.15625 -7.734375 "/></g></g></g><g clip-path="url(#8033eab9da)"><path fill="#000000" d="M 230.601562 253.992188 C 230.59375 254.058594 230.535156 254.101562 230.476562 254.101562 C 230.46875 254.101562 230.464844 254.101562 230.453125 254.101562 C 230.382812 254.089844 230.332031 254.023438 230.34375 253.953125 C 230.425781 253.40625 230.238281 252.820312 229.855469 252.425781 C 229.660156 252.226562 229.417969 252.070312 229.144531 251.972656 C 228.980469 252.53125 228.625 253.039062 228.136719 253.34375 C 228.117188 253.355469 228.09375 253.367188 228.066406 253.367188 C 228.023438 253.367188 227.984375 253.34375 227.957031 253.304688 C 227.917969 253.246094 227.933594 253.160156 227.992188 253.128906 C 228.675781 252.691406 229.074219 251.828125 228.964844 251.019531 C 228.851562 250.21875 228.230469 249.496094 227.457031 249.265625 C 227.390625 249.242188 227.347656 249.171875 227.367188 249.105469 C 227.390625 249.039062 227.460938 248.992188 227.527344 249.015625 C 228.078125 249.175781 228.554688 249.5625 228.863281 250.046875 C 229.300781 249.679688 229.613281 249.171875 229.726562 248.625 C 229.734375 248.59375 229.746094 248.558594 229.75 248.523438 C 229.898438 247.683594 229.589844 246.769531 228.964844 246.191406 C 228.90625 246.140625 228.90625 246.054688 228.957031 246.007812 C 229.007812 245.949219 229.089844 245.949219 229.140625 246 C 229.816406 246.625 230.15625 247.609375 230.011719 248.523438 L 240.753906 248.523438 C 240.824219 248.523438 240.886719 248.585938 240.886719 248.660156 C 240.886719 248.730469 240.824219 248.792969 240.753906 248.792969 L 229.972656 248.792969 C 229.894531 249.09375 229.761719 249.382812 229.589844 249.644531 L 242.492188 249.644531 C 242.5625 249.644531 242.625 249.707031 242.625 249.777344 C 242.625 249.851562 242.5625 249.914062 242.492188 249.914062 L 229.394531 249.914062 C 229.28125 250.050781 229.144531 250.179688 229.007812 250.296875 C 229.078125 250.449219 229.140625 250.601562 229.179688 250.765625 L 245.097656 250.765625 C 245.167969 250.765625 245.230469 250.828125 245.230469 250.898438 C 245.230469 250.972656 245.167969 251.03125 245.097656 251.03125 L 229.230469 251.03125 C 229.261719 251.273438 229.25 251.511719 229.207031 251.75 C 229.316406 251.785156 229.421875 251.835938 229.523438 251.886719 L 243.355469 251.886719 C 243.429688 251.886719 243.488281 251.945312 243.488281 252.019531 C 243.488281 252.089844 243.429688 252.152344 243.355469 252.152344 L 229.910156 252.152344 C 229.960938 252.191406 230.003906 252.234375 230.050781 252.28125 C 230.25 252.488281 230.398438 252.730469 230.5 253 L 239.882812 253 C 239.953125 253 240.015625 253.0625 240.015625 253.132812 C 240.015625 253.207031 239.953125 253.265625 239.882812 253.265625 L 230.574219 253.265625 C 230.632812 253.476562 230.640625 253.734375 230.601562 253.992188 Z M 230.601562 253.992188 " fill-opacity="1" fill-rule="nonzero"/></g><path fill="#000000" d="M 223.167969 250 C 222.449219 249.464844 222 248.582031 222.015625 247.699219 C 222.039062 246.574219 222.785156 245.523438 223.84375 245.144531 C 224.195312 245.019531 224.570312 244.96875 224.953125 244.996094 C 224.898438 244.453125 225.074219 243.867188 225.441406 243.4375 C 225.925781 242.863281 226.703125 242.523438 227.566406 242.507812 C 228.214844 242.496094 228.785156 242.679688 229.183594 243.019531 C 229.585938 243.359375 229.789062 243.910156 229.722656 244.394531 C 230.304688 244.179688 230.984375 244.222656 231.523438 244.535156 C 232.144531 244.898438 232.554688 245.59375 232.570312 246.3125 C 232.585938 247.03125 232.210938 247.75 231.605469 248.136719 C 231.585938 248.152344 231.5625 248.15625 231.535156 248.15625 C 231.488281 248.15625 231.449219 248.136719 231.421875 248.097656 C 231.382812 248.035156 231.402344 247.949219 231.460938 247.910156 C 231.988281 247.570312 232.320312 246.941406 232.304688 246.3125 C 232.289062 245.683594 231.925781 245.070312 231.382812 244.757812 C 230.839844 244.441406 230.136719 244.433594 229.585938 244.734375 C 229.535156 244.765625 229.480469 244.757812 229.433594 244.71875 C 229.394531 244.679688 229.378906 244.625 229.402344 244.574219 C 229.574219 244.140625 229.402344 243.554688 229.007812 243.214844 C 228.660156 242.914062 228.148438 242.757812 227.566406 242.769531 C 226.785156 242.78125 226.066406 243.09375 225.632812 243.605469 C 225.300781 244 225.148438 244.535156 225.21875 245.03125 C 225.867188 245.144531 226.460938 245.476562 226.871094 245.949219 C 226.914062 246.007812 226.910156 246.089844 226.851562 246.132812 C 226.796875 246.179688 226.714844 246.171875 226.671875 246.117188 C 226.28125 245.667969 225.707031 245.355469 225.089844 245.269531 C 224.691406 245.214844 224.292969 245.253906 223.933594 245.382812 C 222.992188 245.722656 222.300781 246.691406 222.277344 247.695312 C 222.261719 248.515625 222.691406 249.339844 223.378906 249.816406 C 223.554688 249.699219 223.75 249.621094 223.957031 249.605469 C 224.027344 249.601562 224.089844 249.652344 224.097656 249.722656 C 224.105469 249.796875 224.054688 249.855469 223.984375 249.867188 C 223.496094 249.914062 223.128906 250.363281 222.980469 250.789062 C 222.824219 251.25 222.859375 251.746094 223.074219 252.113281 C 223.308594 252.515625 223.761719 252.753906 224.183594 252.691406 C 224.242188 252.683594 224.300781 252.714844 224.320312 252.769531 C 224.34375 252.828125 224.328125 252.894531 224.277344 252.925781 C 223.722656 253.332031 223.617188 254.207031 223.757812 254.847656 C 223.894531 255.496094 224.367188 256.074219 225.011719 256.398438 C 225.59375 256.6875 226.320312 256.777344 227.050781 256.648438 C 227.605469 256.554688 228.042969 256.355469 228.347656 256.058594 C 228.703125 255.710938 228.863281 255.207031 228.742188 254.800781 C 228.71875 254.730469 228.757812 254.652344 228.832031 254.636719 C 228.898438 254.613281 228.976562 254.652344 228.992188 254.726562 C 229.058594 254.945312 229.058594 255.179688 229.007812 255.410156 C 229.421875 255.652344 229.921875 255.695312 230.332031 255.527344 C 230.992188 255.261719 231.402344 254.449219 231.222656 253.75 C 231.207031 253.679688 231.246094 253.613281 231.316406 253.589844 C 231.390625 253.574219 231.457031 253.613281 231.480469 253.683594 C 231.6875 254.515625 231.222656 255.449219 230.433594 255.769531 C 230.238281 255.847656 230.023438 255.886719 229.804688 255.886719 C 229.507812 255.886719 229.203125 255.808594 228.925781 255.664062 C 228.835938 255.875 228.703125 256.074219 228.53125 256.246094 C 228.1875 256.582031 227.707031 256.804688 227.101562 256.910156 C 226.871094 256.949219 226.636719 256.972656 226.410156 256.972656 C 225.867188 256.972656 225.347656 256.855469 224.902344 256.632812 C 224.183594 256.269531 223.660156 255.625 223.507812 254.90625 C 223.375 254.285156 223.445312 253.46875 223.878906 252.949219 C 223.46875 252.886719 223.074219 252.625 222.851562 252.246094 C 222.597656 251.8125 222.554688 251.234375 222.738281 250.703125 C 222.824219 250.429688 222.980469 250.191406 223.167969 250 Z M 223.167969 250 " fill-opacity="1" fill-rule="nonzero"/><path fill="#000000" d="M 236.964844 246.53125 C 236.972656 246.921875 236.734375 247.316406 236.371094 247.550781 C 236.105469 247.710938 235.773438 247.796875 235.394531 247.796875 C 235.347656 247.796875 235.296875 247.796875 235.246094 247.789062 C 234.699219 247.757812 234.25 247.554688 233.976562 247.226562 C 233.832031 247.046875 233.746094 246.808594 233.738281 246.570312 C 233.546875 246.503906 233.378906 246.378906 233.25 246.21875 C 233.007812 245.90625 232.9375 245.453125 233.0625 245.042969 C 233.179688 244.664062 233.460938 244.367188 233.792969 244.269531 C 233.964844 244.21875 234.160156 244.230469 234.328125 244.296875 C 234.425781 244.140625 234.566406 244.011719 234.734375 243.929688 C 234.984375 243.800781 235.296875 243.761719 235.613281 243.816406 C 236.097656 243.90625 236.492188 244.21875 236.648438 244.625 C 236.785156 244.996094 236.691406 245.425781 236.4375 245.683594 C 236.742188 245.84375 236.957031 246.210938 236.964844 246.53125 Z M 236.136719 245.867188 C 236.078125 245.863281 236.027344 245.816406 236.015625 245.761719 C 236.003906 245.699219 236.03125 245.644531 236.089844 245.617188 C 236.382812 245.476562 236.53125 245.058594 236.402344 244.71875 C 236.28125 244.402344 235.957031 244.152344 235.5625 244.078125 C 235.300781 244.027344 235.050781 244.0625 234.851562 244.160156 C 234.730469 244.222656 234.625 244.316406 234.554688 244.429688 C 234.648438 244.507812 234.71875 244.601562 234.765625 244.714844 C 234.792969 244.78125 234.757812 244.859375 234.691406 244.886719 C 234.625 244.914062 234.546875 244.878906 234.519531 244.8125 C 234.480469 244.71875 234.414062 244.640625 234.316406 244.585938 C 234.175781 244.507812 234.011719 244.484375 233.867188 244.53125 C 233.617188 244.601562 233.40625 244.832031 233.3125 245.125 C 233.210938 245.453125 233.269531 245.816406 233.457031 246.0625 C 233.539062 246.167969 233.644531 246.246094 233.765625 246.300781 C 233.8125 246.125 233.90625 245.96875 234.039062 245.855469 C 234.09375 245.8125 234.175781 245.816406 234.222656 245.871094 C 234.265625 245.929688 234.261719 246.011719 234.203125 246.054688 C 234.089844 246.15625 234.015625 246.308594 234 246.484375 C 233.984375 246.691406 234.050781 246.910156 234.175781 247.066406 C 234.476562 247.433594 234.980469 247.515625 235.257812 247.53125 C 235.640625 247.554688 235.976562 247.484375 236.230469 247.328125 C 236.527344 247.148438 236.707031 246.835938 236.703125 246.542969 C 236.699219 246.21875 236.414062 245.890625 236.136719 245.867188 Z M 236.136719 245.867188 " fill-opacity="1" fill-rule="nonzero"/><g clip-path="url(#78c6faa8c2)"><path fill="#000000" d="M 217.535156 243.113281 C 217.585938 242.363281 218.1875 241.695312 218.941406 241.546875 C 219.355469 241.472656 219.792969 241.554688 220.167969 241.765625 C 220.253906 241.554688 220.398438 241.363281 220.585938 241.230469 C 220.964844 240.953125 221.484375 240.890625 221.945312 241.058594 C 222.320312 241.199219 222.621094 241.488281 222.738281 241.828125 C 222.847656 242.144531 222.785156 242.511719 222.609375 242.769531 C 223.101562 242.988281 223.433594 243.570312 223.355469 244.152344 C 223.28125 244.734375 222.8125 245.269531 222.199219 245.484375 C 222.023438 245.542969 221.851562 245.570312 221.691406 245.570312 C 221.566406 245.570312 221.453125 245.554688 221.339844 245.523438 C 221.234375 245.488281 221.140625 245.445312 221.050781 245.382812 C 221.011719 245.421875 220.96875 245.460938 220.917969 245.5 C 220.691406 245.667969 220.394531 245.75 220.0625 245.75 C 219.996094 245.75 219.921875 245.746094 219.855469 245.738281 C 219.546875 245.707031 219.289062 245.609375 219.089844 245.453125 C 218.914062 245.316406 218.710938 245.070312 218.671875 244.785156 C 217.984375 244.574219 217.480469 243.84375 217.535156 243.113281 Z M 218.8125 244.558594 C 218.875 244.574219 218.914062 244.625 218.914062 244.6875 C 218.914062 244.898438 219.074219 245.121094 219.234375 245.25 C 219.394531 245.371094 219.613281 245.449219 219.871094 245.476562 C 220.222656 245.515625 220.53125 245.445312 220.757812 245.28125 C 221.007812 245.105469 221.136719 244.785156 221.058594 244.53125 C 221.035156 244.464844 221.082031 244.386719 221.148438 244.367188 C 221.214844 244.347656 221.289062 244.390625 221.308594 244.457031 C 221.375 244.691406 221.328125 244.953125 221.203125 245.171875 C 221.261719 245.214844 221.335938 245.25 221.40625 245.269531 C 221.667969 245.347656 221.933594 245.292969 222.109375 245.230469 C 222.632812 245.054688 223.023438 244.609375 223.089844 244.117188 C 223.15625 243.597656 222.808594 243.058594 222.335938 242.957031 C 222.289062 242.949219 222.25 242.910156 222.238281 242.859375 C 222.226562 242.808594 222.242188 242.757812 222.28125 242.722656 C 222.492188 242.550781 222.582031 242.195312 222.480469 241.910156 C 222.386719 241.644531 222.148438 241.414062 221.84375 241.296875 C 221.472656 241.160156 221.035156 241.214844 220.730469 241.433594 C 220.574219 241.546875 220.449219 241.714844 220.382812 241.898438 C 220.570312 242.039062 220.730469 242.21875 220.851562 242.417969 C 220.890625 242.480469 220.871094 242.5625 220.808594 242.597656 C 220.746094 242.636719 220.664062 242.613281 220.632812 242.550781 C 220.300781 241.996094 219.605469 241.675781 218.984375 241.792969 C 218.347656 241.917969 217.839844 242.484375 217.792969 243.121094 C 217.75 243.773438 218.203125 244.414062 218.8125 244.558594 Z M 218.8125 244.558594 " fill-opacity="1" fill-rule="nonzero"/></g><path fill="#000000" d="M 219.15625 251.421875 C 219.429688 251.3125 219.726562 251.3125 219.976562 251.417969 C 220.027344 251.4375 220.078125 251.46875 220.121094 251.5 C 220.292969 251.289062 220.519531 251.132812 220.769531 251.066406 C 221.289062 250.925781 221.890625 251.171875 222.164062 251.632812 C 222.304688 251.867188 222.355469 252.128906 222.292969 252.351562 C 222.25 252.527344 222.121094 252.6875 221.960938 252.78125 C 222.214844 253 222.386719 253.316406 222.421875 253.65625 C 222.464844 254.085938 222.289062 254.519531 221.960938 254.800781 C 221.710938 255.011719 221.367188 255.132812 220.996094 255.148438 C 220.96875 255.148438 220.941406 255.148438 220.914062 255.148438 C 220.347656 255.148438 219.824219 254.898438 219.519531 254.476562 C 219.355469 254.253906 219.269531 253.984375 219.257812 253.710938 C 218.875 253.585938 218.554688 253.285156 218.4375 252.894531 C 218.277344 252.324219 218.605469 251.652344 219.15625 251.421875 Z M 218.699219 252.828125 C 218.792969 253.160156 219.089844 253.417969 219.421875 253.496094 C 219.421875 253.496094 219.421875 253.496094 219.429688 253.496094 C 219.546875 253.523438 219.671875 253.527344 219.792969 253.507812 C 219.867188 253.496094 219.933594 253.539062 219.945312 253.613281 C 219.957031 253.683594 219.910156 253.75 219.839844 253.761719 C 219.773438 253.773438 219.707031 253.78125 219.640625 253.78125 C 219.601562 253.78125 219.566406 253.78125 219.527344 253.773438 C 219.550781 253.972656 219.617188 254.167969 219.734375 254.332031 C 220 254.699219 220.480469 254.917969 220.992188 254.894531 C 221.308594 254.882812 221.59375 254.777344 221.800781 254.605469 C 222.0625 254.382812 222.203125 254.03125 222.164062 253.691406 C 222.132812 253.351562 221.921875 253.03125 221.625 252.867188 C 221.574219 252.835938 221.546875 252.78125 221.554688 252.726562 C 221.566406 252.671875 221.617188 252.625 221.671875 252.621094 C 221.828125 252.609375 222 252.449219 222.042969 252.292969 C 222.082031 252.136719 222.050781 251.945312 221.945312 251.773438 C 221.722656 251.40625 221.246094 251.210938 220.835938 251.320312 C 220.636719 251.378906 220.449219 251.507812 220.316406 251.679688 C 220.410156 251.796875 220.476562 251.933594 220.5 252.078125 C 220.507812 252.152344 220.460938 252.21875 220.386719 252.230469 C 220.316406 252.242188 220.25 252.191406 220.238281 252.117188 C 220.222656 251.996094 220.160156 251.878906 220.066406 251.789062 C 220.0625 251.785156 220.0625 251.785156 220.054688 251.777344 C 220.003906 251.730469 219.945312 251.691406 219.878906 251.660156 C 219.691406 251.578125 219.46875 251.585938 219.257812 251.667969 C 218.820312 251.847656 218.566406 252.375 218.699219 252.828125 Z M 218.699219 252.828125 " fill-opacity="1" fill-rule="nonzero"/><g clip-path="url(#fa20bdd121)"><path fill="#000000" d="M 232.195312 255.421875 C 232.199219 255.109375 232.394531 254.816406 232.675781 254.6875 C 232.914062 254.582031 233.195312 254.597656 233.417969 254.726562 C 233.511719 254.613281 233.65625 254.546875 233.777344 254.519531 C 233.9375 254.488281 234.117188 254.515625 234.277344 254.605469 C 234.667969 254.816406 234.847656 255.34375 234.675781 255.757812 C 234.609375 255.914062 234.5 256.046875 234.347656 256.140625 C 234.441406 256.5 234.289062 256.917969 233.972656 257.160156 C 233.777344 257.3125 233.527344 257.390625 233.277344 257.390625 C 233.179688 257.390625 233.085938 257.378906 232.992188 257.351562 C 232.675781 257.261719 232.425781 257.039062 232.335938 256.753906 C 232.265625 256.527344 232.308594 256.238281 232.480469 256.054688 C 232.304688 255.902344 232.195312 255.667969 232.195312 255.421875 Z M 232.769531 255.941406 C 232.8125 255.964844 232.839844 256.007812 232.839844 256.0625 C 232.839844 256.113281 232.808594 256.160156 232.765625 256.179688 C 232.585938 256.257812 232.53125 256.503906 232.585938 256.6875 C 232.648438 256.878906 232.832031 257.042969 233.058594 257.105469 C 233.3125 257.179688 233.601562 257.117188 233.8125 256.957031 C 234.03125 256.78125 234.148438 256.503906 234.105469 256.257812 C 233.925781 256.316406 233.738281 256.320312 233.566406 256.265625 C 233.5 256.242188 233.460938 256.167969 233.484375 256.097656 C 233.507812 256.03125 233.578125 255.992188 233.652344 256.015625 C 233.800781 256.0625 233.972656 256.046875 234.125 255.96875 C 234.265625 255.898438 234.375 255.785156 234.429688 255.65625 C 234.554688 255.367188 234.421875 254.988281 234.148438 254.839844 C 234.042969 254.777344 233.925781 254.761719 233.828125 254.78125 C 233.71875 254.804688 233.601562 254.886719 233.578125 254.960938 C 233.5625 255 233.527344 255.03125 233.488281 255.042969 C 233.445312 255.054688 233.402344 255.042969 233.367188 255.015625 C 233.210938 254.882812 232.96875 254.84375 232.78125 254.933594 C 232.59375 255.015625 232.453125 255.222656 232.453125 255.433594 C 232.453125 255.640625 232.582031 255.847656 232.769531 255.941406 Z M 232.769531 255.941406 " fill-opacity="1" fill-rule="nonzero"/></g><g fill="#000000" fill-opacity="1"><g transform="translate(246.549071, 251.982523)"><g><path d="M 4.875 -3.59375 C 5.28125 -3.507812 5.601562 -3.304688 5.84375 -2.984375 C 6.09375 -2.671875 6.21875 -2.3125 6.21875 -1.90625 C 6.21875 -1.320312 6.007812 -0.859375 5.59375 -0.515625 C 5.1875 -0.171875 4.617188 0 3.890625 0 L 0.625 0 L 0.625 -7.015625 L 3.78125 -7.015625 C 4.488281 -7.015625 5.046875 -6.851562 5.453125 -6.53125 C 5.859375 -6.207031 6.0625 -5.765625 6.0625 -5.203125 C 6.0625 -4.785156 5.953125 -4.441406 5.734375 -4.171875 C 5.515625 -3.898438 5.226562 -3.707031 4.875 -3.59375 Z M 2.328125 -4.1875 L 3.453125 -4.1875 C 3.734375 -4.1875 3.945312 -4.242188 4.09375 -4.359375 C 4.238281 -4.484375 4.3125 -4.664062 4.3125 -4.90625 C 4.3125 -5.144531 4.238281 -5.328125 4.09375 -5.453125 C 3.945312 -5.585938 3.734375 -5.65625 3.453125 -5.65625 L 2.328125 -5.65625 Z M 3.59375 -1.375 C 3.875 -1.375 4.09375 -1.4375 4.25 -1.5625 C 4.40625 -1.695312 4.484375 -1.890625 4.484375 -2.140625 C 4.484375 -2.390625 4.398438 -2.582031 4.234375 -2.71875 C 4.078125 -2.863281 3.851562 -2.9375 3.5625 -2.9375 L 2.328125 -2.9375 L 2.328125 -1.375 Z M 3.59375 -1.375 "/></g></g></g><g fill="#000000" fill-opacity="1"><g transform="translate(254.956481, 251.982523)"><g><path d="M 2.296875 -7.015625 L 2.296875 -2.8125 C 2.296875 -2.394531 2.398438 -2.070312 2.609375 -1.84375 C 2.816406 -1.625 3.117188 -1.515625 3.515625 -1.515625 C 3.921875 -1.515625 4.226562 -1.625 4.4375 -1.84375 C 4.65625 -2.070312 4.765625 -2.394531 4.765625 -2.8125 L 4.765625 -7.015625 L 6.46875 -7.015625 L 6.46875 -2.828125 C 6.46875 -2.203125 6.332031 -1.671875 6.0625 -1.234375 C 5.800781 -0.804688 5.441406 -0.484375 4.984375 -0.265625 C 4.535156 -0.046875 4.035156 0.0625 3.484375 0.0625 C 2.929688 0.0625 2.4375 -0.0390625 2 -0.25 C 1.5625 -0.46875 1.21875 -0.796875 0.96875 -1.234375 C 0.71875 -1.671875 0.59375 -2.203125 0.59375 -2.828125 L 0.59375 -7.015625 Z M 2.296875 -7.015625 "/></g></g></g><g fill="#000000" fill-opacity="1"><g transform="translate(263.823704, 251.982523)"><g><path d="M 3.25 -7.015625 C 3.988281 -7.015625 4.632812 -6.867188 5.1875 -6.578125 C 5.738281 -6.285156 6.164062 -5.875 6.46875 -5.34375 C 6.78125 -4.8125 6.9375 -4.203125 6.9375 -3.515625 C 6.9375 -2.828125 6.78125 -2.210938 6.46875 -1.671875 C 6.164062 -1.140625 5.734375 -0.726562 5.171875 -0.4375 C 4.617188 -0.144531 3.976562 0 3.25 0 L 0.625 0 L 0.625 -7.015625 Z M 3.140625 -1.484375 C 3.785156 -1.484375 4.285156 -1.660156 4.640625 -2.015625 C 5.003906 -2.367188 5.1875 -2.867188 5.1875 -3.515625 C 5.1875 -4.160156 5.003906 -4.660156 4.640625 -5.015625 C 4.285156 -5.378906 3.785156 -5.5625 3.140625 -5.5625 L 2.328125 -5.5625 L 2.328125 -1.484375 Z M 3.140625 -1.484375 "/></g></g></g><g fill="#000000" fill-opacity="1"><g transform="translate(272.910849, 251.982523)"><g><path d="M 3.25 -7.015625 C 3.988281 -7.015625 4.632812 -6.867188 5.1875 -6.578125 C 5.738281 -6.285156 6.164062 -5.875 6.46875 -5.34375 C 6.78125 -4.8125 6.9375 -4.203125 6.9375 -3.515625 C 6.9375 -2.828125 6.78125 -2.210938 6.46875 -1.671875 C 6.164062 -1.140625 5.734375 -0.726562 5.171875 -0.4375 C 4.617188 -0.144531 3.976562 0 3.25 0 L 0.625 0 L 0.625 -7.015625 Z M 3.140625 -1.484375 C 3.785156 -1.484375 4.285156 -1.660156 4.640625 -2.015625 C 5.003906 -2.367188 5.1875 -2.867188 5.1875 -3.515625 C 5.1875 -4.160156 5.003906 -4.660156 4.640625 -5.015625 C 4.285156 -5.378906 3.785156 -5.5625 3.140625 -5.5625 L 2.328125 -5.5625 L 2.328125 -1.484375 Z M 3.140625 -1.484375 "/></g></g></g><g fill="#000000" fill-opacity="1"><g transform="translate(281.997992, 251.982523)"><g><path d="M 6.640625 -7.015625 L 4.203125 -2.3125 L 4.203125 0 L 2.5 0 L 2.5 -2.3125 L 0.0625 -7.015625 L 2.015625 -7.015625 L 3.375 -4.078125 L 4.71875 -7.015625 Z M 6.640625 -7.015625 "/></g></g></g></svg>