<svg xmlns="http://www.w3.org/2000/svg" xmlns:xlink="http://www.w3.org/1999/xlink" width="1920" zoomAndPan="magnify" viewBox="0 0 1440 809.999993" height="1080" preserveAspectRatio="xMidYMid meet" version="1.0"><defs><clipPath id="ea4a2ec8a1"><path d="M 353 526 L 402 526 L 402 567 L 353 567 Z M 353 526 " clip-rule="nonzero"/></clipPath></defs><rect x="-144" width="1728" fill="#ffffff" y="-80.999999" height="971.999992" fill-opacity="1"/><rect x="-144" width="1728" fill="#ffffff" y="-80.999999" height="971.999992" fill-opacity="1"/><path fill="#000000" d="M 143.441406 355.925781 C 145.824219 356.195312 150.992188 356.464844 159.046875 356.664062 C 161.714844 356.726562 167.871094 356.753906 177.566406 356.769531 C 179.964844 356.773438 181.855469 356.738281 183.210938 356.707031 C 185.886719 356.644531 188.699219 356.527344 191.65625 356.316406 C 197.75 355.878906 204.125 355.339844 210.816406 354.773438 L 211.585938 354.710938 C 213.898438 354.515625 216.839844 354.367188 220.34375 354.203125 C 222.011719 354.121094 224.289062 354.039062 227.152344 353.960938 L 227.167969 353.960938 L 248.574219 353.457031 L 248.550781 353.457031 L 251.949219 353.347656 L 255.761719 353.222656 C 261.53125 353.035156 267.375 352.851562 270.082031 352.796875 C 271.582031 352.765625 272.820312 353.957031 272.851562 355.453125 C 272.878906 356.949219 271.691406 358.1875 270.191406 358.21875 C 267.527344 358.269531 261.722656 358.453125 255.9375 358.640625 L 252.128906 358.765625 L 248.726562 358.875 L 248.703125 358.878906 L 227.292969 359.378906 L 227.304688 359.378906 C 224.457031 359.460938 222.222656 359.539062 220.601562 359.617188 C 217.070312 359.785156 214.238281 359.929688 212.042969 360.113281 L 211.273438 360.179688 C 204.585938 360.742188 198.179688 361.285156 192.042969 361.722656 C 188.988281 361.941406 186.082031 362.0625 183.339844 362.128906 C 181.953125 362.160156 180.015625 362.195312 177.554688 362.191406 C 167.894531 362.175781 161.660156 362.152344 158.914062 362.082031 C 150.882812 361.886719 145.484375 361.613281 142.828125 361.3125 C 141.339844 361.144531 140.269531 359.800781 140.4375 358.3125 C 140.609375 356.824219 141.953125 355.753906 143.441406 355.925781 Z M 143.441406 355.925781 " fill-opacity="1" fill-rule="nonzero"/><path fill="#000000" d="M 107.5 376.953125 C 109.074219 376.757812 112.804688 376.535156 118.480469 376.191406 C 125.394531 375.773438 135.386719 375.167969 148.46875 374.21875 C 155.296875 373.722656 161.398438 373.195312 166.765625 372.734375 C 170.96875 372.371094 174.742188 372.046875 178.066406 371.804688 C 179.921875 371.671875 181.640625 371.5625 183.230469 371.488281 C 188.050781 371.257812 195.652344 371.085938 205.988281 370.863281 C 208.921875 370.800781 216.695312 370.757812 229.273438 370.777344 L 229.238281 370.777344 L 247.046875 370.570312 L 246.988281 370.574219 C 253.25 370.371094 258.882812 370.390625 263.316406 370.410156 C 266.25 370.421875 268.609375 370.429688 270.3125 370.375 C 271.648438 370.332031 272.285156 370.253906 272.472656 370.203125 C 272.472656 370.203125 272.464844 370.207031 272.453125 370.210938 C 273.882812 369.757812 275.40625 370.550781 275.859375 371.976562 C 276.3125 373.40625 275.519531 374.929688 274.089844 375.378906 C 274.011719 375.40625 273.933594 375.425781 273.859375 375.445312 C 272.988281 375.675781 271.742188 375.753906 270.488281 375.792969 C 268.664062 375.855469 266.183594 375.84375 263.292969 375.832031 C 258.855469 375.816406 253.316406 375.792969 247.167969 375.992188 L 247.109375 375.992188 L 229.300781 376.199219 L 229.265625 376.199219 C 216.675781 376.183594 208.964844 376.222656 206.105469 376.285156 C 195.742188 376.507812 188.21875 376.679688 183.488281 376.902344 C 181.960938 376.976562 180.285156 377.082031 178.460938 377.214844 C 175.183594 377.453125 171.441406 377.773438 167.230469 378.136719 C 161.863281 378.601562 155.738281 379.128906 148.859375 379.628906 C 135.742188 380.578125 125.726562 381.183594 118.808594 381.605469 C 113 381.957031 109.515625 382.167969 108.15625 382.332031 C 106.667969 382.515625 105.316406 381.457031 105.132812 379.972656 C 104.953125 378.484375 106.011719 377.132812 107.5 376.953125 Z M 107.5 376.953125 " fill-opacity="1" fill-rule="nonzero"/><path fill="#000000" d="M 85.027344 406.574219 L 84.945312 406.558594 L 85.027344 406.574219 C 84.632812 406.5 84.238281 406.414062 83.914062 406.316406 C 85.480469 406.789062 81.183594 406.164062 81.773438 403.074219 C 81.902344 402.394531 82.253906 401.921875 82.535156 401.644531 C 83.097656 401.082031 83.882812 400.796875 84.679688 400.863281 C 88.492188 401.1875 91.695312 401.136719 94.328125 400.785156 C 108.457031 398.902344 116.511719 397.929688 118.03125 397.929688 C 118.097656 397.929688 118.183594 397.929688 118.273438 397.933594 L 116.664062 402.925781 C 116.292969 402.6875 114.566406 401.179688 115.839844 399.183594 L 115.847656 399.167969 C 116.804688 397.691406 119.246094 397.816406 117.988281 397.921875 C 118.34375 397.894531 119.296875 397.859375 120.671875 397.804688 C 123.820312 397.683594 129.78125 397.457031 138.542969 396.984375 C 146.113281 396.574219 151.457031 396.179688 154.601562 395.945312 C 155.890625 395.851562 156.847656 395.78125 157.425781 395.75 C 157.503906 395.742188 157.574219 395.742188 157.644531 395.738281 L 157.640625 395.738281 L 157.652344 395.738281 C 161.21875 395.585938 165.289062 395.410156 169.839844 395.351562 L 169.84375 395.351562 L 182.234375 395.195312 L 182.238281 395.195312 L 189.332031 395.109375 C 194.726562 395.039062 197.765625 394.992188 198.53125 394.960938 L 198.542969 394.960938 L 223.03125 394.027344 C 226.015625 393.917969 232.601562 393.824219 242.71875 393.6875 C 245.144531 393.65625 247.082031 393.578125 248.539062 393.472656 C 260.265625 392.640625 283.984375 390.738281 288.882812 389.453125 C 290.335938 389.074219 291.816406 389.941406 292.199219 391.390625 C 292.578125 392.835938 291.710938 394.320312 290.261719 394.699219 C 284.726562 396.148438 260.273438 398.074219 248.921875 398.882812 C 247.332031 398.996094 245.285156 399.074219 242.792969 399.109375 C 232.628906 399.246094 226.132812 399.339844 223.234375 399.449219 L 198.75 400.378906 L 198.761719 400.378906 C 197.890625 400.414062 194.730469 400.460938 189.402344 400.53125 L 182.304688 400.617188 L 169.910156 400.773438 C 165.449219 400.832031 161.457031 401.003906 157.886719 401.15625 L 157.890625 401.15625 L 157.878906 401.15625 C 157.835938 401.15625 157.777344 401.160156 157.714844 401.164062 C 157.207031 401.191406 156.324219 401.253906 155 401.355469 C 151.847656 401.585938 146.460938 401.984375 138.835938 402.398438 C 130.03125 402.871094 124.042969 403.101562 120.878906 403.222656 C 119.386719 403.28125 118.636719 403.308594 118.453125 403.328125 C 117.074219 403.445312 119.457031 403.578125 120.40625 402.113281 L 120.417969 402.09375 C 121.6875 400.101562 119.960938 398.59375 119.589844 398.359375 C 120.636719 399.035156 121.089844 400.3125 120.707031 401.480469 C 120.328125 402.648438 119.210938 403.414062 117.984375 403.347656 C 118.023438 403.351562 118.042969 403.351562 118.039062 403.351562 C 116.988281 403.351562 109.472656 404.238281 95.046875 406.160156 C 91.933594 406.574219 88.320312 406.617188 84.21875 406.265625 L 86.363281 405.484375 C 86.628906 405.21875 86.976562 404.757812 87.105469 404.085938 L 87.105469 404.089844 C 87.679688 401.074219 83.554688 400.542969 85.480469 401.125 C 85.523438 401.136719 85.6875 401.179688 86.039062 401.246094 L 86.121094 401.265625 L 86.125 401.265625 C 87.511719 401.527344 88.480469 402.945312 88.199219 404.417969 C 87.921875 405.886719 86.5 406.855469 85.027344 406.574219 Z M 85.027344 406.574219 " fill-opacity="1" fill-rule="nonzero"/><path fill="#000000" d="M 98.480469 419.371094 C 101.96875 419.445312 107.214844 419.460938 114.21875 419.214844 C 116.355469 419.136719 118.710938 419.050781 121.316406 418.953125 C 124.425781 418.839844 128.078125 418.707031 131.882812 418.570312 C 135.585938 418.441406 139.597656 418.304688 143.933594 418.164062 L 143.910156 418.167969 L 143.9375 418.164062 C 147.246094 418.058594 150.027344 417.90625 152.308594 417.777344 L 152.3125 417.777344 L 152.621094 417.761719 C 161.566406 417.265625 168.097656 416.820312 172.265625 416.535156 L 173.28125 416.464844 C 173.882812 416.425781 177.835938 416.054688 185.269531 415.363281 L 199.066406 414.078125 C 206.882812 413.351562 212.179688 413.046875 214.9375 412.9375 C 216.375 412.882812 217.449219 412.847656 218.109375 412.84375 L 219.914062 412.832031 C 220.574219 412.828125 221.308594 412.824219 222.023438 412.820312 C 225.660156 412.796875 229.992188 412.757812 234.992188 412.65625 C 240.140625 412.550781 243.984375 412.457031 246.507812 412.390625 L 246.503906 412.390625 C 247.738281 412.363281 248.671875 412.339844 249.28125 412.328125 C 249.496094 412.320312 249.691406 412.320312 249.835938 412.316406 C 250.9375 412.304688 257.09375 412.050781 264.671875 411.738281 C 276.246094 411.257812 291.054688 410.644531 295.34375 410.59375 C 295.511719 410.59375 295.675781 410.589844 295.820312 410.589844 C 297.316406 410.589844 298.535156 411.800781 298.539062 413.296875 C 298.539062 414.796875 297.328125 416.011719 295.828125 416.011719 C 295.707031 416.015625 295.566406 416.015625 295.40625 416.015625 C 291.226562 416.066406 276.535156 416.671875 264.894531 417.15625 C 257.402344 417.464844 251.109375 417.722656 249.898438 417.738281 C 249.777344 417.742188 249.605469 417.742188 249.394531 417.746094 C 248.796875 417.761719 247.878906 417.78125 246.640625 417.8125 C 244.121094 417.875 240.257812 417.972656 235.101562 418.078125 C 230.066406 418.179688 225.707031 418.21875 222.058594 418.242188 C 221.261719 418.246094 220.6875 418.25 219.945312 418.253906 L 218.144531 418.265625 C 217.585938 418.269531 216.601562 418.300781 215.144531 418.355469 C 212.503906 418.460938 207.304688 418.757812 199.570312 419.476562 L 185.773438 420.761719 C 178.417969 421.449219 174.34375 421.828125 173.652344 421.875 L 172.636719 421.945312 C 168.460938 422.230469 161.90625 422.679688 152.921875 423.175781 L 152.609375 423.191406 C 150.328125 423.320312 147.488281 423.476562 144.109375 423.585938 L 144.136719 423.582031 L 144.132812 423.585938 L 144.109375 423.585938 C 139.78125 423.722656 135.769531 423.859375 132.078125 423.992188 C 128.277344 424.125 124.625 424.257812 121.519531 424.375 C 118.921875 424.46875 116.542969 424.558594 114.410156 424.632812 C 107.304688 424.882812 101.953125 424.871094 98.363281 424.789062 C 96.863281 424.757812 95.675781 423.519531 95.707031 422.019531 C 95.742188 420.523438 96.980469 419.335938 98.480469 419.371094 Z M 98.480469 419.371094 " fill-opacity="1" fill-rule="nonzero"/><path fill="#000000" d="M 145.707031 437.746094 C 145.945312 439.371094 145.238281 440.351562 143.59375 440.691406 C 144.949219 440.390625 145.855469 439.113281 145.703125 437.746094 Z M 241.515625 429.339844 C 238.175781 429.339844 234.835938 429.402344 231.492188 429.527344 L 231.488281 429.527344 C 228.640625 429.554688 219.945312 430.101562 205.40625 431.167969 C 199.203125 431.617188 189.824219 432.476562 177.273438 433.742188 C 175.113281 433.9375 172.964844 434.105469 170.828125 434.246094 L 170.804688 434.246094 C 170.742188 434.25 170.679688 434.257812 170.621094 434.265625 L 170.617188 434.265625 C 169.730469 434.363281 163.988281 434.621094 153.386719 435.046875 L 153.382812 435.046875 C 146.90625 435.203125 143.410156 435.296875 142.890625 435.332031 C 142.75 435.339844 142.625 435.355469 142.507812 435.375 L 142.503906 435.378906 C 140.726562 435.714844 140.003906 436.769531 140.339844 438.542969 C 140.582031 439.847656 141.722656 440.753906 143.003906 440.753906 C 143.097656 440.753906 143.191406 440.75 143.289062 440.738281 L 143.285156 440.738281 C 143.886719 440.707031 147.308594 440.617188 153.546875 440.464844 L 153.589844 440.464844 C 164.375 440.035156 170.265625 439.761719 171.261719 439.652344 L 171.257812 439.652344 C 173.421875 439.507812 175.601562 439.335938 177.789062 439.140625 L 177.820312 439.136719 C 190.320312 437.875 199.648438 437.023438 205.800781 436.578125 L 205.804688 436.578125 C 220.304688 435.511719 228.898438 434.96875 231.574219 434.949219 L 231.65625 434.949219 C 234.945312 434.824219 238.230469 434.765625 241.515625 434.765625 C 241.617188 434.765625 241.722656 434.765625 241.824219 434.765625 L 241.820312 434.765625 L 263.042969 435.074219 L 263.109375 435.078125 C 263.164062 435.074219 263.222656 435.074219 263.28125 435.074219 C 265.253906 435.074219 269.011719 435.398438 274.546875 436.042969 C 274.65625 436.054688 274.761719 436.0625 274.867188 436.0625 C 276.222656 436.0625 277.394531 435.042969 277.558594 433.664062 C 277.730469 432.175781 276.664062 430.832031 275.175781 430.65625 C 269.429688 429.988281 265.457031 429.652344 263.261719 429.652344 C 263.203125 429.652344 263.144531 429.652344 263.089844 429.652344 L 241.878906 429.34375 L 241.84375 429.339844 C 241.734375 429.339844 241.625 429.339844 241.515625 429.339844 Z M 241.515625 429.339844 " fill-opacity="1" fill-rule="nonzero"/><path fill="#000000" d="M 310.183594 265.996094 C 296.679688 265.996094 285.335938 272.746094 276.152344 286.246094 C 275.910156 286.242188 275.664062 286.214844 275.414062 286.167969 L 275.40625 286.167969 C 271.59375 284.074219 267.515625 282.960938 263.179688 282.824219 L 263.171875 282.824219 C 262.914062 282.816406 262.65625 282.8125 262.394531 282.8125 C 258.65625 282.8125 254.695312 283.582031 250.511719 285.125 C 250.40625 285.164062 250.300781 285.207031 250.199219 285.261719 C 237.472656 291.863281 229.0625 301.132812 224.96875 313.0625 C 224.9375 313.152344 224.910156 313.246094 224.886719 313.339844 C 221.324219 329.074219 223.160156 341.726562 230.398438 351.296875 C 230.929688 352.003906 231.742188 352.375 232.5625 352.375 C 233.132812 352.375 233.707031 352.195312 234.199219 351.828125 C 235.394531 350.925781 235.628906 349.222656 234.726562 348.03125 C 228.527344 339.832031 227 328.726562 230.140625 314.71875 L 230.136719 314.71875 C 233.757812 304.257812 241.222656 296.070312 252.539062 290.160156 L 252.535156 290.160156 C 256.054688 288.875 259.34375 288.234375 262.398438 288.234375 C 262.601562 288.234375 262.808594 288.238281 263.015625 288.242188 C 266.589844 288.355469 269.945312 289.304688 273.078125 291.078125 C 273.285156 291.195312 273.503906 291.285156 273.730469 291.34375 C 274.5625 291.5625 275.386719 291.671875 276.199219 291.671875 C 276.933594 291.671875 277.660156 291.582031 278.378906 291.40625 C 279.042969 291.242188 279.625 290.832031 280 290.257812 C 288.214844 277.71875 298.359375 271.453125 310.429688 271.453125 C 313.097656 271.453125 315.859375 271.757812 318.714844 272.371094 L 318.710938 272.371094 C 337.015625 277.125 343.753906 288.992188 338.929688 307.976562 C 338.558594 309.429688 339.4375 310.90625 340.890625 311.273438 C 341.113281 311.332031 341.339844 311.355469 341.558594 311.355469 C 342.773438 311.355469 343.875 310.539062 344.1875 309.3125 C 349.90625 286.8125 341.84375 272.742188 319.988281 267.101562 C 319.953125 267.089844 319.917969 267.082031 319.882812 267.074219 C 316.535156 266.355469 313.300781 265.996094 310.183594 265.996094 Z M 310.183594 265.996094 " fill-opacity="1" fill-rule="nonzero"/><path fill="#000000" d="M 373.238281 372.328125 C 373.300781 372.628906 373.277344 372.976562 373.171875 373.371094 C 373.261719 373.027344 373.28125 372.675781 373.234375 372.328125 Z M 350.609375 301.117188 C 336.957031 301.117188 321.28125 306.402344 303.585938 316.96875 C 302.300781 317.738281 301.882812 319.402344 302.652344 320.6875 C 303.160156 321.535156 304.058594 322.007812 304.984375 322.007812 C 305.457031 322.007812 305.9375 321.882812 306.371094 321.621094 C 323.171875 311.589844 337.902344 306.570312 350.558594 306.570312 C 359.164062 306.570312 366.8125 308.890625 373.5 313.527344 L 373.496094 313.527344 C 380.925781 320.78125 384.121094 328.929688 383.085938 337.976562 L 383.078125 338.027344 C 382.570312 343.339844 381.628906 347.597656 380.253906 350.804688 C 377.445312 356.675781 373.628906 362.792969 368.800781 369.15625 C 368.730469 369.246094 368.667969 369.34375 368.605469 369.449219 C 368.304688 369.976562 368.085938 370.496094 367.949219 371.007812 C 367.792969 371.585938 367.746094 372.152344 367.800781 372.699219 L 367.792969 372.699219 C 367.703125 373.84375 368.222656 374.851562 369.355469 375.722656 C 370.199219 376.375 371.597656 376.996094 373.542969 377.589844 C 375.691406 378.246094 378.675781 378.933594 382.492188 379.652344 L 382.488281 379.652344 C 384.414062 380.535156 385.90625 381.464844 386.964844 382.445312 C 386.996094 382.476562 387.03125 382.503906 387.0625 382.535156 C 390.046875 385.046875 391.914062 388.863281 392.65625 393.976562 L 392.652344 393.976562 C 393.027344 398.808594 391.800781 403.113281 388.972656 406.898438 C 388.175781 407.960938 386.761719 409.277344 384.730469 410.851562 L 384.722656 410.851562 L 370.386719 420.523438 C 369.8125 420.910156 369.40625 421.503906 369.257812 422.179688 C 369.089844 422.933594 369.15625 423.722656 369.457031 424.542969 C 369.84375 425.597656 370.695312 426.808594 372.011719 428.183594 C 372.050781 428.222656 372.09375 428.265625 372.136719 428.304688 C 380.273438 435.761719 384.785156 440.433594 385.671875 442.320312 C 385.707031 442.398438 385.746094 442.472656 385.789062 442.546875 C 388.78125 447.625 390.808594 452.917969 391.871094 458.421875 C 391.878906 458.464844 391.890625 458.503906 391.898438 458.542969 C 395.175781 472.113281 392.863281 484.300781 384.957031 495.105469 L 384.949219 495.105469 C 374.007812 505.289062 363.890625 510.378906 354.59375 510.378906 C 346.863281 510.378906 339.703125 506.863281 333.109375 499.828125 C 329.304688 495.765625 325.652344 490.5625 322.152344 484.21875 C 321.660156 483.324219 320.730469 482.816406 319.773438 482.816406 C 319.332031 482.816406 318.882812 482.925781 318.46875 483.152344 C 317.15625 483.875 316.675781 485.523438 317.402344 486.835938 C 321.117188 493.578125 325.03125 499.140625 329.148438 503.53125 C 337 511.914062 345.460938 516.101562 354.527344 516.101562 C 365.140625 516.101562 376.585938 510.359375 388.859375 498.875 C 388.980469 498.761719 389.09375 498.640625 389.191406 498.507812 C 398.179688 486.335938 400.851562 472.632812 397.203125 457.394531 C 396.03125 451.335938 393.816406 445.523438 390.558594 439.953125 L 390.554688 439.953125 C 389.316406 437.40625 384.4375 432.222656 375.917969 424.410156 L 375.910156 424.410156 C 375.679688 424.171875 375.480469 423.949219 375.304688 423.75 L 375.300781 423.75 L 387.878906 415.265625 C 387.929688 415.230469 387.976562 415.195312 388.023438 415.160156 C 390.457031 413.277344 392.222656 411.605469 393.316406 410.144531 C 397.003906 405.21875 398.578125 399.621094 398.046875 393.359375 C 398.042969 393.304688 398.035156 393.25 398.027344 393.199219 C 397.09375 386.78125 394.640625 381.871094 390.664062 378.476562 L 390.660156 378.476562 C 389.109375 377.035156 387.023438 375.734375 384.40625 374.566406 C 384.214844 374.480469 384.007812 374.417969 383.800781 374.378906 C 380.03125 373.675781 377.140625 373.015625 375.125 372.402344 C 374.484375 372.207031 373.960938 372.03125 373.554688 371.871094 L 373.546875 371.871094 C 378.429688 365.378906 382.3125 359.097656 385.199219 353.035156 C 385.214844 353.003906 385.230469 352.96875 385.242188 352.9375 C 386.835938 349.226562 387.914062 344.445312 388.476562 338.59375 C 389.722656 327.710938 385.933594 318 377.097656 309.464844 C 376.996094 309.367188 376.886719 309.277344 376.769531 309.195312 C 369.078125 303.8125 360.359375 301.117188 350.609375 301.117188 Z M 350.609375 301.117188 " fill-opacity="1" fill-rule="nonzero"/><path fill="#000000" d="M 261.550781 454.277344 C 261.050781 454.277344 260.542969 454.417969 260.089844 454.707031 C 256.714844 456.871094 254.828125 460.757812 254.425781 466.378906 L 254.421875 466.378906 C 253.519531 472.402344 253.757812 477.765625 255.136719 482.46875 L 255.152344 482.523438 C 258.316406 492.5 264.867188 500.757812 274.808594 507.292969 C 274.863281 507.328125 274.914062 507.359375 274.96875 507.390625 C 283.492188 512.191406 292.152344 514.59375 300.941406 514.59375 C 312.175781 514.59375 323.628906 510.671875 335.300781 502.824219 C 336.542969 501.988281 336.871094 500.300781 336.035156 499.058594 C 335.511719 498.28125 334.65625 497.863281 333.78125 497.863281 C 333.261719 497.863281 332.734375 498.011719 332.269531 498.324219 C 321.582031 505.511719 311.128906 509.105469 300.910156 509.105469 C 293.050781 509.105469 285.332031 506.980469 277.75 502.730469 L 277.742188 502.730469 C 268.921875 496.917969 263.121094 489.65625 260.34375 480.945312 C 259.179688 476.96875 259 472.328125 259.8125 467.027344 C 259.820312 466.953125 259.828125 466.878906 259.835938 466.804688 C 260.101562 462.972656 261.164062 460.460938 263.019531 459.273438 C 264.28125 458.464844 264.648438 456.789062 263.839844 455.527344 C 263.320312 454.71875 262.445312 454.277344 261.550781 454.277344 Z M 261.550781 454.277344 " fill-opacity="1" fill-rule="nonzero"/><path fill="#000000" d="M 282.195312 317.457031 C 279.390625 317.457031 277.371094 318.675781 276.140625 321.121094 L 276.136719 321.121094 C 273.996094 324.53125 272.132812 329.144531 270.546875 334.960938 L 270.542969 334.960938 C 267.960938 343.011719 267.449219 351.777344 269.015625 361.253906 C 269.957031 367.867188 272.347656 374.667969 276.183594 381.664062 C 278.164062 385.414062 283.429688 391.269531 291.984375 399.222656 C 292.507812 399.710938 293.171875 399.949219 293.832031 399.949219 C 294.5625 399.949219 295.285156 399.660156 295.820312 399.085938 C 296.839844 397.988281 296.78125 396.273438 295.683594 395.253906 C 287.546875 387.6875 282.640625 382.304688 280.96875 379.105469 L 280.941406 379.058594 C 277.414062 372.621094 275.226562 366.414062 274.378906 360.433594 L 274.371094 360.371094 C 272.941406 351.710938 273.398438 343.757812 275.746094 336.507812 C 275.757812 336.46875 275.769531 336.425781 275.78125 336.386719 C 277.25 331.007812 278.925781 326.835938 280.816406 323.867188 C 280.871094 323.78125 280.921875 323.695312 280.964844 323.601562 C 281.199219 323.125 281.664062 322.886719 282.355469 322.886719 C 282.460938 322.886719 282.574219 322.890625 282.6875 322.902344 C 282.777344 322.910156 282.863281 322.914062 282.949219 322.914062 C 284.332031 322.914062 285.511719 321.863281 285.648438 320.460938 C 285.789062 318.96875 284.695312 317.644531 283.203125 317.503906 C 282.855469 317.472656 282.519531 317.457031 282.195312 317.457031 Z M 282.195312 317.457031 " fill-opacity="1" fill-rule="nonzero"/><path fill="#000000" d="M 314.386719 369.273438 C 314.351562 369.273438 314.316406 369.273438 314.277344 369.277344 C 300.78125 369.820312 293.660156 378.65625 292.910156 395.785156 C 292.90625 395.839844 292.90625 395.898438 292.90625 395.957031 C 293.050781 403.09375 294.601562 410.082031 297.550781 416.917969 C 297.582031 416.988281 297.617188 417.058594 297.652344 417.125 C 301.089844 423.523438 305.925781 429.929688 312.15625 436.339844 C 312.6875 436.886719 313.394531 437.160156 314.101562 437.160156 C 314.78125 437.160156 315.464844 436.90625 315.992188 436.394531 C 317.066406 435.351562 317.09375 433.636719 316.046875 432.5625 C 310.21875 426.5625 305.710938 420.613281 302.515625 414.710938 L 302.507812 414.710938 C 299.878906 408.59375 298.488281 402.363281 298.335938 396.007812 L 298.332031 396.007812 C 298.9375 382.207031 304.328125 375.105469 314.496094 374.695312 C 315.992188 374.632812 317.160156 373.371094 317.097656 371.875 C 317.039062 370.417969 315.835938 369.273438 314.386719 369.273438 Z M 314.386719 369.273438 " fill-opacity="1" fill-rule="nonzero"/><path fill="#000000" d="M 299.003906 407.589844 C 298.546875 407.589844 298.085938 407.707031 297.664062 407.945312 C 285.378906 414.914062 277.058594 424.136719 272.699219 435.613281 L 272.683594 435.65625 C 270.066406 442.929688 269.359375 449.398438 270.5625 455.0625 C 271.152344 458.035156 272.71875 460.449219 275.257812 462.304688 L 275.328125 462.355469 C 275.722656 462.621094 276.109375 462.835938 276.496094 462.996094 C 276.605469 463.042969 276.71875 463.085938 276.832031 463.121094 C 277.402344 463.316406 277.941406 463.414062 278.441406 463.414062 C 279.839844 463.414062 280.957031 462.667969 281.804688 461.175781 C 281.992188 460.84375 282.15625 460.472656 282.296875 460.0625 C 282.773438 458.644531 282.011719 457.105469 280.589844 456.628906 C 280.304688 456.53125 280.011719 456.484375 279.722656 456.484375 C 278.972656 456.484375 278.257812 456.796875 277.746094 457.339844 C 276.757812 456.410156 276.136719 455.292969 275.882812 453.980469 L 275.871094 453.9375 C 274.882812 449.289062 275.515625 443.824219 277.773438 437.535156 C 281.671875 427.277344 289.195312 418.984375 300.34375 412.660156 C 301.648438 411.921875 302.105469 410.265625 301.363281 408.964844 C 300.863281 408.085938 299.945312 407.589844 299.003906 407.589844 Z M 299.003906 407.589844 " fill-opacity="1" fill-rule="nonzero"/><path fill="#000000" d="M 168.265625 290.109375 C 168.074219 290.109375 167.878906 290.128906 167.6875 290.171875 C 160.484375 291.730469 155.738281 296.644531 153.445312 304.910156 L 153.441406 304.933594 C 151.5 312.1875 153.152344 318.519531 158.394531 323.921875 C 158.433594 323.960938 158.46875 323.996094 158.511719 324.035156 C 161.625 326.882812 165.160156 328.308594 169.117188 328.308594 C 171.402344 328.308594 173.828125 327.835938 176.398438 326.882812 C 184.925781 323.785156 189.257812 318.714844 189.394531 311.671875 C 189.425781 310.175781 188.234375 308.9375 186.734375 308.910156 C 186.71875 308.90625 186.699219 308.90625 186.679688 308.90625 C 185.207031 308.90625 183.996094 310.085938 183.96875 311.566406 C 183.878906 316.128906 180.738281 319.539062 174.542969 321.785156 L 174.523438 321.792969 C 172.648438 322.488281 170.894531 322.835938 169.257812 322.835938 C 166.617188 322.835938 164.285156 321.929688 162.265625 320.113281 L 162.261719 320.113281 C 158.472656 316.195312 157.28125 311.609375 158.675781 306.359375 C 160.382812 300.195312 163.769531 296.566406 168.835938 295.46875 C 170.300781 295.152344 171.230469 293.710938 170.914062 292.246094 C 170.636719 290.976562 169.515625 290.109375 168.265625 290.109375 Z M 168.265625 290.109375 " fill-opacity="1" fill-rule="nonzero"/><path fill="#000000" d="M 159.300781 301.984375 L 156.660156 302.425781 C 155.179688 302.671875 153.78125 301.671875 153.535156 300.195312 C 153.289062 298.71875 154.289062 297.324219 155.765625 297.074219 L 158.40625 296.636719 C 159.886719 296.386719 161.285156 297.386719 161.53125 298.863281 C 161.777344 300.339844 160.78125 301.738281 159.300781 301.984375 Z M 159.300781 301.984375 " fill-opacity="1" fill-rule="nonzero"/><path fill="#000000" d="M 191.28125 285.355469 C 191.25 285.363281 191.21875 285.367188 191.1875 285.375 C 191.160156 285.378906 191.132812 285.386719 191.105469 285.394531 L 191.101562 285.394531 C 191.164062 285.378906 191.222656 285.367188 191.277344 285.355469 Z M 175.859375 271.738281 C 175.070312 271.738281 174.257812 271.777344 173.414062 271.855469 C 173.363281 271.863281 173.3125 271.867188 173.261719 271.875 C 165.164062 273.097656 159.59375 276.550781 156.554688 282.234375 L 156.550781 282.234375 C 154.921875 284.8125 154.378906 287.417969 154.925781 290.042969 C 154.953125 290.160156 154.984375 290.277344 155.023438 290.394531 C 156.207031 293.738281 158.390625 295.960938 161.570312 297.070312 C 161.867188 297.171875 162.167969 297.21875 162.464844 297.21875 C 163.585938 297.21875 164.636719 296.519531 165.027344 295.398438 C 165.519531 293.984375 164.769531 292.4375 163.355469 291.945312 C 161.875 291.433594 160.828125 290.378906 160.214844 288.785156 L 160.210938 288.785156 C 160.011719 287.609375 160.34375 286.359375 161.199219 285.039062 C 161.238281 284.972656 161.28125 284.90625 161.316406 284.835938 C 163.484375 280.742188 167.710938 278.214844 173.992188 277.25 L 173.988281 277.25 C 174.640625 277.191406 175.265625 277.160156 175.863281 277.160156 C 178.292969 277.160156 180.285156 277.652344 181.835938 278.632812 C 181.894531 278.671875 181.957031 278.707031 182.015625 278.738281 C 185.339844 280.5 187.320312 283.582031 187.957031 287.976562 C 188.066406 288.734375 188.492188 289.410156 189.128906 289.835938 C 189.425781 290.035156 189.707031 290.199219 189.96875 290.328125 C 190.542969 290.613281 191.101562 290.753906 191.644531 290.753906 C 191.863281 290.753906 192.078125 290.730469 192.289062 290.6875 L 192.285156 290.6875 C 193.089844 290.519531 193.824219 290.4375 194.492188 290.4375 C 195.113281 290.4375 195.675781 290.507812 196.179688 290.652344 C 196.210938 290.664062 196.246094 290.671875 196.28125 290.679688 C 197.425781 290.960938 198.707031 291.648438 200.117188 292.75 L 200.113281 292.75 C 203.199219 295.855469 205.480469 299.351562 206.960938 303.238281 L 206.957031 303.238281 C 207.722656 305.640625 207.6875 308.035156 206.84375 310.425781 L 206.839844 310.425781 C 205.511719 313.632812 203.644531 315.773438 201.238281 316.84375 L 201.234375 316.84375 C 200.40625 317.054688 199.5 317.160156 198.515625 317.160156 C 196.671875 317.160156 194.554688 316.789062 192.171875 316.046875 C 191.902344 315.964844 191.628906 315.925781 191.363281 315.925781 C 190.207031 315.925781 189.132812 316.667969 188.773438 317.832031 C 188.328125 319.261719 189.125 320.78125 190.558594 321.226562 C 193.460938 322.128906 196.117188 322.578125 198.527344 322.578125 C 200.074219 322.578125 201.519531 322.394531 202.863281 322.023438 C 202.976562 321.992188 203.085938 321.953125 203.195312 321.90625 C 207.085938 320.265625 209.992188 317.078125 211.917969 312.34375 C 211.933594 312.304688 211.949219 312.265625 211.964844 312.222656 C 213.226562 308.632812 213.265625 305.035156 212.074219 301.425781 C 212.0625 301.386719 212.046875 301.347656 212.03125 301.308594 C 210.257812 296.644531 207.519531 292.46875 203.820312 288.78125 C 203.746094 288.707031 203.667969 288.636719 203.585938 288.574219 C 201.546875 286.964844 199.570312 285.917969 197.660156 285.433594 L 197.65625 285.433594 C 196.671875 285.15625 195.621094 285.015625 194.496094 285.015625 C 193.988281 285.015625 193.464844 285.042969 192.929688 285.101562 C 191.730469 280.03125 188.980469 276.335938 184.679688 274.011719 L 184.675781 274.011719 C 182.25 272.496094 179.3125 271.738281 175.859375 271.738281 Z M 175.859375 271.738281 " fill-opacity="1" fill-rule="nonzero"/><path fill="#000000" d="M 204.796875 478.761719 C 205.128906 478.761719 205.484375 478.855469 205.863281 479.039062 C 205.566406 478.894531 205.246094 478.804688 204.914062 478.773438 C 204.863281 478.769531 204.816406 478.765625 204.765625 478.761719 L 204.761719 478.761719 C 204.773438 478.761719 204.785156 478.761719 204.796875 478.761719 Z M 226.867188 505.714844 C 226.960938 505.984375 227.011719 506.242188 227.015625 506.484375 C 227.011719 506.476562 227.007812 506.472656 227.003906 506.46875 L 227 506.46875 C 226.988281 506.210938 226.941406 505.960938 226.863281 505.714844 Z M 215.734375 479.191406 C 216.234375 479.191406 216.777344 479.21875 217.367188 479.277344 L 217.363281 479.277344 C 221.175781 479.78125 224.636719 482.898438 227.738281 488.628906 L 227.734375 488.628906 C 228.734375 491.804688 228.8125 494.753906 227.980469 497.464844 L 227.976562 497.464844 C 227.441406 498.929688 226.941406 499.925781 226.472656 500.460938 C 226.378906 500.5625 226.296875 500.671875 226.222656 500.785156 C 226.222656 500.785156 226.222656 500.789062 226.222656 500.789062 C 225.921875 501.242188 224.953125 502.015625 223.316406 503.121094 C 223.03125 503.308594 222.789062 503.550781 222.59375 503.832031 C 222.328125 504.222656 222.117188 504.570312 221.964844 504.875 L 221.964844 504.878906 C 221.617188 505.582031 221.488281 506.257812 221.582031 506.894531 L 221.574219 506.894531 C 221.59375 507.304688 221.667969 507.714844 221.792969 508.128906 C 221.828125 508.234375 221.863281 508.339844 221.902344 508.449219 C 221.972656 508.632812 222.058594 508.804688 222.164062 508.96875 C 223.152344 510.496094 223.695312 511.507812 223.792969 512.003906 L 223.789062 512.003906 C 223.800781 512.179688 223.832031 512.359375 223.878906 512.53125 C 224 512.96875 223.894531 513.726562 223.5625 514.804688 L 223.558594 514.804688 C 222.132812 517.703125 219 519.707031 214.160156 520.816406 L 214.15625 520.816406 C 212.914062 521.042969 211.734375 521.152344 210.617188 521.152344 C 206.851562 521.152344 203.769531 519.878906 201.371094 517.335938 C 199.3125 515.09375 198.5625 511.960938 199.109375 507.9375 L 199.105469 507.9375 C 201.644531 507.40625 204.394531 505.914062 207.359375 503.464844 C 208.515625 502.507812 208.675781 500.800781 207.722656 499.648438 C 207.183594 499 206.410156 498.664062 205.628906 498.664062 C 205.019531 498.664062 204.40625 498.867188 203.902344 499.285156 C 202.464844 500.472656 201.132812 501.328125 199.910156 501.851562 C 199.597656 501.175781 199.003906 500.628906 198.234375 500.394531 C 197.972656 500.316406 197.707031 500.28125 197.449219 500.28125 C 196.394531 500.28125 195.414062 500.894531 194.972656 501.878906 C 194.429688 501.566406 193.921875 501.128906 193.457031 500.566406 C 193.363281 500.457031 193.273438 500.339844 193.183594 500.222656 L 193.179688 500.222656 C 191.496094 497.296875 190.917969 494.136719 191.449219 490.738281 L 191.460938 490.667969 C 191.742188 488.496094 193.074219 486.589844 195.453125 484.949219 L 195.457031 484.949219 C 196.386719 484.304688 198.101562 483.984375 200.609375 483.984375 C 201.664062 483.984375 202.863281 484.042969 204.203125 484.15625 L 204.199219 484.15625 C 204.386719 484.195312 204.582031 484.214844 204.78125 484.214844 C 205.257812 484.214844 205.753906 484.101562 206.277344 483.882812 C 207.261719 483.464844 208.886719 482.332031 211.15625 480.492188 L 211.152344 480.492188 C 211.6875 480.191406 212.253906 479.929688 212.855469 479.707031 C 212.914062 479.683594 212.96875 479.664062 213.023438 479.636719 C 213.6875 479.339844 214.59375 479.191406 215.734375 479.191406 Z M 215.789062 473.773438 C 213.859375 473.773438 212.214844 474.070312 210.863281 474.664062 L 210.855469 474.664062 C 209.941406 475.011719 209.074219 475.421875 208.253906 475.902344 C 208.132812 475.972656 208.015625 476.054688 207.90625 476.140625 C 206.246094 477.5 205.09375 478.363281 204.453125 478.734375 C 203.195312 478.632812 202.019531 478.582031 200.925781 478.582031 C 197.058594 478.582031 194.207031 479.21875 192.367188 480.488281 C 188.664062 483.039062 186.566406 486.199219 186.078125 489.972656 C 185.359375 494.65625 186.183594 499.019531 188.554688 503.0625 C 188.601562 503.140625 188.652344 503.21875 188.707031 503.292969 C 188.894531 503.546875 189.082031 503.789062 189.273438 504.023438 C 190.636719 505.667969 192.113281 506.824219 193.695312 507.488281 L 193.691406 507.488281 C 192.980469 513.046875 194.207031 517.550781 197.367188 520.996094 L 197.390625 521.019531 C 200.875 524.734375 205.242188 526.59375 210.488281 526.59375 C 211.992188 526.59375 213.570312 526.4375 215.21875 526.132812 C 215.257812 526.125 215.292969 526.121094 215.328125 526.109375 C 222.015625 524.585938 226.429688 521.519531 228.566406 516.910156 C 228.613281 516.804688 228.65625 516.699219 228.6875 516.589844 C 229.332031 514.574219 229.5 512.851562 229.195312 511.425781 L 229.1875 511.425781 C 229.175781 511.269531 229.152344 511.113281 229.117188 510.953125 C 228.921875 509.957031 228.316406 508.625 227.304688 506.957031 L 227.300781 506.957031 C 228.910156 505.804688 230.023438 504.796875 230.640625 503.9375 L 230.636719 503.9375 C 231.539062 502.871094 232.371094 501.285156 233.125 499.179688 C 233.140625 499.140625 233.152344 499.101562 233.164062 499.0625 C 234.359375 495.179688 234.242188 491.0625 232.816406 486.699219 C 232.765625 486.550781 232.703125 486.402344 232.628906 486.265625 C 228.605469 478.738281 223.726562 474.613281 217.996094 473.890625 L 217.917969 473.882812 C 217.171875 473.808594 216.464844 473.773438 215.789062 473.773438 Z M 215.789062 473.773438 " fill-opacity="1" fill-rule="nonzero"/><path fill="#000000" d="M 362.6875 258.941406 C 362.316406 258.941406 361.9375 258.957031 361.546875 258.988281 C 361.496094 258.992188 361.441406 259 361.390625 259.003906 C 359.101562 259.324219 357.21875 260.359375 355.742188 262.109375 C 355.695312 262.164062 355.652344 262.21875 355.613281 262.277344 C 352.5 266.601562 351.746094 271.144531 353.347656 275.90625 C 353.382812 276.011719 353.425781 276.117188 353.476562 276.21875 C 355.128906 279.648438 357.574219 281.761719 360.808594 282.570312 L 360.804688 282.570312 C 361.121094 282.707031 361.46875 282.8125 361.851562 282.878906 C 362.164062 282.929688 362.535156 282.957031 362.964844 282.957031 C 364.9375 282.957031 368.144531 282.390625 372.585938 281.261719 C 374.039062 280.890625 374.914062 279.414062 374.542969 277.964844 C 374.230469 276.738281 373.128906 275.921875 371.917969 275.921875 C 371.695312 275.921875 371.46875 275.949219 371.246094 276.007812 C 367.164062 277.046875 364.492188 277.566406 363.226562 277.566406 C 363.113281 277.566406 363.007812 277.5625 362.917969 277.550781 L 362.910156 277.550781 C 362.722656 277.464844 362.527344 277.398438 362.320312 277.351562 C 360.683594 277.003906 359.394531 275.898438 358.453125 274.046875 L 358.449219 274.046875 C 357.511719 271.132812 358.003906 268.308594 359.929688 265.566406 L 359.921875 265.566406 C 360.488281 264.917969 361.199219 264.523438 362.0625 264.386719 L 362.058594 264.386719 C 362.296875 264.371094 362.523438 264.359375 362.734375 264.359375 C 363.621094 264.359375 364.234375 264.519531 364.574219 264.839844 C 365.097656 265.332031 365.765625 265.574219 366.433594 265.574219 C 367.15625 265.574219 367.875 265.289062 368.410156 264.71875 C 369.4375 263.628906 369.382812 261.914062 368.292969 260.886719 C 366.90625 259.589844 365.039062 258.941406 362.6875 258.941406 Z M 362.6875 258.941406 " fill-opacity="1" fill-rule="nonzero"/><path fill="#000000" d="M 384.527344 250.164062 C 384.589844 250.210938 384.648438 250.261719 384.710938 250.3125 C 384.652344 250.261719 384.589844 250.214844 384.527344 250.167969 L 384.523438 250.167969 C 384.519531 250.167969 384.519531 250.164062 384.519531 250.164062 Z M 374.996094 243.011719 C 374.351562 243.011719 373.675781 243.042969 372.957031 243.105469 L 372.894531 243.113281 C 363.710938 244.136719 359.007812 249.382812 358.785156 258.851562 C 358.75 260.347656 359.933594 261.589844 361.433594 261.625 C 361.453125 261.628906 361.476562 261.628906 361.496094 261.628906 C 362.964844 261.628906 364.175781 260.457031 364.210938 258.980469 C 364.359375 252.683594 367.4375 249.195312 373.445312 248.507812 L 373.4375 248.507812 C 374.148438 248.445312 374.773438 248.414062 375.316406 248.414062 C 376.59375 248.414062 377.414062 248.585938 377.777344 248.925781 C 377.882812 249.023438 377.992188 249.109375 378.109375 249.191406 C 378.351562 249.355469 378.546875 249.53125 378.695312 249.722656 L 378.691406 249.722656 C 379.113281 251.359375 379.585938 252.570312 380.101562 253.351562 C 380.5625 254.042969 381.113281 254.53125 381.757812 254.8125 L 381.75 254.8125 C 382.238281 255.066406 382.800781 255.191406 383.445312 255.191406 C 383.484375 255.191406 383.523438 255.191406 383.5625 255.191406 C 383.855469 255.183594 384.183594 255.152344 384.542969 255.09375 C 384.753906 255.0625 384.957031 255.003906 385.152344 254.921875 C 386.742188 254.269531 387.761719 253.925781 388.222656 253.886719 C 388.3125 253.878906 388.402344 253.867188 388.492188 253.851562 C 388.777344 253.804688 389.054688 253.777344 389.324219 253.777344 C 389.539062 253.777344 389.75 253.792969 389.957031 253.824219 C 391.25 254.039062 392.449219 254.835938 393.546875 256.222656 L 393.542969 256.222656 C 395.601562 259.019531 396.070312 262.589844 394.949219 266.9375 C 394.699219 267.847656 394.125 268.777344 393.230469 269.726562 C 393.171875 269.785156 393.117188 269.847656 393.066406 269.914062 L 393.058594 269.914062 C 392.613281 270.21875 391.617188 270.679688 390.070312 271.304688 C 389.914062 271.367188 389.765625 271.441406 389.628906 271.53125 C 389.382812 271.6875 389.164062 271.84375 388.96875 272.007812 C 388.433594 272.449219 388.046875 272.949219 387.808594 273.496094 L 387.804688 273.496094 C 387.78125 273.539062 387.761719 273.582031 387.742188 273.625 C 387.53125 274.082031 387.371094 274.59375 387.261719 275.167969 C 387.25 275.238281 387.238281 275.3125 387.230469 275.386719 C 386.925781 278.238281 386.65625 279.957031 386.421875 280.535156 C 386.398438 280.589844 386.375 280.648438 386.355469 280.703125 C 385.835938 282.152344 385.230469 283.167969 384.542969 283.746094 L 384.539062 283.746094 C 382.949219 284.980469 381.03125 285.648438 378.785156 285.746094 C 378.75 285.75 378.71875 285.75 378.683594 285.753906 C 378.339844 285.78125 378.011719 285.796875 377.699219 285.796875 C 376.152344 285.796875 374.964844 285.453125 374.140625 284.769531 C 374.105469 284.742188 374.066406 284.714844 374.03125 284.6875 C 373.113281 284 372.703125 282.269531 372.804688 279.492188 C 372.890625 277.757812 373.097656 276.648438 373.425781 276.164062 L 373.421875 276.164062 C 374.792969 275.886719 375.738281 274.597656 375.570312 273.1875 C 375.402344 271.808594 374.234375 270.796875 372.878906 270.796875 C 372.769531 270.796875 372.660156 270.804688 372.550781 270.816406 C 371.367188 270.960938 370.359375 271.480469 369.53125 272.375 C 368.257812 273.746094 367.542969 276.03125 367.382812 279.226562 L 367.382812 279.257812 C 367.203125 283.949219 368.339844 287.207031 370.785156 289.03125 L 370.78125 289.03125 C 372.597656 290.488281 374.902344 291.21875 377.695312 291.21875 C 378.140625 291.21875 378.597656 291.199219 379.066406 291.164062 L 379.0625 291.164062 C 382.496094 291.003906 385.46875 289.933594 387.980469 287.941406 C 388.003906 287.925781 388.027344 287.90625 388.046875 287.886719 C 389.472656 286.683594 390.605469 284.90625 391.457031 282.558594 C 391.871094 281.53125 392.253906 279.386719 392.609375 276.128906 L 392.597656 276.128906 C 394.523438 275.328125 395.847656 274.640625 396.570312 274.0625 C 396.863281 273.824219 397.113281 273.574219 397.3125 273.308594 L 397.308594 273.308594 C 398.765625 271.730469 399.726562 270.066406 400.199219 268.316406 L 400.203125 268.289062 C 401.769531 262.234375 400.980469 257.109375 397.847656 252.917969 L 397.800781 252.859375 C 395.824219 250.359375 393.484375 248.894531 390.789062 248.46875 L 390.769531 248.464844 C 390.292969 248.390625 389.8125 248.355469 389.324219 248.355469 C 388.78125 248.355469 388.230469 248.402344 387.675781 248.492188 L 387.667969 248.492188 C 386.855469 248.578125 385.714844 248.894531 384.25 249.449219 C 384.125 249.0625 383.992188 248.574219 383.847656 247.980469 C 383.789062 247.734375 383.695312 247.5 383.574219 247.28125 C 383.039062 246.335938 382.296875 245.519531 381.355469 244.84375 L 381.347656 244.84375 C 379.953125 243.621094 377.835938 243.011719 374.996094 243.011719 Z M 374.996094 243.011719 " fill-opacity="1" fill-rule="nonzero"/><path fill="#000000" d="M 377.609375 533.734375 C 377.160156 534.316406 376.597656 534.605469 375.914062 534.605469 C 375.625 534.605469 375.316406 534.554688 374.984375 534.449219 L 374.988281 534.449219 C 375.1875 534.503906 375.390625 534.53125 375.601562 534.539062 C 375.625 534.539062 375.652344 534.539062 375.675781 534.539062 C 376.40625 534.539062 377.097656 534.242188 377.601562 533.734375 Z M 388.316406 521.34375 C 385.242188 521.34375 381.851562 522.664062 378.144531 525.308594 C 378.109375 525.332031 378.078125 525.359375 378.042969 525.382812 C 376.140625 526.878906 374.671875 528.40625 373.644531 529.960938 L 373.640625 529.960938 C 373.46875 530.160156 373.308594 530.390625 373.15625 530.652344 C 372.75 531.359375 371.859375 533.433594 370.492188 536.878906 C 369.9375 538.269531 370.617188 539.847656 372.011719 540.398438 C 372.339844 540.53125 372.679688 540.589844 373.011719 540.589844 C 374.089844 540.589844 375.109375 539.945312 375.535156 538.882812 C 376.648438 536.078125 377.378906 534.320312 377.730469 533.605469 L 377.726562 533.605469 C 377.828125 533.488281 377.921875 533.359375 378.003906 533.222656 C 378.679688 532.097656 379.777344 530.929688 381.304688 529.722656 L 381.296875 529.722656 C 384.058594 527.753906 386.390625 526.769531 388.292969 526.769531 C 388.921875 526.769531 389.503906 526.875 390.039062 527.089844 L 390.035156 527.089844 C 392.25 528.066406 393.34375 530.460938 393.324219 534.265625 L 393.316406 534.265625 C 392.785156 537.25 390.960938 539.785156 387.839844 541.867188 C 386.597656 542.699219 386.261719 544.382812 387.09375 545.628906 C 387.617188 546.410156 388.476562 546.832031 389.351562 546.832031 C 389.871094 546.832031 390.394531 546.683594 390.859375 546.375 C 395.371094 543.359375 397.992188 539.527344 398.714844 534.882812 C 398.734375 534.757812 398.746094 534.628906 398.746094 534.503906 C 398.835938 528.152344 396.625 524.011719 392.121094 522.082031 L 392.066406 522.0625 C 390.871094 521.582031 389.621094 521.34375 388.316406 521.34375 Z M 388.316406 521.34375 " fill-opacity="1" fill-rule="nonzero"/><g clip-path="url(#ea4a2ec8a1)"><path fill="#000000" d="M 368.8125 526.09375 C 366.695312 526.09375 364.554688 526.636719 362.398438 527.730469 C 362.324219 527.765625 362.25 527.808594 362.179688 527.851562 C 357.679688 530.675781 354.804688 534.296875 353.558594 538.722656 C 353.511719 538.882812 353.480469 539.042969 353.46875 539.203125 C 353.0625 543.5 354.613281 546.621094 358.117188 548.566406 C 359.015625 549.070312 359.90625 549.496094 360.792969 549.839844 L 360.789062 549.839844 C 360.425781 550.617188 360.136719 551.492188 359.925781 552.460938 C 359.910156 552.519531 359.902344 552.582031 359.890625 552.640625 C 359.230469 557.097656 361.304688 560.839844 366.113281 563.863281 C 366.214844 563.925781 366.320312 563.984375 366.429688 564.03125 C 370.804688 566.03125 375.140625 567.03125 379.441406 567.03125 C 384.214844 567.03125 388.941406 565.796875 393.625 563.335938 C 393.792969 563.246094 393.953125 563.136719 394.101562 563.015625 C 402.222656 556.214844 403.539062 548.792969 398.046875 540.738281 C 397.519531 539.96875 396.667969 539.554688 395.800781 539.554688 C 395.273438 539.554688 394.742188 539.707031 394.277344 540.023438 C 393.039062 540.867188 392.71875 542.554688 393.5625 543.792969 C 397.164062 549.070312 396.25 554.035156 390.828125 558.679688 L 390.820312 558.679688 C 387.0625 560.609375 383.261719 561.574219 379.425781 561.574219 C 375.941406 561.574219 372.421875 560.777344 368.875 559.1875 L 368.867188 559.1875 C 366.214844 557.480469 365.007812 555.613281 365.242188 553.578125 L 365.234375 553.578125 C 365.527344 552.28125 366.160156 551.40625 367.136719 550.957031 L 367.128906 550.957031 C 368.113281 550.914062 369.09375 550.765625 370.0625 550.519531 C 371.367188 550.183594 372.226562 548.945312 372.085938 547.609375 C 371.949219 546.273438 370.847656 545.242188 369.503906 545.183594 C 369.28125 545.171875 369.0625 545.167969 368.84375 545.167969 C 367.78125 545.167969 366.804688 545.285156 365.921875 545.515625 C 364.273438 545.402344 362.554688 544.839844 360.765625 543.835938 L 360.753906 543.828125 C 359.378906 543.066406 358.746094 541.78125 358.851562 539.976562 L 358.84375 539.976562 C 359.738281 537.027344 361.769531 534.542969 364.9375 532.523438 L 364.929688 532.523438 C 366.238281 531.878906 367.53125 531.554688 368.804688 531.554688 C 370.121094 531.554688 371.417969 531.898438 372.695312 532.585938 C 373.105469 532.808594 373.546875 532.910156 373.980469 532.910156 C 374.945312 532.910156 375.882812 532.394531 376.371094 531.484375 C 377.082031 530.167969 376.589844 528.523438 375.269531 527.8125 C 373.136719 526.664062 370.984375 526.09375 368.8125 526.09375 Z M 368.8125 526.09375 " fill-opacity="1" fill-rule="nonzero"/></g></svg>