<?xml version="1.0" encoding="utf-8" ?>
<svg baseProfile="tiny" height="100%" version="1.2" width="100%" xmlns="http://www.w3.org/2000/svg" xmlns:ev="http://www.w3.org/2001/xml-events" xmlns:xlink="http://www.w3.org/1999/xlink"><defs /><polyline fill="none" points="111,683 110,684 51,684 110,684" stroke="black" stroke-width="1" /><polyline fill="none" points="868,680 867,681 855,681 867,681 868,680 936,680 937,681 938,681 939,680 947,680 948,681 949,681 950,680 952,680 953,681 954,681 955,680 965,680 955,680 954,681 953,681 952,680 950,680 949,681 948,681 947,680 939,680 938,681 937,681 936,680" stroke="black" stroke-width="1" /><polyline fill="none" points="113,616 123,616 124,617 138,617 139,618 168,618 169,619 170,619 169,619 168,618 139,618 138,617 124,617 123,616" stroke="black" stroke-width="1" /><polyline fill="none" points="24,575 22,577 23,578 23,583 24,584 24,589 25,590 25,596 26,597 26,598 30,598 31,599 36,599 37,600 49,600 50,601 62,601 63,602 72,602 73,601 73,590 72,589 72,577 71,576 68,576 67,577 61,577 60,578 46,578 45,577 33,577 32,576 25,576" stroke="black" stroke-width="1" /><polyline fill="none" points="44,570 43,571 42,571 41,572 31,572 41,572 42,571 44,571 45,570 60,570 61,571 70,571 71,572 71,573 70,574 67,574 66,575 56,575 55,576 48,576 47,575 36,575 35,574 27,574 35,574 36,575 47,575 48,576 55,576 56,575 66,575 67,574 70,574 71,573 71,571 61,571 60,570" stroke="black" stroke-width="1" /><polyline fill="none" points="1001,569 1000,570 974,570 973,571 958,571 958,576 957,577 957,601 960,601 961,600 973,600 974,599 986,599 987,598 991,598 992,597 994,597 995,596 996,596 1001,591 1001,590 1002,589 1002,588 1003,587 1003,585 1004,584 1004,570 1002,570" stroke="black" stroke-width="1" /><polyline fill="none" points="49,533 48,534 43,534 42,535 41,535 41,539 42,540 42,549 43,550 43,553 44,553 45,554 63,554 64,555 65,554 68,554 68,553 69,552 69,538 68,537 68,535 66,533" stroke="black" stroke-width="1" /><polyline fill="none" points="941,524 940,525 939,525 939,526 938,527 938,538 939,539 939,540 966,540 967,539 970,539 970,537 971,536 971,532 970,531 970,526 969,525 969,524" stroke="black" stroke-width="1" /><polyline fill="none" points="377,434 377,450 377,435 378,434 437,434" stroke="black" stroke-width="1" /><polyline fill="none" points="529,406 531,406" stroke="black" stroke-width="1" /><polyline fill="none" points="117,404 116,405 116,406 120,406 121,407 122,406 130,406 131,407 133,407 134,406 135,406 136,407 137,406 144,406 145,407 159,407 160,406 161,407 170,407 171,406 172,407 181,407 182,406 184,406 185,407 186,406 187,407 200,407 201,406 230,406 201,406 200,407 187,407 186,406 185,407 184,406 182,406 181,407 172,407 171,406 170,407 161,407 160,406 159,407 145,407 144,406 137,406 136,407 135,406 134,406 133,407 131,407 130,406 122,406 121,407 120,406 117,406 116,405 117,404 131,404 132,405 133,404 157,404 158,405 159,404 168,404 169,405 170,404 169,405 168,404 159,404 158,405 157,404 133,404 132,405 131,404" stroke="black" stroke-width="1" /><polyline fill="none" points="898,299 897,300 894,300 892,302 892,310 893,311 893,313 894,314 894,316 895,317 895,319 896,320 896,322 897,323 897,326 898,327 898,329 899,330 899,332 900,333 900,335 901,336 901,338 902,339 902,341 903,342 903,345 904,346 904,348 905,349 905,351 906,352 906,354 907,355 907,358 908,359 908,361 909,362 909,364 910,365 910,367 911,368 911,370 912,371 912,373 913,374 913,377 914,378 914,380 915,381 915,383 916,384 916,386 918,388 950,388 951,387 953,387 954,386 954,384 955,383 955,382 954,381 954,379 953,378 953,376 952,375 952,374 951,373 951,371 950,370 950,369 949,368 949,366 948,365 948,363 947,362 947,361 946,360 946,358 945,357 945,355 944,354 944,353 943,352 943,350 942,349 942,348 941,347 941,345 940,344 940,342 939,341 939,340 938,339 938,337 937,336 937,335 936,334 936,332 935,331 935,330 934,329 934,327 933,326 933,325 932,324 932,322 931,321 931,320 930,319 930,317 929,316 929,315 928,314 928,312 927,311 927,309 926,308 926,306 925,305 925,304 924,303 924,302 922,300 920,300 919,299 905,299 904,300 903,299" stroke="black" stroke-width="1" /><polyline fill="none" points="191,299 190,300 189,300 188,301 187,301 186,302 186,303 183,306 183,307 180,310 180,311 178,313 178,314 175,317 175,318 172,321 172,322 169,325 169,326 167,328 167,329 164,332 164,333 161,336 161,337 158,340 158,341 156,343 156,344 153,347 153,348 150,351 150,352 148,354 148,355 145,358 145,359 142,362 142,363 139,366 139,367 137,369 137,370 135,372 135,374 134,375 134,376 133,377 133,385 134,386 134,387 136,389 137,389 138,390 140,390 141,391 173,391 174,392 174,399 175,400 177,400 178,401 179,401 180,400 184,400 184,399 185,398 185,394 184,393 184,392 185,391 335,391 336,390 339,390 344,385 344,383 345,382 345,376 346,375 346,356 347,355 347,337 348,336 348,318 349,317 349,309 348,308 348,307 347,306 347,304 345,302 344,302 343,301 342,301 341,300 338,300 337,299" stroke="black" stroke-width="1" /><polyline fill="none" points="658,298 657,299 654,299 652,301 651,301 651,302 649,304 649,306 648,307 648,380 649,381 649,383 650,384 650,385 654,389 656,389 657,390 833,390 834,391 840,391 841,390 848,390 849,391 855,391 856,390 857,391 868,391 869,390 870,390 871,391 876,391 877,390 881,390 882,389 883,389 885,387 886,387 887,386 887,385 888,384 888,381 889,380 889,377 888,376 888,373 887,372 887,370 886,369 886,366 885,365 885,363 884,362 884,359 883,358 883,356 882,355 882,353 881,352 881,349 880,348 880,346 879,345 879,342 878,341 878,339 877,338 877,336 876,335 876,332 875,331 875,329 874,328 874,325 873,324 873,322 872,321 872,319 871,318 871,315 870,314 870,311 869,310 869,308 868,307 868,305 863,300 862,300 861,299 859,299 858,298" stroke="black" stroke-width="1" /><polyline fill="none" points="375,294 375,297 376,298 376,312 375,313 375,314 376,315 376,316 375,317 375,402 373,404 360,404 359,403 359,334 359,431 372,431 373,432 375,430 375,408 374,407 374,403 375,402 375,317 376,316 376,315 375,314 375,313 376,312 376,298 375,297" stroke="black" stroke-width="1" /><polyline fill="none" points="361,292 361,298 360,299 360,332 360,299 361,298 361,293 362,292 375,292" stroke="black" stroke-width="1" /><polyline fill="none" points="864,291 863,292 844,292 863,292 864,291 868,291 869,292 868,291" stroke="black" stroke-width="1" /><polyline fill="none" points="800,291 799,292 800,291 804,291 805,292 811,292 812,291 813,291 814,292 816,292 817,291 821,291 817,291 816,292 814,292 813,291 812,291 811,292 805,292 804,291" stroke="black" stroke-width="1" /><polyline fill="none" points="778,291 777,292 773,292 777,292 778,291 781,291 782,292 783,291 797,291 783,291 782,292 781,291" stroke="black" stroke-width="1" /><polyline fill="none" points="912,289 913,289" stroke="black" stroke-width="1" /><polyline fill="none" points="632,289 633,290 635,290 636,289 637,289 638,290 636,292 635,292 635,330 636,331 636,403 977,403 978,404 977,405 576,405 575,406 574,405 557,405 556,406 535,406 556,406 557,405 574,405 575,406 576,405 978,405 978,403 637,403 636,402 636,331 635,330 635,293 637,291 638,292 722,292 723,291 724,292 734,292 735,291 736,292 746,292 747,291 749,291 747,291 746,292 736,292 735,291 734,292 724,292 722,290 723,289 729,289 730,290 731,289 736,289 737,290 744,290 745,289 753,289 754,290 756,290 757,291 756,292 752,292 756,292 757,291 759,291 760,292 761,291 766,291 767,292 769,292 767,292 766,291 761,291 760,292 759,291 757,291 756,290 757,289 767,289 768,290 771,290 772,289 806,289 807,290 809,290 810,289 814,289 815,290 816,289 822,289 823,290 824,289 837,289 838,290 837,291 835,291 834,292 833,291 832,291 831,292 830,292 829,291 825,291 829,291 830,292 831,292 832,291 833,291 834,292 835,291 837,291 838,292 842,292 838,292 837,291 838,290 862,290 863,289 869,289 870,290 872,290 873,289 874,289 875,290 873,292 871,292 873,292 875,290 876,291 879,291 880,292 879,291 876,291 875,290 876,289 885,289 886,290 888,290 889,289 890,290 891,290 892,289 893,290 894,289 909,289 894,289 893,290 892,289 891,290 890,290 889,289 888,290 886,290 885,289 876,289 875,290 874,289 873,289 872,290 870,290 869,289 863,289 862,290 838,290 837,289 824,289 823,290 822,289 816,289 815,290 814,289 810,289 809,290 807,290 806,289 772,289 771,290 768,290 767,289 757,289 756,290 754,290 753,289 745,289 744,290 737,290 736,289 731,289 730,290 729,289 723,289 722,290 646,290 645,289 644,289 643,290 638,290 637,289 636,289 635,290 633,290" stroke="black" stroke-width="1" /><polyline fill="none" points="213,289 214,289 216,291 215,292 214,292 213,291 211,291 213,291 214,292 215,292 216,291 219,291 220,292 357,292 359,294 359,295 358,296 358,332 357,333 357,403 356,404 199,404 198,405 195,405 194,404 180,404 179,405 177,405 176,404 172,404 176,404 177,405 179,405 180,404 194,404 195,405 198,405 199,404 356,404 357,405 356,406 266,406 265,407 264,406 247,406 246,407 245,406 233,406 245,406 246,407 247,406 264,406 265,407 266,406 356,406 357,407 357,430 356,431 354,431 353,432 352,431 340,431 339,432 338,431 336,431 335,432 331,432 330,431 313,431 312,432 311,431 310,432 300,432 299,431 292,431 291,432 278,432 277,431 275,431 274,432 258,432 257,431 256,432 255,432 254,431 253,431 252,432 239,432 252,432 253,431 254,431 255,432 256,432 257,431 258,432 274,432 275,431 277,431 278,432 291,432 292,431 299,431 300,432 310,432 311,431 312,432 313,431 330,431 331,432 330,433 315,433 314,434 296,434 295,433 294,434 105,434 104,433 105,432 211,432 212,431 213,432 235,432 236,431 237,431 236,431 235,432 213,432 212,431 211,432 105,432 104,431 104,416 105,415 105,409 106,408 106,405 107,404 107,402 108,401 108,399 109,398 109,397 110,396 110,395 111,394 111,393 112,392 112,391 114,389 114,388 115,387 115,386 116,385 116,384 118,382 118,381 120,379 120,378 122,376 122,375 124,373 124,372 127,369 127,368 130,365 130,364 132,362 132,361 135,358 135,357 138,354 138,353 141,350 141,349 143,347 143,346 146,343 146,342 148,340 148,339 151,336 151,335 153,333 153,332 156,329 156,328 158,326 158,325 160,323 160,322 163,319 163,318 165,316 165,315 168,312 168,311 170,309 170,308 173,305 173,304 175,302 175,301 178,298 178,297 182,293 182,292 183,291 204,291 205,292 209,292 205,292 204,291 182,291 182,292 178,296 178,297 175,300 175,301 173,303 173,304 170,307 170,308 168,310 168,311 165,314 165,315 163,317 163,318 160,321 160,322 158,324 158,325 156,327 156,328 153,331 153,332 151,334 151,335 148,338 148,339 146,341 146,342 143,345 143,346 141,348 141,349 138,352 138,353 135,356 135,357 132,360 132,361 130,363 130,364 127,367 127,368 124,371 124,372 122,374 122,375 120,377 120,378 118,380 118,381 116,383 116,384 115,385 115,386 114,387 114,388 112,390 112,391 111,392 111,394 110,395 110,396 109,397 109,398 108,399 108,401 107,402 107,404 106,405 106,408 105,409 105,415 104,416 104,529 105,530 105,549 104,550 105,551 105,555 176,555 176,554 177,553 177,552 178,551 179,552 179,553 179,552 180,551 180,550 182,548 182,547 183,546 183,545 184,544 184,543 186,541 186,540 190,536 190,535 195,530 196,530 200,526 201,526 203,524 204,524 206,522 207,522 208,521 209,521 210,520 212,520 213,519 215,519 216,518 219,518 220,517 224,517 225,516 237,516 238,515 324,515 325,514 328,514 329,513 330,513 332,511 333,511 334,510 335,510 337,508 338,508 339,507 340,507 342,505 343,505 344,504 345,504 347,502 348,502 350,500 351,500 353,498 354,498 357,495 357,493 358,492 358,471 359,470 359,435 361,433 362,433 363,434 364,433 366,433 367,434 374,434 375,435 375,455 375,434 367,434 366,433 364,433 363,434 362,433 361,433 360,434 359,434 359,470 358,471 357,470 357,434 356,434 355,433 354,433 353,432 354,431 357,431 357,333 358,332 358,296 359,295 359,294 358,293 358,292 220,292 219,291 216,291 215,290 216,289 220,289 221,290 222,289 223,290 228,290 229,289 230,289 231,290 621,290 622,289 629,289 631,291 630,292 629,292 628,291 625,291 624,292 377,292 377,294 378,295 377,296 378,297 378,317 377,318 377,404 517,404 518,403 519,403 520,404 526,404 527,403 534,403 535,404 537,404 538,403 549,403 550,404 551,404 552,403 634,403 634,332 633,331 633,292 632,292 629,289 622,289 621,290 231,290 230,289 229,289 228,290 223,290 222,289 221,290 220,289 216,289 215,290 214,289" stroke="black" stroke-width="1" /><polyline fill="none" points="391,286 390,287 187,287 186,288 184,288 185,289 186,288 187,289 211,289 187,289 186,288 187,287 390,287 391,286 929,286 931,288 931,289 930,290 927,290 926,289 922,289 921,290 919,290 918,289 915,289 918,289 919,290 921,290 922,291 921,292 917,292 916,291 912,291 911,292 910,292 909,291 903,291 902,292 898,292 897,291 896,292 884,292 883,291 882,291 883,291 884,292 896,292 897,291 898,292 902,292 903,291 909,291 910,292 911,292 912,291 916,291 917,292 921,292 922,291 924,291 925,292 929,292 925,292 924,291 922,291 921,290 922,289 926,289 927,290 930,290 932,292 933,292 934,293 934,294 935,295 935,297 937,299 937,300 938,301 938,302 939,303 939,305 941,307 941,309 942,310 942,311 943,312 943,313 944,314 944,315 945,316 945,317 946,318 946,319 947,320 947,321 948,322 948,323 949,324 949,325 950,326 950,327 951,328 951,330 952,331 952,332 953,333 953,334 954,335 954,336 955,337 955,338 956,339 956,341 957,342 957,343 958,344 958,345 959,346 959,347 960,348 960,349 961,350 961,351 962,352 962,354 963,355 963,356 964,357 964,358 965,359 965,360 966,361 966,363 967,364 967,365 968,366 968,367 969,368 969,369 970,370 970,372 971,373 971,374 972,375 972,376 973,377 973,378 974,379 974,381 975,382 975,383 976,384 976,385 977,386 977,388 978,389 978,390 979,391 979,393 980,394 980,395 981,396 981,398 982,399 982,401 983,402 983,403 984,404 984,406 985,407 985,410 986,411 986,413 987,414 987,417 988,418 988,421 989,422 989,425 990,426 990,430 989,431 439,431 438,432 437,431 436,432 432,432 431,431 427,431 426,432 413,432 412,431 411,431 410,432 384,432 383,431 382,432 378,432 377,431 377,407 378,406 527,406 377,406 377,431 378,432 382,432 383,431 384,432 410,432 411,431 412,431 413,432 426,432 427,431 431,431 432,432 436,432 437,431 438,432 439,431 990,431 990,426 989,425 989,422 988,421 988,418 987,417 987,414 986,413 986,411 985,410 985,407 984,406 984,404 983,403 983,402 982,401 982,399 981,398 981,396 980,395 980,394 979,393 979,391 978,390 978,389 977,388 977,386 976,385 976,384 975,383 975,382 974,381 974,379 973,378 973,377 972,376 972,375 971,374 971,373 970,372 970,370 969,369 969,368 968,367 968,366 967,365 967,364 966,363 966,361 965,360 965,359 964,358 964,357 963,356 963,355 962,354 962,352 961,351 961,350 960,349 960,348 959,347 959,346 958,345 958,344 957,343 957,342 956,341 956,339 955,338 955,337 954,336 954,335 953,334 953,333 952,332 952,331 951,330 951,328 950,327 950,326 949,325 949,324 948,323 948,322 947,321 947,320 946,319 946,318 945,317 945,316 944,315 944,314 943,313 943,311 941,309 941,307 940,306 940,305 939,304 939,303 938,302 938,301 937,300 937,299 936,298 936,297 935,296 935,295 934,294 934,293 933,292 932,292 930,290 931,289 931,287 930,286" stroke="black" stroke-width="1" /><polyline fill="none" points="490,263 489,264 396,264 395,265 348,265 347,266 312,266 311,267 310,267 309,266 308,266 307,267 266,267 265,268 245,268 244,269 227,269 226,270 213,270 212,271 201,271 200,272 195,272 194,273 192,273 191,274 189,274 188,275 186,275 185,276 184,276 183,277 182,277 181,278 180,278 179,279 178,279 176,281 175,281 173,283 172,283 172,285 387,285 388,284 926,284 927,283 928,284 923,279 922,279 920,277 919,277 918,276 917,276 916,275 914,275 913,274 912,274 911,273 909,273 908,272 904,272 903,271 898,271 897,270 889,270 888,269 873,269 872,268 854,268 853,267 834,267 833,266 812,266 811,265 791,265 790,264 765,264 764,263 517,263 516,264 513,264 512,263 507,263 506,264 505,263 504,264 503,263 499,263 498,264 496,264 495,263" stroke="black" stroke-width="1" /><polyline fill="none" points="606,260 605,261 467,261 466,262 394,262 393,263 391,263 390,262 388,262 387,263 339,263 338,264 292,264 291,265 261,265 260,266 242,266 241,267 221,267 220,268 208,268 207,269 199,269 198,270 194,270 193,271 190,271 189,272 187,272 186,273 185,273 184,274 183,274 182,275 181,275 180,276 178,276 177,277 176,277 174,279 173,279 170,282 169,282 168,283 168,287 171,290 167,294 167,295 163,299 163,300 160,303 160,304 157,307 157,308 154,311 154,312 151,315 151,316 149,318 149,319 146,322 146,323 143,326 143,327 140,330 140,331 137,334 137,335 134,338 134,339 131,342 131,343 128,346 128,347 125,350 125,351 121,355 121,356 118,359 118,360 114,364 114,365 110,369 110,370 106,374 106,375 102,379 102,380 97,385 97,386 93,390 93,391 88,396 88,397 84,401 84,402 79,407 79,408 74,413 74,414 68,420 68,421 61,428 61,429 55,435 55,436 48,443 48,444 42,450 42,451 38,455 38,457 37,458 37,469 36,470 37,471 36,472 36,485 39,488 39,513 40,513 41,512 41,478 42,477 42,473 41,472 41,458 40,458 39,459 39,475 38,476 38,483 39,484 39,486 38,487 36,485 36,472 37,471 36,470 37,469 37,458 38,457 38,456 41,453 41,452 46,447 46,446 53,439 53,438 60,431 60,430 67,423 67,422 73,416 73,415 78,410 78,409 83,404 83,403 88,398 88,397 92,393 92,392 97,387 97,386 101,382 101,381 105,377 105,376 109,372 109,371 113,367 113,366 117,362 117,361 120,358 120,357 124,353 124,352 127,349 127,348 130,345 130,344 133,341 133,340 136,337 136,336 139,333 139,332 142,329 142,328 145,325 145,324 147,322 147,321 150,318 150,317 153,314 153,313 156,310 156,309 159,306 159,305 162,302 162,301 166,297 166,296 171,291 171,289 168,286 168,284 171,281 172,281 174,279 175,279 177,277 178,277 179,276 180,276 181,275 182,275 183,274 184,274 185,273 186,273 187,272 189,272 190,271 193,271 194,270 198,270 199,269 207,269 208,268 220,268 221,267 241,267 242,266 260,266 261,265 291,265 292,264 338,264 339,263 387,263 388,262 390,262 391,263 393,263 394,262 466,262 467,261 605,261 606,260 607,261 618,261 619,260 626,260 627,261 628,261 629,260 633,260 634,261 639,261 640,260 655,260 656,261 658,261 659,260 672,260 673,261 674,260 698,260 699,261 700,260 720,260 721,261 726,261 727,260 728,261 768,261 769,262 794,262 795,263 814,263 815,264 836,264 837,265 856,265 857,266 878,266 879,267 892,267 893,268 899,268 900,269 905,269 906,270 909,270 910,271 912,271 913,272 915,272 916,273 917,273 918,274 919,274 920,275 921,275 923,277 924,277 934,287 934,288 935,289 935,290 936,291 936,292 937,293 937,294 938,295 938,297 939,298 939,299 940,300 940,301 941,302 941,303 942,304 942,305 943,306 943,307 944,308 944,309 945,310 945,311 946,312 946,313 947,314 947,315 948,316 948,318 949,319 949,320 950,321 950,322 951,323 951,324 952,325 952,326 953,327 953,328 954,329 954,330 955,331 955,333 956,334 956,335 957,336 957,337 958,338 958,339 959,340 959,341 960,342 960,343 961,344 961,346 962,347 962,348 963,349 963,350 964,351 964,352 965,353 965,355 966,356 966,357 967,358 967,359 968,360 968,361 969,362 969,363 970,364 970,366 971,367 971,368 972,369 972,370 973,371 973,373 974,374 974,375 975,376 975,377 976,378 976,379 977,380 977,382 978,383 978,384 979,385 979,386 980,387 980,389 981,390 981,391 982,392 982,394 983,395 983,396 984,397 984,399 985,400 985,402 986,403 986,405 987,406 987,408 988,409 988,412 989,413 989,416 990,417 990,419 991,420 991,424 992,425 992,428 993,429 993,432 994,433 994,448 995,449 995,480 994,481 994,495 993,496 993,507 992,508 992,518 991,519 991,528 990,529 990,538 989,539 989,546 988,547 988,555 987,556 987,564 986,565 986,566 987,567 986,568 998,568 999,567 1002,567 1003,568 1005,568 1006,569 1006,577 1007,578 1006,579 1006,585 1005,586 1005,589 1003,591 1003,592 997,598 996,598 995,599 994,599 993,600 990,600 989,601 982,601 982,602 981,603 981,608 980,609 980,611 978,613 977,613 976,614 962,614 961,613 962,612 975,612 976,611 977,611 978,610 978,608 977,607 977,606 978,605 979,605 979,602 978,601 977,602 968,602 967,603 956,603 955,602 955,601 954,600 952,600 951,601 951,603 950,604 949,603 949,600 951,598 953,598 954,597 954,592 955,591 955,575 956,574 956,570 957,569 960,569 961,568 984,568 984,564 985,563 985,555 986,554 986,546 987,545 987,536 988,535 988,528 989,527 989,517 990,516 990,506 991,505 991,493 992,492 992,472 993,471 993,453 992,452 992,437 991,436 991,433 443,433 442,434 441,434 440,433 439,434 440,433 441,434 442,434 443,433 990,433 991,434 991,436 992,437 992,452 993,453 993,471 992,472 992,492 991,493 991,505 990,506 990,516 989,517 989,527 988,528 988,535 987,536 987,545 986,546 986,554 985,555 985,563 984,564 984,567 983,568 961,568 960,569 957,569 956,570 956,574 955,575 955,591 954,592 954,597 953,598 937,598 936,599 922,599 921,600 906,600 905,601 896,601 905,601 906,600 921,600 922,599 936,599 937,600 936,601 923,601 922,602 909,602 908,603 892,603 890,601 890,600 889,599 889,598 888,597 888,596 887,595 887,593 888,592 889,593 889,594 890,595 890,596 891,597 891,598 892,599 892,600 892,599 893,598 893,590 894,589 895,590 895,599 894,600 894,601 894,600 895,599 895,590 894,589 894,584 893,583 893,579 892,578 892,575 891,574 891,572 890,571 890,568 889,567 889,565 888,564 889,563 887,565 886,564 886,562 885,561 885,559 884,558 884,556 885,555 886,556 886,557 887,558 887,560 888,560 889,561 890,561 891,562 893,562 894,563 895,563 896,562 939,562 940,561 975,561 976,560 982,560 982,558 975,558 974,559 940,559 939,560 891,560 890,561 889,561 887,559 887,558 886,557 886,556 885,555 885,553 884,552 884,551 883,550 883,549 882,548 882,547 881,546 881,545 880,544 880,543 878,541 878,540 869,531 868,531 866,529 865,529 863,527 862,527 861,526 860,526 861,526 863,528 864,528 865,529 866,529 870,533 871,533 877,539 877,540 879,542 879,543 880,544 880,545 882,547 882,548 883,549 883,550 884,551 884,552 885,553 885,555 884,556 883,555 883,554 882,553 882,552 881,551 881,550 880,549 880,548 878,546 878,545 877,544 877,543 875,541 875,540 870,535 869,535 865,531 864,531 863,530 862,530 860,528 859,528 858,527 857,527 856,526 857,525 858,525 857,525 856,524 854,524 853,523 851,523 850,522 846,522 845,521 838,521 837,520 822,520 821,519 815,519 814,520 802,520 801,519 800,519 799,520 796,520 795,519 787,519 786,520 767,520 766,521 760,521 759,522 755,522 754,523 751,523 750,524 748,524 747,525 746,525 745,526 743,526 741,528 740,528 738,530 737,530 727,540 727,541 724,544 724,545 723,546 723,547 722,548 722,549 721,550 721,551 720,552 720,553 719,554 719,556 718,557 718,558 716,560 565,560 564,561 563,560 540,560 539,561 535,561 534,560 533,560 532,561 529,561 528,560 527,560 526,561 427,561 426,562 422,562 421,561 420,562 377,562 376,561 376,457 377,456 377,453 377,456 376,457 376,562 420,562 421,561 422,562 426,562 427,561 526,561 527,560 528,560 529,561 532,561 533,562 532,563 431,563 430,564 333,564 333,567 332,568 331,567 331,564 330,563 330,561 329,560 329,558 328,557 328,555 327,554 327,553 326,552 326,551 325,550 325,549 324,548 324,547 322,545 322,544 320,542 320,541 314,535 313,535 311,533 310,533 308,531 307,531 306,530 305,530 304,529 303,529 302,528 301,528 300,527 298,527 297,526 295,526 294,525 291,525 290,524 286,524 285,523 275,523 274,522 243,522 242,523 233,523 232,524 226,524 225,525 222,525 221,526 218,526 217,527 215,527 214,528 212,528 211,529 210,529 209,530 208,530 207,531 206,531 204,533 203,533 198,538 198,539 195,542 195,543 193,545 193,546 191,548 191,549 189,551 189,552 188,553 188,554 187,555 187,556 186,557 186,558 185,559 185,560 184,561 184,562 183,563 183,564 182,565 182,566 181,567 181,568 180,569 180,570 179,571 179,573 178,574 178,575 177,576 177,578 176,579 176,580 175,581 174,580 174,578 175,577 175,575 176,574 176,573 177,572 177,570 178,569 178,568 179,567 179,566 180,565 180,563 182,561 182,560 183,559 183,558 184,557 184,556 185,555 185,554 186,553 186,552 187,551 187,550 189,548 189,547 191,545 191,544 193,542 193,541 196,538 196,537 202,531 203,531 205,529 206,529 207,528 208,528 210,526 212,526 213,525 215,525 216,524 218,524 219,523 223,523 224,522 230,522 231,521 241,521 242,520 276,520 277,521 287,521 288,522 291,522 292,523 295,523 296,524 298,524 299,525 301,525 302,526 303,526 304,527 305,527 306,528 307,528 308,529 309,529 311,531 312,531 314,533 315,533 322,540 322,541 324,543 324,544 326,546 326,547 327,548 327,549 328,550 328,551 329,552 329,553 330,554 330,556 331,557 331,559 332,560 332,562 374,562 374,457 374,561 373,562 333,562 332,561 332,560 331,559 331,557 330,556 330,554 329,553 329,552 328,551 328,549 327,548 327,547 325,545 325,544 323,542 323,541 314,532 313,532 311,530 310,530 308,528 307,528 306,527 304,527 303,526 302,526 301,525 299,525 298,524 296,524 295,523 292,523 291,522 288,522 287,521 277,521 276,520 242,520 241,521 231,521 230,522 224,522 223,523 219,523 218,524 216,524 215,525 213,525 212,526 210,526 209,527 208,527 207,528 206,528 205,529 204,529 202,531 201,531 196,536 196,537 193,540 193,541 191,543 191,544 189,546 189,547 188,548 188,549 186,551 186,552 185,553 185,554 184,555 184,556 183,557 183,558 182,559 182,560 181,561 181,562 180,563 180,565 179,566 179,567 178,568 178,569 177,570 177,572 176,573 176,574 175,575 175,577 174,578 174,580 173,581 173,583 172,584 172,586 171,587 171,590 170,591 170,594 169,595 169,600 168,601 168,602 165,605 148,605 147,604 133,604 132,603 124,603 123,602 113,602 112,601 102,601 101,600 93,600 92,599 84,599 83,598 77,598 75,596 75,578 74,577 74,571 73,570 73,569 71,569 70,568 56,568 55,567 45,567 44,566 44,560 43,559 43,558 45,556 54,556 55,557 66,557 67,556 69,556 71,554 71,552 72,551 72,547 71,546 71,537 70,536 70,533 69,532 68,532 67,531 44,531 43,532 42,532 41,531 41,528 40,527 40,518 39,517 41,515 42,515 43,514 43,512 44,511 44,464 43,463 43,456 42,455 46,451 46,450 53,443 53,442 60,435 60,434 67,427 67,426 73,420 73,419 79,413 79,412 84,407 84,406 89,401 89,400 94,395 94,394 98,390 98,389 102,385 102,384 106,380 106,379 110,375 110,374 114,370 114,369 117,366 117,365 121,361 121,360 124,357 124,356 127,353 127,352 131,348 131,347 134,344 134,343 137,340 137,339 140,336 140,335 143,332 143,331 146,328 146,327 148,325 148,324 151,321 151,320 154,317 154,316 157,313 157,312 160,309 160,308 163,305 163,304 167,300 167,299 171,295 171,294 175,290 176,291 177,291 178,292 176,294 176,295 173,298 173,299 171,301 171,302 168,305 168,306 166,308 166,309 163,312 163,313 161,315 161,316 158,319 158,320 156,322 156,323 153,326 153,327 151,329 151,330 148,333 148,334 146,336 146,337 143,340 143,341 141,343 141,344 138,347 138,348 136,350 136,351 133,354 133,355 130,358 130,359 128,361 128,362 125,365 125,366 122,369 122,370 120,372 120,373 118,375 118,376 116,378 116,379 114,381 114,382 113,383 113,384 112,385 112,386 111,387 111,388 110,389 110,390 109,391 109,392 108,393 108,394 107,395 107,397 106,398 106,399 105,400 105,402 104,403 104,406 103,407 103,411 102,412 102,559 103,560 102,561 102,564 103,565 103,594 108,594 109,595 137,595 138,596 153,596 154,597 159,597 160,598 163,598 164,597 164,596 165,595 165,593 166,592 166,589 167,588 167,586 168,585 168,583 169,582 169,579 170,578 170,576 171,575 171,573 172,572 172,570 173,569 173,567 174,566 174,564 175,563 175,561 176,560 176,559 177,558 177,557 178,556 178,555 178,556 177,557 177,558 176,559 176,560 175,561 174,560 174,557 105,557 105,592 109,592 110,593 138,593 139,594 154,594 155,595 159,595 160,596 159,597 154,597 153,596 138,596 137,595 109,595 108,594 104,594 103,593 103,565 102,564 102,561 103,560 102,559 102,412 103,411 103,407 104,406 104,403 105,402 105,400 106,399 106,398 107,397 107,395 108,394 108,393 109,392 109,391 110,390 110,389 112,387 112,386 113,385 113,384 114,383 114,382 116,380 116,379 118,377 118,376 120,374 120,373 122,371 122,370 125,367 125,366 128,363 128,362 130,360 130,359 133,356 133,355 136,352 136,351 138,349 138,348 141,345 141,344 143,342 143,341 146,338 146,337 148,335 148,334 151,331 151,330 153,328 153,327 156,324 156,323 158,321 158,320 161,317 161,316 163,314 163,313 166,310 166,309 168,307 168,306 171,303 171,302 173,300 173,299 176,296 176,295 178,293 178,291 176,291 175,290 176,289 180,289 180,288 179,287 176,287 179,287 180,288 179,289 176,289 175,290 174,290 173,291 173,292 168,297 168,298 164,302 164,303 161,306 161,307 158,310 158,311 155,314 155,315 152,318 152,319 149,322 149,323 147,325 147,326 144,329 144,330 141,333 141,334 138,337 138,338 135,341 135,342 132,345 132,346 129,349 129,350 126,353 126,354 122,358 122,359 119,362 119,363 115,367 115,368 111,372 111,373 107,377 107,378 103,382 103,383 99,387 99,388 94,393 94,394 90,398 90,399 85,404 85,405 80,410 80,411 75,416 75,417 69,423 69,424 62,431 62,432 55,439 55,440 48,447 48,448 43,453 43,454 42,455 43,456 43,463 44,464 44,511 43,512 43,513 39,517 40,518 40,527 41,528 41,532 43,532 44,531 67,531 70,534 70,536 71,537 71,546 72,547 72,551 71,552 71,553 70,554 70,555 69,556 67,556 66,557 55,557 54,556 45,556 43,558 43,559 44,560 44,567 55,567 56,568 70,568 71,569 72,569 73,570 73,571 74,572 74,577 75,578 75,596 76,597 76,598 83,598 84,599 83,600 76,600 75,601 75,602 73,604 54,604 53,603 43,603 42,602 41,602 42,602 43,603 42,604 43,605 44,605 45,606 47,606 48,607 53,607 54,608 53,609 47,609 46,608 44,608 43,607 42,607 38,603 38,602 36,602 35,601 30,601 29,600 25,600 24,599 24,598 23,597 23,592 22,591 22,586 21,585 21,580 20,579 20,575 23,572 24,572 25,571 29,571 30,570 38,570 39,569 42,569 42,561 41,560 41,553 40,552 40,544 39,543 39,531 38,530 38,519 37,518 37,503 36,502 36,488 36,502 37,503 37,518 38,519 38,530 39,531 39,543 40,544 40,552 41,553 41,560 42,561 42,568 41,569 39,569 38,570 30,570 29,571 25,571 24,572 22,572 21,573 21,574 20,575 20,579 21,580 21,585 22,586 22,591 23,592 23,597 24,598 24,600 29,600 30,601 35,601 36,602 37,602 38,603 38,604 40,606 41,606 42,607 43,607 44,608 46,608 47,609 53,609 54,610 61,610 62,611 70,611 71,612 79,612 80,613 89,613 90,614 99,614 100,615 111,615 100,615 99,614 100,613 112,613 113,614 124,614 125,615 139,615 140,616 172,616 173,617 179,617 180,616 181,616 181,612 182,611 182,606 183,605 183,602 184,601 184,599 185,598 185,596 186,595 186,593 187,592 187,591 188,590 188,589 189,588 189,587 190,586 190,585 191,584 191,583 193,581 193,580 194,579 194,578 197,575 197,574 208,563 209,563 213,559 214,559 216,557 217,557 218,556 219,556 220,555 221,555 222,554 223,554 224,553 225,553 226,552 227,552 228,551 230,551 231,550 233,550 234,549 236,549 237,548 240,548 241,547 245,547 246,546 262,546 263,547 269,547 270,548 273,548 274,549 277,549 278,550 279,550 280,551 282,551 283,552 284,552 285,553 286,553 287,554 288,554 289,555 290,555 292,557 293,557 294,558 295,558 298,561 299,561 311,573 311,574 314,577 314,578 316,580 316,581 317,582 317,583 318,584 318,585 320,587 320,589 321,590 321,591 322,592 322,593 323,594 323,596 324,597 324,599 325,600 325,603 324,604 323,603 323,601 322,600 322,598 321,597 321,595 320,594 320,593 319,592 319,591 318,590 318,588 316,586 316,585 315,584 315,583 314,582 314,581 312,579 312,578 309,575 309,574 298,563 297,563 294,560 293,560 292,559 291,559 289,557 288,557 287,556 286,556 285,555 284,555 283,554 282,554 281,553 279,553 278,552 277,552 276,551 273,551 272,550 269,550 268,549 260,549 259,548 250,548 249,549 243,549 242,550 239,550 238,551 235,551 234,552 232,552 231,553 229,553 228,554 227,554 226,555 225,555 224,556 223,556 222,557 221,557 220,558 219,558 218,559 217,559 215,561 214,561 210,565 209,565 199,575 199,576 196,579 196,580 195,581 195,582 193,584 193,585 192,586 192,587 191,588 191,589 190,590 190,591 189,592 189,594 188,595 188,596 187,597 187,599 186,600 186,602 185,603 185,607 184,608 184,613 183,614 183,633 184,634 184,638 185,639 185,642 186,643 186,645 187,646 187,648 188,649 188,651 189,652 189,653 190,654 190,655 191,656 191,657 192,658 192,659 193,660 193,661 194,662 194,663 196,665 196,666 198,668 198,669 202,673 202,674 204,676 205,676 207,678 207,679 206,680 204,678 203,678 200,675 200,674 196,670 196,669 194,667 194,666 192,664 192,663 191,662 191,661 190,660 190,659 189,658 189,657 188,656 188,655 187,654 187,653 186,652 186,650 185,649 185,647 184,646 184,644 183,643 183,640 182,639 182,635 181,634 181,620 180,619 173,619 180,619 181,620 181,634 182,635 182,639 183,640 183,643 184,644 184,646 185,647 185,649 186,650 186,652 187,653 187,654 188,655 188,656 189,657 189,658 190,659 190,661 191,662 191,663 193,665 193,666 195,668 195,669 198,672 198,673 204,679 205,679 206,680 205,681 120,681 119,682 118,682 117,681 106,681 105,682 88,682 87,681 86,682 78,682 77,681 75,681 74,682 63,682 62,681 61,682 51,682 61,682 62,681 63,682 74,682 75,681 77,681 78,682 86,682 87,681 88,682 105,682 106,681 117,681 118,682 119,682 120,683 119,684 117,684 116,683 113,683 116,683 117,684 119,684 120,683 207,683 208,682 210,684 211,684 213,686 214,686 216,688 217,688 218,689 219,689 220,690 222,690 223,691 224,691 225,692 226,692 227,693 229,693 230,694 232,694 233,695 235,695 236,696 240,696 241,697 248,697 249,698 257,698 258,697 265,697 266,696 270,696 271,695 273,695 274,694 276,694 277,693 279,693 280,692 281,692 282,691 283,691 284,690 286,690 287,689 288,689 289,688 290,688 292,686 293,686 294,685 295,685 297,683 719,683 720,682 751,682 752,681 754,683 755,683 758,686 759,686 762,689 763,689 764,690 765,690 766,691 767,691 769,693 771,693 772,694 773,694 774,695 776,695 777,696 778,696 779,697 781,697 782,698 785,698 786,699 791,699 792,700 814,700 815,699 819,699 820,698 823,698 824,697 826,697 827,696 829,696 830,695 831,695 832,694 834,694 835,693 836,693 837,692 838,692 839,691 840,691 841,690 842,690 844,688 845,688 847,686 848,686 851,683 868,683 869,682 929,682 930,683 931,683 932,682 933,682 934,683 956,683 957,682 966,682 957,682 956,683 934,683 933,682 932,682 931,683 930,683 929,682 869,682 868,683 851,683 850,684 849,684 846,687 845,687 843,689 842,689 840,691 839,691 838,692 837,692 836,693 835,693 834,694 832,694 831,693 832,692 833,692 834,691 835,691 836,690 837,690 838,689 839,689 841,687 842,687 844,685 845,685 848,682 849,682 858,673 858,672 862,668 862,667 864,665 864,664 865,663 865,662 866,661 866,660 867,659 867,658 868,657 868,655 869,654 869,653 870,652 870,650 871,649 871,647 872,646 872,643 873,642 873,639 874,638 874,626 875,625 875,623 874,622 874,613 873,612 873,609 872,608 872,605 871,604 871,602 870,601 870,599 869,598 869,597 868,596 868,595 867,594 867,593 866,592 866,591 865,590 865,589 864,588 864,587 862,585 862,584 861,583 861,582 858,579 858,578 847,567 846,567 843,564 842,564 840,562 839,562 837,560 836,560 835,559 834,559 833,558 832,558 831,557 830,557 829,556 827,556 826,555 825,555 824,554 822,554 821,553 818,553 817,552 813,552 812,551 793,551 792,552 788,552 787,553 784,553 783,554 781,554 780,555 779,555 778,556 776,556 775,557 774,557 773,558 772,558 771,559 770,559 769,560 768,560 767,561 766,561 764,563 763,563 760,566 759,566 747,578 747,579 744,582 744,583 742,585 742,586 741,587 741,588 740,589 740,590 738,592 738,593 737,594 737,596 736,597 736,598 735,599 735,601 734,602 734,604 733,605 733,607 732,608 732,612 731,613 731,618 730,619 730,634 731,635 731,640 732,641 732,645 733,646 733,648 734,649 734,651 735,652 735,654 736,655 736,656 737,657 737,658 738,659 738,660 740,662 740,663 741,664 741,665 744,668 744,669 749,674 749,675 754,680 755,680 758,683 759,683 761,685 762,685 764,687 765,687 767,689 768,689 769,690 770,690 771,691 772,691 773,692 774,692 775,693 776,693 777,694 776,695 774,695 773,694 772,694 771,693 770,693 769,692 768,692 767,691 766,691 764,689 763,689 761,687 760,687 758,685 757,685 754,682 753,682 752,681 751,682 720,682 719,683 297,683 296,684 295,684 294,685 293,685 291,687 290,687 289,688 288,688 286,690 284,690 283,689 284,688 285,688 287,686 288,686 289,685 290,685 292,683 293,683 294,682 295,682 300,677 301,677 307,671 307,670 312,665 312,664 314,662 314,661 316,659 316,658 317,657 317,656 318,655 318,654 319,653 319,652 320,651 320,650 321,649 321,647 322,646 322,644 323,643 323,641 324,640 324,637 325,636 325,624 326,623 326,618 325,617 325,609 324,608 324,604 325,603 326,604 326,607 327,608 327,612 328,613 328,631 336,631 337,630 343,630 344,629 348,629 349,628 353,628 354,627 396,627 397,626 534,626 535,625 634,625 635,624 641,624 642,625 643,625 644,626 643,627 641,627 640,626 636,626 635,627 537,627 536,628 418,628 417,629 415,629 414,628 412,628 411,629 355,629 354,630 350,630 349,631 345,631 344,632 339,632 338,633 328,633 327,634 327,638 326,639 326,642 325,643 325,645 324,646 324,648 323,649 323,650 322,651 322,652 321,653 321,654 320,655 320,656 319,657 319,658 318,659 318,660 316,662 316,663 314,665 314,666 309,671 309,672 302,679 301,679 300,680 301,680 302,681 716,681 717,680 750,680 750,679 747,676 747,675 742,670 742,669 739,666 739,665 738,664 738,663 736,661 736,660 735,659 735,658 734,657 734,656 733,655 733,653 732,652 732,650 731,649 731,647 730,646 730,643 729,642 729,638 728,637 728,633 727,632 724,632 723,631 720,631 719,630 716,630 715,629 716,628 720,628 721,629 724,629 725,630 727,630 728,629 728,617 729,616 729,611 730,610 730,607 731,606 731,604 732,603 732,601 733,600 733,598 734,597 734,596 735,595 735,593 736,592 736,591 738,589 738,588 739,587 739,586 740,585 740,584 742,582 742,581 745,578 745,577 758,564 759,564 762,561 763,561 765,559 766,559 767,558 768,558 769,557 770,557 771,556 772,556 773,555 774,555 775,554 776,554 777,553 779,553 780,552 782,552 783,551 786,551 787,550 790,550 791,549 798,549 799,548 801,548 802,549 803,548 806,548 807,549 814,549 815,550 819,550 820,551 822,551 823,552 825,552 826,553 828,553 829,554 830,554 831,555 832,555 833,556 834,556 835,557 836,557 837,558 838,558 840,560 841,560 843,562 844,562 847,565 848,565 860,577 860,578 863,581 863,582 864,583 864,584 866,586 866,587 867,588 867,589 868,590 868,591 869,592 869,593 870,594 870,595 871,596 871,597 872,598 872,600 873,601 873,603 874,604 874,607 875,608 875,611 876,612 876,617 877,618 877,622 920,622 921,621 931,621 932,620 933,620 935,618 936,618 939,615 940,615 941,614 943,614 944,613 961,613 962,614 961,615 945,615 944,616 942,616 941,617 940,617 937,620 936,620 934,622 933,622 932,623 923,623 922,624 877,624 877,632 876,633 876,639 875,640 875,643 874,644 874,647 873,648 873,650 872,651 872,653 871,654 871,655 870,656 870,658 869,659 869,660 868,661 868,662 867,663 867,664 866,665 866,666 864,668 864,669 861,672 861,673 855,679 863,671 863,670 865,668 865,667 866,666 866,665 867,664 867,663 868,662 868,661 869,660 869,659 870,658 870,656 871,655 871,654 872,653 872,651 873,650 873,648 874,647 874,644 875,643 875,640 876,639 876,633 877,632 877,625 878,624 922,624 923,623 932,623 933,622 935,622 939,618 940,618 942,616 944,616 945,615 961,615 962,614 976,614 977,613 979,613 979,612 980,611 980,609 981,608 981,603 983,601 989,601 990,600 993,600 994,599 995,599 996,598 997,598 998,597 999,597 1003,593 1003,592 1004,591 1004,590 1005,589 1005,586 1006,585 1006,579 1007,578 1006,577 1006,568 1003,568 1002,567 999,567 998,568 988,568 986,566 986,565 987,564 987,556 988,555 988,547 989,546 989,539 990,538 990,529 991,528 991,519 992,518 992,508 993,507 993,496 994,495 994,481 995,480 995,449 994,448 994,433 993,432 993,429 992,428 992,425 991,424 991,420 990,419 990,417 989,416 989,413 988,412 988,409 987,408 987,406 986,405 986,403 985,402 985,400 984,399 984,397 983,396 983,395 982,394 982,392 981,391 981,390 980,389 980,387 979,386 979,385 978,384 978,383 977,382 977,380 976,379 976,378 975,377 975,376 974,375 974,374 973,373 973,371 972,370 972,369 971,368 971,367 970,366 970,364 969,363 969,362 968,361 968,360 967,359 967,358 966,357 966,356 965,355 965,353 964,352 964,351 963,350 963,349 962,348 962,347 961,346 961,344 960,343 960,342 959,341 959,340 958,339 958,338 957,337 957,336 956,335 956,334 955,333 955,331 954,330 954,329 953,328 953,327 952,326 952,325 951,324 951,323 950,322 950,321 949,320 949,319 948,318 948,316 947,315 947,314 946,313 946,312 945,311 945,310 944,309 944,308 943,307 943,306 942,305 942,304 941,303 941,302 940,301 940,300 939,299 939,298 938,297 938,295 937,294 937,293 936,292 936,291 935,290 935,289 934,288 934,286 926,278 925,278 923,276 922,276 921,275 920,275 918,273 916,273 915,272 913,272 912,271 910,271 909,270 906,270 905,269 900,269 899,268 893,268 892,267 879,267 878,266 857,266 856,265 837,265 836,264 815,264 814,263 795,263 794,262 769,262 768,261 728,261 727,260 726,261 721,261 720,260 700,260 699,261 698,260 674,260 673,261 672,260 659,260 658,261 656,261 655,260 640,260 639,261 634,261 633,260 629,260 628,261 627,261 626,260 619,260 618,261 607,261" stroke="black" stroke-width="1" /></svg>