<svg xmlns="http://www.w3.org/2000/svg" xmlns:xlink="http://www.w3.org/1999/xlink" width="1920" zoomAndPan="magnify" viewBox="0 0 1440 809.999993" height="1080" preserveAspectRatio="xMidYMid meet" version="1.0"><defs><clipPath id="ded61952cc"><path d="M 784 331.3125 L 792 331.3125 L 792 339 L 784 339 Z M 784 331.3125 " clip-rule="nonzero"/></clipPath><clipPath id="9f3dacb9ab"><path d="M 778.371094 471.808594 L 785.253906 471.808594 L 785.253906 478.3125 L 778.371094 478.3125 Z M 778.371094 471.808594 " clip-rule="nonzero"/></clipPath><clipPath id="9d2812cd7c"><path d="M 640.230469 367 L 648 367 L 648 375 L 640.230469 375 Z M 640.230469 367 " clip-rule="nonzero"/></clipPath><clipPath id="cc46af3399"><path d="M 792.886719 375.824219 L 799.730469 375.824219 L 799.730469 382.707031 L 792.886719 382.707031 Z M 792.886719 375.824219 " clip-rule="nonzero"/></clipPath><clipPath id="0d1d9cac0d"><path d="M 713 331.3125 L 721 331.3125 L 721 339 L 713 339 Z M 713 331.3125 " clip-rule="nonzero"/></clipPath><clipPath id="a922bada53"><path d="M 640.230469 333 L 648 333 L 648 341 L 640.230469 341 Z M 640.230469 333 " clip-rule="nonzero"/></clipPath><clipPath id="dbd0c836a0"><path d="M 654 471 L 662 471 L 662 478.3125 L 654 478.3125 Z M 654 471 " clip-rule="nonzero"/></clipPath></defs><rect x="-144" width="1728" fill="#ffffff" y="-80.999999" height="971.999992" fill-opacity="1"/><rect x="-144" width="1728" fill="#ffffff" y="-80.999999" height="971.999992" fill-opacity="1"/><path fill="#060606" d="M 784.027344 335.726562 L 761.910156 357.84375 C 759.6875 360.066406 758.011719 364.105469 758.011719 367.246094 L 758.011719 386.183594 C 758.011719 388.074219 756.792969 391.019531 755.453125 392.359375 L 743.117188 404.695312 C 740.898438 406.917969 739.222656 410.960938 739.222656 414.101562 L 739.222656 430.375 C 739.222656 433.515625 740.898438 437.558594 743.117188 439.78125 L 777.597656 474.261719 C 777.972656 472.664062 779.230469 471.410156 780.824219 471.035156 L 746.34375 436.554688 C 745.003906 435.214844 743.785156 432.269531 743.785156 430.375 L 743.785156 414.101562 C 743.785156 412.207031 745.003906 409.261719 746.34375 407.921875 L 758.679688 395.585938 C 760.902344 393.363281 762.574219 389.324219 762.574219 386.183594 L 762.574219 367.246094 C 762.574219 365.355469 763.796875 362.410156 765.132812 361.070312 L 787.253906 338.953125 C 785.65625 338.578125 784.402344 337.320312 784.027344 335.726562 " fill-opacity="1" fill-rule="nonzero"/><g clip-path="url(#ded61952cc)"><path fill="#060606" d="M 788.242188 331.3125 C 786.351562 331.3125 784.820312 332.84375 784.820312 334.734375 C 784.820312 336.625 786.351562 338.15625 788.242188 338.15625 C 790.132812 338.15625 791.667969 336.625 791.667969 334.734375 C 791.667969 332.84375 790.132812 331.3125 788.242188 331.3125 " fill-opacity="1" fill-rule="nonzero"/></g><g clip-path="url(#9f3dacb9ab)"><path fill="#060606" d="M 778.390625 475.25 C 778.390625 477.140625 779.925781 478.671875 781.816406 478.671875 C 783.703125 478.671875 785.238281 477.140625 785.238281 475.25 C 785.238281 473.359375 783.703125 471.828125 781.816406 471.828125 C 779.925781 471.828125 778.390625 473.359375 778.390625 475.25 " fill-opacity="1" fill-rule="nonzero"/></g><path fill="#ffde59" d="M 792.046875 380.039062 L 756.65625 415.429688 C 755.316406 416.769531 752.375 417.988281 750.480469 417.988281 L 697.933594 417.988281 C 696.039062 417.988281 693.09375 416.769531 691.753906 415.429688 L 647.910156 371.582031 C 647.535156 373.179688 646.277344 374.4375 644.683594 374.8125 L 688.527344 418.65625 C 690.75 420.878906 694.792969 422.550781 697.933594 422.550781 L 750.480469 422.550781 C 753.621094 422.550781 757.664062 420.878906 759.882812 418.65625 L 795.109375 383.429688 C 793.542969 382.976562 792.34375 381.664062 792.046875 380.039062 " fill-opacity="1" fill-rule="nonzero"/><g clip-path="url(#9d2812cd7c)"><path fill="#ffde59" d="M 647.113281 370.59375 C 647.113281 368.703125 645.582031 367.171875 643.691406 367.171875 C 641.800781 367.171875 640.269531 368.703125 640.269531 370.59375 C 640.269531 372.484375 641.800781 374.015625 643.691406 374.015625 C 645.582031 374.015625 647.113281 372.484375 647.113281 370.59375 " fill-opacity="1" fill-rule="nonzero"/></g><g clip-path="url(#cc46af3399)"><path fill="#ffde59" d="M 796.308594 375.84375 C 794.417969 375.84375 792.886719 377.375 792.886719 379.265625 C 792.886719 381.15625 794.417969 382.6875 796.308594 382.6875 C 798.199219 382.6875 799.730469 381.15625 799.730469 379.265625 C 799.730469 377.375 798.199219 375.84375 796.308594 375.84375 " fill-opacity="1" fill-rule="nonzero"/></g><path fill="#000000" d="M 791.824219 450.4375 L 679.308594 450.4375 C 677.414062 450.4375 674.46875 449.21875 673.128906 447.878906 L 660.742188 435.488281 C 659.402344 434.148438 658.183594 431.207031 658.183594 429.3125 L 658.183594 407.445312 C 658.183594 405.550781 659.402344 402.605469 660.742188 401.265625 L 673.109375 388.898438 C 674.449219 387.558594 677.394531 386.339844 679.289062 386.339844 L 693.96875 386.339844 C 697.109375 386.339844 701.152344 384.664062 703.371094 382.445312 L 715.246094 370.566406 C 717.46875 368.347656 719.144531 364.304688 719.144531 361.164062 L 719.144531 338.414062 C 718.480469 338.828125 717.699219 339.070312 716.859375 339.070312 C 716.023438 339.070312 715.242188 338.828125 714.578125 338.414062 L 714.578125 361.164062 C 714.578125 363.058594 713.359375 366 712.019531 367.339844 L 700.144531 379.214844 C 698.804688 380.554688 695.859375 381.773438 693.96875 381.773438 L 679.289062 381.773438 C 676.148438 381.773438 672.105469 383.449219 669.882812 385.671875 L 657.515625 398.042969 C 655.292969 400.261719 653.617188 404.304688 653.617188 407.445312 L 653.617188 429.3125 C 653.617188 432.453125 655.292969 436.496094 657.511719 438.714844 L 669.902344 451.105469 C 672.125 453.324219 676.167969 455 679.308594 455 L 791.824219 455 C 791.414062 454.335938 791.167969 453.554688 791.167969 452.71875 C 791.167969 451.882812 791.414062 451.101562 791.824219 450.4375 " fill-opacity="1" fill-rule="nonzero"/><g clip-path="url(#0d1d9cac0d)"><path fill="#000000" d="M 720.285156 334.734375 C 720.285156 332.84375 718.75 331.3125 716.859375 331.3125 C 714.96875 331.3125 713.4375 332.84375 713.4375 334.734375 C 713.4375 336.625 714.96875 338.160156 716.859375 338.160156 C 718.75 338.160156 720.285156 336.625 720.285156 334.734375 " fill-opacity="1" fill-rule="nonzero"/></g><path fill="#000000" d="M 795.503906 449.296875 C 793.613281 449.296875 792.082031 450.828125 792.082031 452.71875 C 792.082031 454.609375 793.613281 456.140625 795.503906 456.140625 C 797.394531 456.140625 798.929688 454.609375 798.929688 452.71875 C 798.929688 450.828125 797.394531 449.296875 795.503906 449.296875 " fill-opacity="1" fill-rule="nonzero"/><g clip-path="url(#a922bada53)"><path fill="#a6a6a6" d="M 647.113281 337.128906 C 647.113281 335.238281 645.582031 333.707031 643.691406 333.707031 C 641.800781 333.707031 640.269531 335.238281 640.269531 337.128906 C 640.269531 339.019531 641.800781 340.550781 643.691406 340.550781 C 645.582031 340.550781 647.113281 339.019531 647.113281 337.128906 " fill-opacity="1" fill-rule="nonzero"/></g><path fill="#a6a6a6" d="M 723.308594 389.484375 L 672.566406 338.742188 C 670.347656 336.523438 666.304688 334.847656 663.164062 334.847656 L 647.371094 334.847656 C 647.785156 335.511719 648.027344 336.289062 648.027344 337.128906 C 648.027344 337.964844 647.785156 338.746094 647.371094 339.410156 L 663.164062 339.410156 C 665.058594 339.410156 668 340.628906 669.339844 341.96875 L 720.082031 392.710938 C 721.421875 394.050781 722.640625 396.996094 722.640625 398.886719 L 722.640625 428.09375 C 722.640625 429.351562 721.617188 430.375 720.359375 430.375 L 686.589844 430.375 C 683.449219 430.375 679.40625 432.050781 677.1875 434.273438 L 659.605469 451.851562 C 657.382812 454.074219 655.710938 458.117188 655.710938 461.253906 L 655.710938 471.265625 C 656.375 470.855469 657.152344 470.609375 657.992188 470.609375 C 658.828125 470.609375 659.609375 470.855469 660.273438 471.265625 L 660.273438 461.253906 C 660.273438 459.363281 661.492188 456.417969 662.832031 455.078125 L 680.414062 437.5 C 681.75 436.160156 684.695312 434.941406 686.589844 434.941406 L 720.359375 434.941406 C 724.132812 434.941406 727.203125 431.871094 727.203125 428.09375 L 727.203125 398.886719 C 727.203125 395.746094 725.53125 391.703125 723.308594 389.484375 " fill-opacity="1" fill-rule="nonzero"/><g clip-path="url(#dbd0c836a0)"><path fill="#a6a6a6" d="M 654.570312 474.945312 C 654.570312 476.835938 656.101562 478.367188 657.992188 478.367188 C 659.882812 478.367188 661.414062 476.835938 661.414062 474.945312 C 661.414062 473.054688 659.882812 471.523438 657.992188 471.523438 C 656.101562 471.523438 654.570312 473.054688 654.570312 474.945312 " fill-opacity="1" fill-rule="nonzero"/></g><path fill="#ffffff" d="M 660.492188 338.78125 C 660.113281 338.78125 659.804688 338.476562 659.804688 338.097656 L 659.804688 336.160156 C 659.804688 335.78125 660.113281 335.476562 660.492188 335.476562 C 660.867188 335.476562 661.175781 335.78125 661.175781 336.160156 L 661.175781 338.097656 C 661.175781 338.476562 660.867188 338.78125 660.492188 338.78125 " fill-opacity="1" fill-rule="nonzero"/><path fill="#ffffff" d="M 676.347656 347.863281 C 676.175781 347.863281 676 347.796875 675.867188 347.664062 C 675.597656 347.398438 675.597656 346.964844 675.867188 346.695312 L 677.234375 345.328125 C 677.503906 345.058594 677.9375 345.058594 678.203125 345.328125 C 678.46875 345.59375 678.46875 346.027344 678.203125 346.296875 L 676.832031 347.664062 C 676.699219 347.796875 676.523438 347.863281 676.347656 347.863281 " fill-opacity="1" fill-rule="nonzero"/><path fill="#ffffff" d="M 691.742188 363.257812 C 691.566406 363.257812 691.390625 363.1875 691.257812 363.054688 C 690.988281 362.789062 690.988281 362.355469 691.257812 362.089844 L 692.625 360.71875 C 692.894531 360.449219 693.328125 360.449219 693.59375 360.71875 C 693.859375 360.984375 693.859375 361.417969 693.59375 361.6875 L 692.222656 363.054688 C 692.089844 363.1875 691.914062 363.257812 691.742188 363.257812 " fill-opacity="1" fill-rule="nonzero"/><path fill="#ffffff" d="M 752.460938 400.609375 C 752.285156 400.609375 752.113281 400.542969 751.976562 400.40625 L 750.609375 399.039062 C 750.339844 398.769531 750.339844 398.339844 750.609375 398.070312 C 750.875 397.804688 751.308594 397.804688 751.578125 398.070312 L 752.945312 399.4375 C 753.214844 399.707031 753.214844 400.140625 752.945312 400.40625 C 752.8125 400.542969 752.636719 400.609375 752.460938 400.609375 " fill-opacity="1" fill-rule="nonzero"/><path fill="#ffffff" d="M 770.609375 354.457031 C 770.433594 354.457031 770.257812 354.390625 770.125 354.257812 L 768.757812 352.886719 C 768.488281 352.621094 768.488281 352.1875 768.757812 351.917969 C 769.023438 351.652344 769.457031 351.652344 769.726562 351.917969 L 771.09375 353.289062 C 771.359375 353.554688 771.359375 353.988281 771.09375 354.257812 C 770.960938 354.390625 770.785156 354.457031 770.609375 354.457031 " fill-opacity="1" fill-rule="nonzero"/><path fill="#ffffff" d="M 785.277344 392.039062 C 785.101562 392.039062 784.929688 391.96875 784.792969 391.835938 L 783.425781 390.46875 C 783.15625 390.199219 783.15625 389.765625 783.425781 389.5 C 783.691406 389.230469 784.125 389.230469 784.390625 389.5 L 785.761719 390.867188 C 786.027344 391.136719 786.027344 391.570312 785.761719 391.835938 C 785.628906 391.96875 785.453125 392.039062 785.277344 392.039062 " fill-opacity="1" fill-rule="nonzero"/><path fill="#ffffff" d="M 769.230469 408.082031 C 769.054688 408.082031 768.878906 408.015625 768.746094 407.882812 L 767.378906 406.511719 C 767.109375 406.246094 767.109375 405.8125 767.378906 405.546875 C 767.644531 405.277344 768.078125 405.277344 768.347656 405.546875 L 769.714844 406.914062 C 769.980469 407.183594 769.980469 407.617188 769.714844 407.882812 C 769.582031 408.015625 769.40625 408.082031 769.230469 408.082031 " fill-opacity="1" fill-rule="nonzero"/><path fill="#ffffff" d="M 720.867188 392.382812 C 720.691406 392.382812 720.515625 392.316406 720.382812 392.179688 C 720.113281 391.914062 720.113281 391.480469 720.382812 391.210938 L 721.75 389.84375 C 722.019531 389.574219 722.453125 389.574219 722.71875 389.84375 C 722.988281 390.109375 722.988281 390.542969 722.71875 390.8125 L 721.347656 392.179688 C 721.214844 392.316406 721.039062 392.382812 720.867188 392.382812 " fill-opacity="1" fill-rule="nonzero"/><path fill="#ffffff" d="M 680.671875 409.691406 C 680.496094 409.691406 680.320312 409.625 680.1875 409.492188 C 679.921875 409.226562 679.921875 408.792969 680.1875 408.523438 L 681.558594 407.15625 C 681.824219 406.886719 682.257812 406.886719 682.527344 407.15625 C 682.792969 407.421875 682.792969 407.855469 682.527344 408.121094 L 681.15625 409.492188 C 681.023438 409.625 680.847656 409.691406 680.671875 409.691406 " fill-opacity="1" fill-rule="nonzero"/><path fill="#ffffff" d="M 714.261719 434.257812 C 713.882812 434.257812 713.574219 433.949219 713.574219 433.574219 L 713.574219 431.636719 C 713.574219 431.257812 713.882812 430.953125 714.261719 430.953125 C 714.640625 430.953125 714.945312 431.257812 714.945312 431.636719 L 714.945312 433.574219 C 714.945312 433.949219 714.640625 434.257812 714.261719 434.257812 " fill-opacity="1" fill-rule="nonzero"/><path fill="#ffffff" d="M 739.167969 454.371094 C 738.789062 454.371094 738.480469 454.066406 738.480469 453.6875 L 738.480469 451.75 C 738.480469 451.371094 738.789062 451.066406 739.167969 451.066406 C 739.542969 451.066406 739.851562 451.371094 739.851562 451.75 L 739.851562 453.6875 C 739.851562 454.066406 739.542969 454.371094 739.167969 454.371094 " fill-opacity="1" fill-rule="nonzero"/><path fill="#ffffff" d="M 777.480469 454.371094 C 777.101562 454.371094 776.792969 454.066406 776.792969 453.6875 L 776.792969 451.75 C 776.792969 451.371094 777.101562 451.066406 777.480469 451.066406 C 777.855469 451.066406 778.164062 451.371094 778.164062 451.75 L 778.164062 453.6875 C 778.164062 454.066406 777.855469 454.371094 777.480469 454.371094 " fill-opacity="1" fill-rule="nonzero"/><path fill="#ffffff" d="M 711.558594 454.371094 C 711.183594 454.371094 710.875 454.066406 710.875 453.6875 L 710.875 451.75 C 710.875 451.371094 711.183594 451.066406 711.558594 451.066406 C 711.9375 451.066406 712.246094 451.371094 712.246094 451.75 L 712.246094 453.6875 C 712.246094 454.066406 711.9375 454.371094 711.558594 454.371094 " fill-opacity="1" fill-rule="nonzero"/><path fill="#ffffff" d="M 687.039062 454.371094 C 686.660156 454.371094 686.355469 454.066406 686.355469 453.6875 L 686.355469 451.75 C 686.355469 451.371094 686.660156 451.066406 687.039062 451.066406 C 687.417969 451.066406 687.722656 451.371094 687.722656 451.75 L 687.722656 453.6875 C 687.722656 454.066406 687.417969 454.371094 687.039062 454.371094 " fill-opacity="1" fill-rule="nonzero"/><path fill="#ffffff" d="M 687.039062 385.632812 C 686.660156 385.632812 686.355469 385.324219 686.355469 384.945312 L 686.355469 383.011719 C 686.355469 382.632812 686.660156 382.324219 687.039062 382.324219 C 687.417969 382.324219 687.722656 382.632812 687.722656 383.011719 L 687.722656 384.945312 C 687.722656 385.324219 687.417969 385.632812 687.039062 385.632812 " fill-opacity="1" fill-rule="nonzero"/><path fill="#ffffff" d="M 656.867188 420.953125 L 654.933594 420.953125 C 654.554688 420.953125 654.25 420.648438 654.25 420.269531 C 654.25 419.890625 654.554688 419.585938 654.933594 419.585938 L 656.867188 419.585938 C 657.246094 419.585938 657.554688 419.890625 657.554688 420.269531 C 657.554688 420.648438 657.246094 420.953125 656.867188 420.953125 " fill-opacity="1" fill-rule="nonzero"/><path fill="#ffffff" d="M 717.746094 353.542969 L 715.808594 353.542969 C 715.433594 353.542969 715.125 353.234375 715.125 352.855469 C 715.125 352.480469 715.433594 352.171875 715.808594 352.171875 L 717.746094 352.171875 C 718.125 352.171875 718.429688 352.480469 718.429688 352.855469 C 718.429688 353.234375 718.125 353.542969 717.746094 353.542969 " fill-opacity="1" fill-rule="nonzero"/><path fill="#ffffff" d="M 761.304688 376.046875 L 759.367188 376.046875 C 758.988281 376.046875 758.683594 375.738281 758.683594 375.359375 C 758.683594 374.984375 758.988281 374.675781 759.367188 374.675781 L 761.304688 374.675781 C 761.679688 374.675781 761.988281 374.984375 761.988281 375.359375 C 761.988281 375.738281 761.679688 376.046875 761.304688 376.046875 " fill-opacity="1" fill-rule="nonzero"/><path fill="#ffffff" d="M 702.484375 421.921875 C 702.105469 421.921875 701.800781 421.617188 701.800781 421.238281 L 701.800781 419.300781 C 701.800781 418.925781 702.105469 418.617188 702.484375 418.617188 C 702.863281 418.617188 703.167969 418.925781 703.167969 419.300781 L 703.167969 421.238281 C 703.167969 421.617188 702.863281 421.921875 702.484375 421.921875 " fill-opacity="1" fill-rule="nonzero"/><path fill="#ffffff" d="M 690.285156 434.257812 C 689.910156 434.257812 689.601562 433.949219 689.601562 433.574219 L 689.601562 431.636719 C 689.601562 431.257812 689.910156 430.953125 690.285156 430.953125 C 690.664062 430.953125 690.972656 431.257812 690.972656 431.636719 L 690.972656 433.574219 C 690.972656 433.949219 690.664062 434.257812 690.285156 434.257812 " fill-opacity="1" fill-rule="nonzero"/><path fill="#ffffff" d="M 707.960938 375.996094 C 707.960938 376.75 707.347656 377.363281 706.59375 377.363281 C 705.835938 377.363281 705.222656 376.75 705.222656 375.996094 C 705.222656 375.238281 705.835938 374.625 706.59375 374.625 C 707.347656 374.625 707.960938 375.238281 707.960938 375.996094 " fill-opacity="1" fill-rule="nonzero"/><path fill="#ffffff" d="M 667.277344 392.882812 C 667.277344 393.640625 666.664062 394.253906 665.910156 394.253906 C 665.152344 394.253906 664.539062 393.640625 664.539062 392.882812 C 664.539062 392.125 665.152344 391.515625 665.910156 391.515625 C 666.664062 391.515625 667.277344 392.125 667.277344 392.882812 " fill-opacity="1" fill-rule="nonzero"/><path fill="#ffffff" d="M 726.292969 420.269531 C 726.292969 421.027344 725.679688 421.640625 724.921875 421.640625 C 724.167969 421.640625 723.554688 421.027344 723.554688 420.269531 C 723.554688 419.515625 724.167969 418.902344 724.921875 418.902344 C 725.679688 418.902344 726.292969 419.515625 726.292969 420.269531 " fill-opacity="1" fill-rule="nonzero"/><path fill="#ffffff" d="M 742.871094 420.269531 C 742.871094 421.027344 742.257812 421.640625 741.503906 421.640625 C 740.746094 421.640625 740.132812 421.027344 740.132812 420.269531 C 740.132812 419.515625 740.746094 418.902344 741.503906 418.902344 C 742.257812 418.902344 742.871094 419.515625 742.871094 420.269531 " fill-opacity="1" fill-rule="nonzero"/><path fill="#ffffff" d="M 760.613281 452.71875 C 760.613281 453.472656 760 454.085938 759.246094 454.085938 C 758.488281 454.085938 757.875 453.472656 757.875 452.71875 C 757.875 451.960938 758.488281 451.351562 759.246094 451.351562 C 760 451.351562 760.613281 451.960938 760.613281 452.71875 " fill-opacity="1" fill-rule="nonzero"/><path fill="#ffffff" d="M 669.746094 446.320312 C 669.746094 447.078125 669.132812 447.691406 668.375 447.691406 C 667.621094 447.691406 667.007812 447.078125 667.007812 446.320312 C 667.007812 445.566406 667.621094 444.953125 668.375 444.953125 C 669.132812 444.953125 669.746094 445.566406 669.746094 446.320312 " fill-opacity="1" fill-rule="nonzero"/><path fill="#ffffff" d="M 642.550781 338.179688 L 642.992188 338.179688 C 643.207031 338.179688 643.324219 338.097656 643.324219 337.851562 L 643.324219 336.34375 C 643.324219 336.132812 643.230469 336.015625 643.011719 336.015625 L 642.53125 336.015625 C 642.257812 336.015625 642.207031 336.210938 642.207031 336.34375 L 642.207031 337.847656 C 642.207031 338.128906 642.394531 338.179688 642.550781 338.179688 Z M 641.566406 336.265625 C 641.566406 335.71875 641.898438 335.425781 642.40625 335.425781 L 643.15625 335.425781 C 643.769531 335.425781 643.960938 335.804688 643.960938 336.242188 L 643.960938 337.953125 C 643.960938 338.496094 643.65625 338.765625 643.152344 338.765625 L 642.402344 338.765625 C 641.890625 338.765625 641.566406 338.5 641.566406 337.953125 L 641.566406 336.265625 " fill-opacity="1" fill-rule="nonzero"/><path fill="#ffffff" d="M 644.335938 335.804688 L 644.984375 335.425781 L 645.617188 335.425781 L 645.617188 338.765625 L 644.980469 338.765625 L 644.980469 336.0625 L 644.335938 336.222656 L 644.335938 335.804688 " fill-opacity="1" fill-rule="nonzero"/><path fill="#ffffff" d="M 656.847656 475.996094 L 657.289062 475.996094 C 657.503906 475.996094 657.621094 475.914062 657.621094 475.667969 L 657.621094 474.160156 C 657.621094 473.949219 657.53125 473.832031 657.3125 473.832031 L 656.832031 473.832031 C 656.558594 473.832031 656.503906 474.027344 656.503906 474.160156 L 656.503906 475.667969 C 656.503906 475.945312 656.695312 475.996094 656.847656 475.996094 Z M 655.867188 474.082031 C 655.867188 473.535156 656.199219 473.246094 656.707031 473.246094 L 657.453125 473.246094 C 658.066406 473.246094 658.261719 473.621094 658.261719 474.058594 L 658.261719 475.769531 C 658.261719 476.3125 657.957031 476.582031 657.453125 476.582031 L 656.703125 476.582031 C 656.191406 476.582031 655.867188 476.316406 655.867188 475.769531 L 655.867188 474.082031 " fill-opacity="1" fill-rule="nonzero"/><path fill="#ffffff" d="M 658.636719 473.621094 L 659.28125 473.246094 L 659.917969 473.246094 L 659.917969 476.582031 L 659.277344 476.582031 L 659.277344 473.878906 L 658.636719 474.039062 L 658.636719 473.621094 " fill-opacity="1" fill-rule="nonzero"/><path fill="#ffffff" d="M 642.054688 371.644531 L 642.496094 371.644531 C 642.710938 371.644531 642.828125 371.5625 642.828125 371.316406 L 642.828125 369.808594 C 642.828125 369.597656 642.738281 369.480469 642.515625 369.480469 L 642.039062 369.480469 C 641.761719 369.480469 641.710938 369.675781 641.710938 369.808594 L 641.710938 371.3125 C 641.710938 371.59375 641.902344 371.644531 642.054688 371.644531 Z M 641.074219 369.730469 C 641.074219 369.183594 641.402344 368.894531 641.910156 368.894531 L 642.660156 368.894531 C 643.273438 368.894531 643.46875 369.269531 643.46875 369.707031 L 643.46875 371.417969 C 643.46875 371.960938 643.160156 372.230469 642.65625 372.230469 L 641.910156 372.230469 C 641.394531 372.230469 641.074219 371.964844 641.074219 371.417969 L 641.074219 369.730469 " fill-opacity="1" fill-rule="nonzero"/><path fill="#ffffff" d="M 643.84375 368.964844 C 644.257812 368.890625 644.640625 368.847656 645.230469 368.847656 C 645.917969 368.847656 646.21875 369.320312 646.21875 369.878906 C 646.21875 370.628906 645.261719 371.402344 644.957031 371.644531 L 646.21875 371.644531 L 646.21875 372.230469 L 643.878906 372.230469 L 643.878906 371.671875 C 644.304688 371.382812 645.578125 370.414062 645.578125 369.882812 C 645.578125 369.582031 645.417969 369.441406 645.027344 369.441406 L 643.84375 369.441406 L 643.84375 368.964844 " fill-opacity="1" fill-rule="nonzero"/><path fill="#ffffff" d="M 715.234375 335.785156 L 715.675781 335.785156 C 715.890625 335.785156 716.007812 335.703125 716.007812 335.457031 L 716.007812 333.949219 C 716.007812 333.738281 715.914062 333.621094 715.695312 333.621094 L 715.21875 333.621094 C 714.941406 333.621094 714.890625 333.816406 714.890625 333.949219 L 714.890625 335.453125 C 714.890625 335.734375 715.082031 335.785156 715.234375 335.785156 Z M 714.253906 333.871094 C 714.253906 333.324219 714.582031 333.035156 715.089844 333.035156 L 715.839844 333.035156 C 716.453125 333.035156 716.648438 333.410156 716.648438 333.847656 L 716.648438 335.558594 C 716.648438 336.101562 716.339844 336.371094 715.835938 336.371094 L 715.089844 336.371094 C 714.574219 336.371094 714.253906 336.105469 714.253906 335.558594 L 714.253906 333.871094 " fill-opacity="1" fill-rule="nonzero"/><path fill="#ffffff" d="M 716.988281 333.152344 C 717.390625 333.011719 717.933594 333.015625 718.464844 333.023438 C 718.96875 333.03125 719.289062 333.339844 719.289062 333.828125 L 719.289062 334.066406 C 719.289062 334.398438 719.179688 334.625 718.945312 334.710938 C 719.1875 334.816406 719.289062 335.046875 719.289062 335.394531 L 719.289062 335.585938 C 719.289062 336.113281 718.988281 336.402344 718.433594 336.402344 C 717.914062 336.402344 717.417969 336.417969 717.015625 336.277344 L 717.023438 335.8125 L 718.179688 335.8125 C 718.484375 335.8125 718.648438 335.789062 718.648438 335.5 L 718.648438 335.355469 C 718.648438 335.082031 718.480469 335.023438 718.207031 335.011719 L 717.300781 334.976562 L 717.300781 334.464844 L 718.207031 334.417969 C 718.523438 334.402344 718.65625 334.332031 718.65625 334.089844 L 718.65625 333.925781 C 718.65625 333.664062 718.445312 333.613281 718.207031 333.613281 L 716.988281 333.613281 L 716.988281 333.152344 " fill-opacity="1" fill-rule="nonzero"/><path fill="#ffffff" d="M 793.878906 453.765625 L 794.320312 453.765625 C 794.535156 453.765625 794.652344 453.6875 794.652344 453.441406 L 794.652344 451.929688 C 794.652344 451.722656 794.558594 451.605469 794.339844 451.605469 L 793.859375 451.605469 C 793.585938 451.605469 793.535156 451.800781 793.535156 451.929688 L 793.535156 453.4375 C 793.535156 453.714844 793.726562 453.765625 793.878906 453.765625 Z M 792.894531 451.855469 C 792.894531 451.308594 793.226562 451.015625 793.738281 451.015625 L 794.484375 451.015625 C 795.097656 451.015625 795.292969 451.394531 795.292969 451.832031 L 795.292969 453.542969 C 795.292969 454.085938 794.984375 454.355469 794.480469 454.355469 L 793.734375 454.355469 C 793.222656 454.355469 792.894531 454.089844 792.894531 453.542969 L 792.894531 451.855469 " fill-opacity="1" fill-rule="nonzero"/><path fill="#ffffff" d="M 795.632812 451.136719 C 796.035156 450.996094 796.574219 451 797.109375 451.007812 C 797.609375 451.015625 797.933594 451.324219 797.933594 451.8125 L 797.933594 452.050781 C 797.933594 452.382812 797.824219 452.605469 797.585938 452.695312 C 797.832031 452.800781 797.933594 453.03125 797.933594 453.378906 L 797.933594 453.570312 C 797.933594 454.097656 797.632812 454.386719 797.078125 454.386719 C 796.558594 454.386719 796.0625 454.402344 795.660156 454.261719 L 795.664062 453.792969 L 796.824219 453.792969 C 797.128906 453.792969 797.292969 453.773438 797.292969 453.484375 L 797.292969 453.339844 C 797.292969 453.0625 797.121094 453.007812 796.851562 452.996094 L 795.945312 452.960938 L 795.945312 452.449219 L 796.851562 452.402344 C 797.167969 452.386719 797.300781 452.316406 797.300781 452.074219 L 797.300781 451.910156 C 797.300781 451.648438 797.089844 451.597656 796.851562 451.597656 L 795.632812 451.597656 L 795.632812 451.136719 " fill-opacity="1" fill-rule="nonzero"/><path fill="#ffffff" d="M 786.53125 335.785156 L 786.976562 335.785156 C 787.1875 335.785156 787.304688 335.703125 787.304688 335.457031 L 787.304688 333.949219 C 787.304688 333.738281 787.214844 333.621094 786.992188 333.621094 L 786.515625 333.621094 C 786.242188 333.621094 786.1875 333.816406 786.1875 333.949219 L 786.1875 335.457031 C 786.1875 335.734375 786.378906 335.785156 786.53125 335.785156 Z M 785.550781 333.875 C 785.550781 333.324219 785.882812 333.035156 786.390625 333.035156 L 787.136719 333.035156 C 787.753906 333.035156 787.945312 333.410156 787.945312 333.847656 L 787.945312 335.558594 C 787.945312 336.101562 787.640625 336.371094 787.136719 336.371094 L 786.386719 336.371094 C 785.875 336.371094 785.550781 336.105469 785.550781 335.558594 L 785.550781 333.875 " fill-opacity="1" fill-rule="nonzero"/><path fill="#ffffff" d="M 789.441406 333.035156 L 790.144531 333.035156 L 789.144531 335.039062 L 789.972656 335.039062 L 789.972656 334.277344 L 790.117188 333.925781 L 790.609375 333.925781 L 790.609375 335.039062 L 790.945312 335.039062 L 790.945312 335.53125 L 790.609375 335.644531 L 790.609375 336.363281 L 789.972656 336.363281 L 789.972656 335.644531 L 788.40625 335.644531 L 788.253906 335.351562 L 789.441406 333.035156 " fill-opacity="1" fill-rule="nonzero"/><path fill="#ffffff" d="M 780.105469 476.300781 L 780.546875 476.300781 C 780.761719 476.300781 780.878906 476.21875 780.878906 475.972656 L 780.878906 474.460938 C 780.878906 474.253906 780.785156 474.136719 780.566406 474.136719 L 780.085938 474.136719 C 779.8125 474.136719 779.761719 474.332031 779.761719 474.460938 L 779.761719 475.96875 C 779.761719 476.25 779.949219 476.300781 780.105469 476.300781 Z M 779.121094 474.386719 C 779.121094 473.839844 779.453125 473.546875 779.960938 473.546875 L 780.710938 473.546875 C 781.324219 473.546875 781.515625 473.925781 781.515625 474.363281 L 781.515625 476.074219 C 781.515625 476.617188 781.210938 476.886719 780.707031 476.886719 L 779.957031 476.886719 C 779.445312 476.886719 779.121094 476.621094 779.121094 476.074219 L 779.121094 474.386719 " fill-opacity="1" fill-rule="nonzero"/><path fill="#ffffff" d="M 783.011719 473.546875 L 783.714844 473.546875 L 782.714844 475.554688 L 783.542969 475.554688 L 783.542969 474.792969 L 783.6875 474.441406 L 784.179688 474.441406 L 784.179688 475.554688 L 784.515625 475.554688 L 784.515625 476.046875 L 784.179688 476.160156 L 784.179688 476.878906 L 783.542969 476.878906 L 783.542969 476.160156 L 781.980469 476.160156 L 781.824219 475.867188 L 783.011719 473.546875 " fill-opacity="1" fill-rule="nonzero"/><path fill="#ffffff" d="M 794.667969 380.316406 L 795.113281 380.316406 C 795.328125 380.316406 795.441406 380.234375 795.441406 379.988281 L 795.441406 378.476562 C 795.441406 378.269531 795.351562 378.152344 795.132812 378.152344 L 794.652344 378.152344 C 794.378906 378.152344 794.324219 378.347656 794.324219 378.476562 L 794.324219 379.984375 C 794.324219 380.261719 794.515625 380.316406 794.667969 380.316406 Z M 793.6875 378.402344 C 793.6875 377.855469 794.019531 377.5625 794.527344 377.5625 L 795.273438 377.5625 C 795.890625 377.5625 796.082031 377.941406 796.082031 378.378906 L 796.082031 380.089844 C 796.082031 380.632812 795.777344 380.902344 795.273438 380.902344 L 794.523438 380.902344 C 794.011719 380.902344 793.6875 380.636719 793.6875 380.089844 L 793.6875 378.402344 " fill-opacity="1" fill-rule="nonzero"/><path fill="#ffffff" d="M 796.457031 377.632812 C 796.875 377.5625 797.257812 377.519531 797.84375 377.519531 C 798.535156 377.519531 798.835938 377.992188 798.835938 378.550781 C 798.835938 379.300781 797.878906 380.074219 797.574219 380.3125 L 798.835938 380.3125 L 798.835938 380.902344 L 796.492188 380.902344 L 796.492188 380.339844 C 796.921875 380.054688 798.195312 379.082031 798.195312 378.554688 C 798.195312 378.25 798.035156 378.109375 797.644531 378.109375 L 796.457031 378.109375 L 796.457031 377.632812 " fill-opacity="1" fill-rule="nonzero"/></svg>