<svg xmlns="http://www.w3.org/2000/svg" xmlns:xlink="http://www.w3.org/1999/xlink" width="1920" zoomAndPan="magnify" viewBox="0 0 1440 809.999993" height="1080" preserveAspectRatio="xMidYMid meet" version="1.0"><rect x="-144" width="1728" fill="#ffffff" y="-80.999999" height="971.999992" fill-opacity="1"/><rect x="-144" width="1728" fill="#ffffff" y="-80.999999" height="971.999992" fill-opacity="1"/><path fill="#000000" d="M 844.617188 317.769531 C 844.617188 317.769531 628.296875 317.769531 591 317.769531 C 580.058594 317.769531 570.335938 315.574219 570.335938 305.308594 L 844.617188 292.847656 L 844.617188 267.921875 C 844.617188 247.285156 827.867188 243 807.230469 243 L 583.183594 280.382812 C 563.222656 284.820312 558 293.28125 558 305.308594 L 558 529.617188 C 558 550.25 574.75 567 595.382812 567 L 844.617188 567 C 865.25 567 882 550.25 882 529.617188 L 882 355.152344 C 882 334.515625 865.25 317.769531 844.617188 317.769531 Z M 832.152344 467.308594 C 818.394531 467.308594 807.230469 456.140625 807.230469 442.382812 C 807.230469 428.628906 818.394531 417.460938 832.152344 417.460938 C 845.910156 417.460938 857.078125 428.628906 857.078125 442.382812 C 857.078125 456.140625 845.910156 467.308594 832.152344 467.308594 Z M 832.152344 467.308594 " fill-opacity="1" fill-rule="nonzero"/></svg>