<svg xmlns="http://www.w3.org/2000/svg" xmlns:xlink="http://www.w3.org/1999/xlink" width="1920" zoomAndPan="magnify" viewBox="0 0 1440 809.999993" height="1080" preserveAspectRatio="xMidYMid meet" version="1.0"><defs><clipPath id="4f57569c4e"><path d="M 773.414062 146.53125 L 875.414062 146.53125 L 875.414062 234 L 773.414062 234 Z M 773.414062 146.53125 " clip-rule="nonzero"/></clipPath><clipPath id="1021da4071"><path d="M 1120 146.5625 L 1141.828125 146.5625 L 1141.828125 177 L 1120 177 Z M 1120 146.5625 " clip-rule="nonzero"/></clipPath><clipPath id="d61b0662c9"><path d="M 1054.078125 200 L 1078 200 L 1078 234.3125 L 1054.078125 234.3125 Z M 1054.078125 200 " clip-rule="nonzero"/></clipPath><clipPath id="b496b0cb58"><path d="M 1066 175 L 1130 175 L 1130 234.3125 L 1066 234.3125 Z M 1066 175 " clip-rule="nonzero"/></clipPath></defs><g clip-path="url(#4f57569c4e)"><path fill="#ffffff" d="M 871.972656 181.308594 C 871.972656 181.765625 871.570312 182.457031 870.472656 183.261719 L 870.472656 176.890625 C 871.015625 176.597656 871.519531 176.296875 871.972656 175.980469 Z M 866.6875 178.523438 C 866.933594 178.4375 867.179688 178.351562 867.414062 178.261719 L 867.414062 184.910156 C 867.183594 185.007812 866.941406 185.105469 866.6875 185.203125 Z M 862.90625 179.675781 C 863.152344 179.613281 863.394531 179.546875 863.632812 179.480469 L 863.632812 186.230469 C 863.398438 186.300781 863.15625 186.367188 862.90625 186.4375 Z M 859.125 180.550781 C 859.367188 180.503906 859.613281 180.453125 859.851562 180.402344 L 859.851562 187.195312 C 859.613281 187.246094 859.367188 187.296875 859.125 187.347656 Z M 859.878906 196.414062 C 859.878906 197.496094 857.640625 199.882812 849.253906 201.949219 C 841.769531 203.796875 831.796875 204.8125 821.167969 204.8125 C 819.613281 204.8125 818.078125 204.789062 816.554688 204.746094 C 836.597656 204.578125 856.4375 200.75 856.941406 193.578125 C 859.140625 194.746094 859.878906 195.792969 859.878906 196.414062 Z M 859.878906 206.339844 C 859.878906 206.800781 859.472656 207.492188 858.375 208.292969 L 858.375 201.921875 C 858.917969 201.628906 859.425781 201.328125 859.878906 201.015625 Z M 856.390625 222.398438 C 856.390625 222.855469 855.984375 223.550781 854.886719 224.351562 L 854.886719 217.980469 C 855.429688 217.6875 855.9375 217.386719 856.390625 217.070312 Z M 851.105469 219.613281 C 851.351562 219.527344 851.59375 219.441406 851.832031 219.347656 L 851.832031 226 C 851.597656 226.097656 851.359375 226.195312 851.105469 226.292969 Z M 847.320312 220.765625 C 847.570312 220.703125 847.808594 220.636719 848.050781 220.570312 L 848.050781 227.320312 C 847.8125 227.390625 847.570312 227.457031 847.320312 227.527344 Z M 843.539062 221.640625 C 843.785156 221.589844 844.027344 221.542969 844.265625 221.492188 L 844.265625 228.285156 C 844.03125 228.335938 843.785156 228.386719 843.539062 228.4375 Z M 839.757812 222.324219 C 840 222.285156 840.246094 222.246094 840.484375 222.207031 L 840.484375 229.027344 C 840.242188 229.070312 840.003906 229.113281 839.757812 229.152344 Z M 799.371094 229.703125 L 799.371094 222.855469 C 805.105469 223.5625 811.402344 223.925781 817.679688 223.925781 C 824.21875 223.925781 830.78125 223.535156 836.703125 222.765625 L 836.703125 229.605469 C 830.941406 230.382812 824.445312 230.796875 817.679688 230.796875 C 811.191406 230.796875 804.953125 230.417969 799.371094 229.703125 Z M 795.585938 222.320312 C 795.828125 222.359375 796.070312 222.398438 796.316406 222.433594 L 796.316406 229.265625 C 796.074219 229.226562 795.828125 229.191406 795.585938 229.152344 Z M 791.804688 221.640625 C 792.046875 221.6875 792.289062 221.738281 792.53125 221.785156 L 792.53125 228.589844 C 792.285156 228.542969 792.050781 228.488281 791.804688 228.4375 Z M 788.023438 220.765625 C 788.265625 220.828125 788.503906 220.890625 788.75 220.953125 L 788.75 227.71875 C 788.503906 227.65625 788.261719 227.589844 788.023438 227.523438 Z M 784.242188 219.609375 C 784.480469 219.695312 784.722656 219.777344 784.96875 219.859375 L 784.96875 226.5625 C 784.714844 226.472656 784.476562 226.378906 784.242188 226.289062 Z M 778.96875 222.398438 L 778.96875 217.070312 C 779.617188 217.519531 780.359375 217.941406 781.1875 218.34375 L 781.1875 224.828125 C 779.539062 223.824219 778.96875 222.945312 778.96875 222.398438 Z M 781.261719 209.996094 C 786.839844 215.128906 804.085938 217.796875 821.167969 217.796875 C 834.773438 217.796875 848.488281 216.105469 856.324219 212.820312 C 855.898438 214.011719 853.339844 216.140625 845.765625 218.007812 C 838.28125 219.855469 828.308594 220.871094 817.679688 220.871094 C 807.050781 220.871094 797.074219 219.855469 789.59375 218.007812 C 781.730469 216.066406 779.273438 213.851562 778.992188 212.6875 C 778.976562 212.609375 778.96875 212.539062 778.96875 212.472656 C 778.96875 211.914062 779.558594 211.019531 781.261719 209.996094 Z M 776.472656 193.296875 L 776.472656 187.972656 C 777.125 188.417969 777.871094 188.84375 778.695312 189.246094 L 778.695312 195.726562 C 777.046875 194.722656 776.472656 193.84375 776.472656 193.296875 Z M 787.097656 177.832031 C 788.484375 177.492188 789.953125 177.179688 791.496094 176.898438 L 791.496094 181.308594 C 791.496094 186.636719 802.042969 190.164062 815.574219 191.765625 C 815.445312 191.765625 815.316406 191.769531 815.1875 191.769531 C 804.558594 191.769531 794.582031 190.753906 787.097656 188.90625 C 782.914062 187.875 780.261719 186.765625 778.652344 185.773438 C 778.648438 185.773438 778.644531 185.769531 778.640625 185.769531 C 778.585938 185.734375 778.53125 185.699219 778.476562 185.664062 C 778.433594 185.636719 778.394531 185.609375 778.351562 185.582031 C 778.347656 185.582031 778.34375 185.578125 778.335938 185.574219 C 776.964844 184.667969 776.472656 183.875 776.472656 183.371094 C 776.472656 182.289062 778.710938 179.902344 787.097656 177.832031 Z M 781.035156 167.945312 L 781.035156 162.621094 C 781.683594 163.066406 782.425781 163.488281 783.253906 163.894531 L 783.253906 170.375 C 781.605469 169.371094 781.035156 168.492188 781.035156 167.945312 Z M 791.65625 152.480469 C 799.140625 150.636719 809.117188 149.617188 819.746094 149.617188 C 830.375 149.617188 840.347656 150.636719 847.832031 152.480469 C 856.21875 154.550781 858.457031 156.933594 858.457031 158.019531 C 858.457031 159.101562 856.21875 161.488281 847.832031 163.554688 C 840.347656 165.402344 830.375 166.417969 819.746094 166.417969 C 818.304688 166.417969 816.878906 166.398438 815.46875 166.359375 C 814.832031 166.34375 814.195312 166.324219 813.5625 166.300781 C 805.289062 165.984375 797.667969 165.035156 791.65625 163.554688 C 783.269531 161.488281 781.035156 159.101562 781.035156 158.019531 C 781.035156 156.933594 783.269531 154.550781 791.65625 152.480469 Z M 852.394531 191.589844 C 852.898438 191.519531 853.402344 191.453125 853.898438 191.382812 L 853.898438 193.296875 C 853.898438 193.757812 853.492188 194.449219 852.394531 195.25 Z M 848.613281 192.023438 C 848.855469 192 849.097656 191.972656 849.339844 191.949219 L 849.339844 196.898438 C 849.109375 196.996094 848.863281 197.09375 848.613281 197.191406 Z M 844.832031 192.347656 C 845.074219 192.332031 845.316406 192.3125 845.558594 192.292969 L 845.558594 198.21875 C 845.320312 198.289062 845.078125 198.359375 844.832031 198.425781 Z M 841.050781 192.578125 C 841.289062 192.566406 841.535156 192.554688 841.777344 192.539062 L 841.777344 199.183594 C 841.535156 199.238281 841.289062 199.289062 841.050781 199.339844 Z M 837.265625 193.222656 C 837.511719 193.183594 837.753906 193.144531 837.992188 193.105469 L 837.992188 199.925781 C 837.75 199.96875 837.511719 200.011719 837.265625 200.050781 Z M 856.070312 181.117188 L 856.070312 187.9375 C 855.828125 187.976562 855.589844 188.019531 855.34375 188.0625 L 855.34375 181.234375 C 855.585938 181.195312 855.828125 181.15625 856.070312 181.117188 Z M 814.953125 181.765625 C 820.6875 182.476562 826.984375 182.835938 833.261719 182.835938 C 839.800781 182.835938 846.363281 182.445312 852.285156 181.675781 L 852.285156 188.519531 C 846.527344 189.292969 840.027344 189.707031 833.261719 189.707031 C 826.777344 189.707031 820.535156 189.328125 814.953125 188.613281 Z M 811.171875 181.230469 C 811.414062 181.269531 811.65625 181.308594 811.898438 181.34375 L 811.898438 188.175781 C 811.65625 188.136719 811.410156 188.101562 811.171875 188.0625 Z M 807.390625 180.550781 C 807.632812 180.597656 807.871094 180.648438 808.117188 180.695312 L 808.117188 187.503906 C 807.871094 187.453125 807.632812 187.398438 807.390625 187.347656 Z M 803.609375 179.675781 C 803.847656 179.738281 804.085938 179.800781 804.335938 179.863281 L 804.335938 186.628906 C 804.085938 186.566406 803.84375 186.5 803.609375 186.433594 Z M 799.824219 178.519531 C 800.0625 178.605469 800.304688 178.6875 800.550781 178.769531 L 800.550781 185.472656 C 800.300781 185.382812 800.058594 185.289062 799.824219 185.199219 Z M 794.550781 177.25 C 795.277344 177.390625 796.015625 177.523438 796.769531 177.652344 L 796.769531 183.738281 C 795.125 182.734375 794.550781 181.855469 794.550781 181.308594 Z M 790.089844 166.3125 C 790.332031 166.375 790.570312 166.4375 790.816406 166.5 L 790.816406 173.265625 C 790.570312 173.203125 790.328125 173.136719 790.089844 173.070312 Z M 786.308594 165.160156 C 786.546875 165.242188 786.789062 165.328125 787.035156 165.410156 L 787.035156 172.109375 C 786.78125 172.019531 786.542969 171.925781 786.308594 171.835938 Z M 798.382812 174.8125 C 798.136719 174.777344 797.894531 174.738281 797.65625 174.699219 L 797.65625 167.867188 C 797.894531 167.90625 798.136719 167.945312 798.382812 167.984375 Z M 793.871094 167.1875 C 794.113281 167.234375 794.355469 167.285156 794.601562 167.332031 L 794.601562 174.136719 C 794.351562 174.089844 794.113281 174.035156 793.871094 173.984375 Z M 838.769531 175.15625 C 833.007812 175.933594 826.511719 176.34375 819.746094 176.34375 C 813.257812 176.34375 807.019531 175.964844 801.4375 175.25 L 801.4375 168.402344 C 807.171875 169.109375 813.46875 169.472656 819.746094 169.472656 C 826.28125 169.472656 832.84375 169.082031 838.769531 168.3125 Z M 842.550781 174.574219 C 842.308594 174.617188 842.070312 174.660156 841.824219 174.699219 L 841.824219 167.871094 C 842.066406 167.832031 842.3125 167.792969 842.550781 167.753906 Z M 846.335938 173.832031 C 846.097656 173.886719 845.851562 173.9375 845.605469 173.988281 L 845.605469 167.191406 C 845.851562 167.140625 846.09375 167.089844 846.335938 167.039062 Z M 850.117188 172.867188 C 849.878906 172.9375 849.636719 173.007812 849.390625 173.074219 L 849.390625 166.316406 C 849.632812 166.25 849.875 166.1875 850.117188 166.121094 Z M 853.898438 171.546875 C 853.664062 171.644531 853.421875 171.742188 853.171875 171.839844 L 853.171875 165.164062 C 853.417969 165.074219 853.660156 164.988281 853.898438 164.898438 Z M 858.457031 162.621094 L 858.457031 167.945312 C 858.457031 168.402344 858.054688 169.097656 856.953125 169.898438 L 856.953125 163.527344 C 857.496094 163.234375 858.003906 162.933594 858.457031 162.621094 Z M 796.878906 200.601562 L 796.878906 193.753906 C 802.613281 194.464844 808.910156 194.824219 815.1875 194.824219 C 821.722656 194.824219 828.285156 194.433594 834.210938 193.664062 L 834.210938 200.507812 C 828.449219 201.285156 821.953125 201.695312 815.1875 201.695312 C 808.699219 201.695312 802.460938 201.316406 796.878906 200.601562 Z M 799.078125 206.261719 C 799.320312 206.300781 799.558594 206.339844 799.804688 206.375 L 799.804688 213.207031 C 799.5625 213.171875 799.316406 213.132812 799.078125 213.09375 Z M 795.296875 205.582031 C 795.535156 205.628906 795.777344 205.679688 796.023438 205.726562 L 796.023438 212.535156 C 795.777344 212.484375 795.535156 212.433594 795.296875 212.378906 Z M 791.511719 204.707031 C 791.753906 204.769531 791.992188 204.835938 792.238281 204.894531 L 792.238281 211.664062 C 791.992188 211.597656 791.75 211.53125 791.511719 211.464844 Z M 787.730469 203.554688 C 787.96875 203.636719 788.210938 203.722656 788.457031 203.804688 L 788.457031 210.503906 C 788.207031 210.414062 787.964844 210.324219 787.730469 210.230469 Z M 786.257812 198.621094 C 786.011719 198.554688 785.769531 198.488281 785.53125 198.421875 L 785.53125 191.664062 C 785.773438 191.726562 786.011719 191.792969 786.257812 191.851562 Z M 790.039062 199.492188 C 789.792969 199.441406 789.554688 199.386719 789.3125 199.335938 L 789.3125 192.539062 C 789.554688 192.585938 789.796875 192.636719 790.039062 192.683594 Z M 793.824219 200.164062 C 793.582031 200.125 793.335938 200.089844 793.097656 200.050781 L 793.097656 193.21875 C 793.335938 193.257812 793.578125 193.296875 793.824219 193.332031 Z M 781.75 190.511719 C 781.988281 190.59375 782.230469 190.679688 782.476562 190.761719 L 782.476562 197.460938 C 782.222656 197.371094 781.984375 197.28125 781.75 197.1875 Z M 782.457031 206.339844 L 782.457031 201.015625 C 783.105469 201.460938 783.851562 201.886719 784.675781 202.289062 L 784.675781 208.769531 C 783.03125 207.765625 782.457031 206.886719 782.457031 206.339844 Z M 840.191406 213.550781 C 834.429688 214.328125 827.933594 214.738281 821.167969 214.738281 C 814.679688 214.738281 808.441406 214.359375 802.859375 213.644531 L 802.859375 206.796875 C 808.59375 207.507812 814.890625 207.867188 821.167969 207.867188 C 827.707031 207.867188 834.269531 207.476562 840.191406 206.707031 Z M 843.972656 212.96875 C 843.734375 213.011719 843.496094 213.054688 843.25 213.097656 L 843.25 206.265625 C 843.492188 206.226562 843.734375 206.1875 843.972656 206.148438 Z M 847.757812 212.226562 C 847.519531 212.28125 847.273438 212.332031 847.03125 212.382812 L 847.03125 205.585938 C 847.273438 205.535156 847.519531 205.484375 847.757812 205.433594 Z M 851.539062 211.261719 C 851.300781 211.332031 851.0625 211.402344 850.8125 211.46875 L 850.8125 204.710938 C 851.054688 204.644531 851.300781 204.582031 851.539062 204.511719 Z M 855.320312 209.941406 C 855.089844 210.039062 854.847656 210.136719 854.59375 210.234375 L 854.59375 203.558594 C 854.839844 203.46875 855.085938 203.382812 855.320312 203.292969 Z M 871.972656 171.382812 C 871.972656 172.464844 869.734375 174.847656 861.351562 176.917969 C 856.789062 178.042969 851.304688 178.859375 845.308594 179.324219 C 843.925781 179.433594 842.515625 179.523438 841.082031 179.59375 C 838.535156 179.714844 835.917969 179.78125 833.261719 179.78125 C 831.824219 179.78125 830.398438 179.757812 828.988281 179.722656 C 826.605469 179.660156 824.273438 179.546875 822.011719 179.382812 C 842 179.109375 861.511719 175.191406 861.511719 167.945312 L 861.511719 165.886719 C 869.761719 167.945312 871.972656 170.304688 871.972656 171.382812 Z M 875.027344 171.382812 C 875.027344 167.554688 869.585938 164.65625 861.511719 162.734375 L 861.511719 158.019531 C 861.511719 150.496094 840.5 146.5625 819.746094 146.5625 C 798.988281 146.5625 777.976562 150.496094 777.976562 158.019531 L 777.976562 167.945312 C 777.976562 170.8125 781.035156 173.15625 785.964844 174.964844 C 778.425781 176.886719 773.417969 179.699219 773.417969 183.371094 L 773.417969 193.296875 C 773.417969 195.753906 775.660156 197.824219 779.402344 199.503906 L 779.402344 206.339844 C 779.402344 206.730469 779.460938 207.109375 779.570312 207.476562 C 777.246094 208.910156 775.910156 210.578125 775.910156 212.472656 L 775.910156 222.398438 C 775.910156 229.917969 796.921875 233.851562 817.679688 233.851562 C 838.433594 233.851562 859.445312 229.917969 859.445312 222.398438 L 859.445312 212.472656 C 859.445312 212.082031 859.386719 211.703125 859.277344 211.332031 C 861.601562 209.898438 862.933594 208.234375 862.933594 206.339844 L 862.933594 196.414062 C 862.933594 194.195312 861.105469 192.289062 857.992188 190.703125 C 867.96875 188.820312 875.027344 185.667969 875.027344 181.308594 L 875.027344 171.382812 " fill-opacity="1" fill-rule="nonzero"/></g><g clip-path="url(#1021da4071)"><path fill="#fffffd" d="M 1137.457031 150.914062 C 1135.890625 149.351562 1133.726562 148.386719 1131.339844 148.386719 C 1128.949219 148.386719 1126.785156 149.351562 1125.222656 150.914062 C 1123.65625 152.476562 1122.6875 154.632812 1122.6875 157.015625 C 1122.6875 161.492188 1128.683594 170.15625 1131.328125 173.84375 L 1131.332031 173.835938 C 1134.121094 169.871094 1139.992188 161.527344 1139.992188 157.015625 C 1139.992188 154.632812 1139.023438 152.476562 1137.457031 150.914062 Z M 1131.339844 146.5625 C 1134.230469 146.5625 1136.851562 147.734375 1138.75 149.625 C 1140.644531 151.515625 1141.816406 154.128906 1141.816406 157.015625 C 1141.816406 162.097656 1135.722656 170.761719 1132.824219 174.882812 C 1132.496094 175.351562 1132.203125 175.769531 1132.089844 175.933594 L 1131.339844 175.414062 L 1132.089844 175.933594 C 1131.804688 176.347656 1131.234375 176.453125 1130.820312 176.164062 C 1130.707031 176.089844 1130.617188 175.992188 1130.554688 175.882812 L 1130.488281 175.792969 C 1128.285156 172.746094 1120.859375 162.480469 1120.859375 157.015625 C 1120.859375 154.128906 1122.03125 151.515625 1123.929688 149.625 C 1125.824219 147.734375 1128.445312 146.5625 1131.339844 146.5625 " fill-opacity="1" fill-rule="nonzero"/></g><path fill="#fffffd" d="M 1133.109375 154.570312 C 1132.65625 154.117188 1132.03125 153.839844 1131.339844 153.839844 C 1130.648438 153.839844 1130.023438 154.117188 1129.570312 154.570312 C 1129.117188 155.019531 1128.835938 155.644531 1128.835938 156.335938 C 1128.835938 157.023438 1129.117188 157.648438 1129.570312 158.097656 C 1130.023438 158.550781 1130.648438 158.828125 1131.339844 158.828125 C 1132.03125 158.828125 1132.65625 158.550781 1133.109375 158.097656 C 1133.558594 157.648438 1133.839844 157.023438 1133.839844 156.335938 C 1133.839844 155.644531 1133.558594 155.019531 1133.109375 154.570312 Z M 1131.339844 152.015625 C 1132.535156 152.015625 1133.617188 152.5 1134.398438 153.28125 C 1135.183594 154.0625 1135.667969 155.140625 1135.667969 156.335938 C 1135.667969 157.527344 1135.183594 158.605469 1134.398438 159.386719 C 1133.617188 160.167969 1132.535156 160.652344 1131.339844 160.652344 C 1130.144531 160.652344 1129.058594 160.167969 1128.277344 159.386719 C 1127.492188 158.605469 1127.007812 157.527344 1127.007812 156.335938 C 1127.007812 155.140625 1127.492188 154.0625 1128.277344 153.28125 C 1129.058594 152.5 1130.144531 152.015625 1131.339844 152.015625 " fill-opacity="1" fill-rule="nonzero"/><g clip-path="url(#d61b0662c9)"><path fill="#fffffd" d="M 1072.867188 205.417969 C 1071.070312 203.625 1068.585938 202.519531 1065.84375 202.519531 C 1063.105469 202.519531 1060.621094 203.625 1058.824219 205.417969 C 1057.03125 207.210938 1055.917969 209.6875 1055.917969 212.421875 C 1055.917969 217.585938 1062.886719 227.601562 1065.832031 231.703125 L 1065.9375 231.554688 C 1069.105469 227.050781 1075.773438 217.574219 1075.773438 212.421875 C 1075.773438 209.6875 1074.664062 207.210938 1072.867188 205.417969 Z M 1065.84375 200.695312 C 1069.089844 200.695312 1072.03125 202.007812 1074.15625 204.128906 C 1076.285156 206.25 1077.601562 209.183594 1077.601562 212.421875 C 1077.601562 218.144531 1070.707031 227.941406 1067.429688 232.601562 C 1067.066406 233.121094 1066.738281 233.582031 1066.59375 233.792969 L 1065.84375 233.277344 L 1066.597656 233.792969 C 1066.3125 234.207031 1065.742188 234.3125 1065.328125 234.027344 C 1065.214844 233.949219 1065.125 233.851562 1065.058594 233.742188 L 1064.980469 233.632812 C 1062.488281 230.1875 1054.089844 218.578125 1054.089844 212.421875 C 1054.089844 209.183594 1055.40625 206.25 1057.535156 204.128906 C 1059.660156 202.007812 1062.601562 200.695312 1065.84375 200.695312 " fill-opacity="1" fill-rule="nonzero"/></g><path fill="#fffffd" d="M 1067.9375 209.5625 C 1067.402344 209.027344 1066.664062 208.699219 1065.847656 208.699219 C 1065.027344 208.699219 1064.289062 209.027344 1063.753906 209.5625 C 1063.21875 210.09375 1062.886719 210.832031 1062.886719 211.648438 C 1062.886719 212.460938 1063.21875 213.199219 1063.753906 213.734375 C 1064.289062 214.269531 1065.027344 214.597656 1065.847656 214.597656 C 1066.664062 214.597656 1067.402344 214.269531 1067.9375 213.734375 C 1068.472656 213.199219 1068.804688 212.460938 1068.804688 211.648438 C 1068.804688 210.832031 1068.472656 210.09375 1067.9375 209.5625 Z M 1065.847656 206.875 C 1067.167969 206.875 1068.363281 207.410156 1069.230469 208.273438 C 1070.09375 209.136719 1070.632812 210.332031 1070.632812 211.648438 C 1070.632812 212.964844 1070.09375 214.160156 1069.230469 215.023438 C 1068.363281 215.886719 1067.167969 216.421875 1065.847656 216.421875 C 1064.523438 216.421875 1063.328125 215.886719 1062.460938 215.023438 C 1061.597656 214.160156 1061.058594 212.964844 1061.058594 211.648438 C 1061.058594 210.332031 1061.597656 209.136719 1062.460938 208.273438 C 1063.328125 207.410156 1064.523438 206.875 1065.847656 206.875 " fill-opacity="1" fill-rule="nonzero"/><g clip-path="url(#b496b0cb58)"><path fill="#fffffd" d="M 1119.851562 176.21875 C 1119.308594 176.117188 1118.800781 176.523438 1118.773438 177.074219 C 1118.753906 177.527344 1119.074219 177.929688 1119.523438 178.011719 L 1119.535156 178.015625 L 1119.585938 178.023438 L 1119.640625 178.03125 L 1119.695312 178.042969 L 1119.746094 178.050781 L 1119.800781 178.058594 L 1119.851562 178.066406 L 1119.90625 178.078125 L 1119.957031 178.082031 L 1120.011719 178.09375 L 1120.0625 178.097656 L 1120.113281 178.105469 L 1120.167969 178.113281 L 1120.21875 178.121094 L 1120.269531 178.125 L 1120.324219 178.132812 L 1120.375 178.140625 L 1120.425781 178.144531 L 1120.480469 178.152344 L 1120.53125 178.15625 L 1120.582031 178.164062 L 1120.632812 178.167969 L 1120.6875 178.171875 L 1120.738281 178.175781 L 1120.789062 178.183594 L 1120.992188 178.199219 L 1121.042969 178.199219 L 1121.195312 178.210938 L 1121.398438 178.21875 L 1121.449219 178.222656 L 1121.472656 178.222656 C 1122.25 178.25 1122.707031 177.34375 1122.214844 176.738281 C 1122.042969 176.53125 1121.804688 176.410156 1121.535156 176.402344 L 1121.519531 176.398438 L 1121.429688 176.398438 L 1121.386719 176.394531 L 1121.34375 176.394531 L 1121.296875 176.390625 L 1121.253906 176.386719 L 1121.210938 176.386719 L 1121.167969 176.382812 L 1121.121094 176.378906 L 1121.035156 176.371094 L 1120.988281 176.367188 L 1120.945312 176.367188 L 1120.898438 176.363281 L 1120.855469 176.355469 L 1120.769531 176.347656 L 1120.679688 176.339844 L 1120.632812 176.332031 L 1120.585938 176.328125 L 1120.542969 176.324219 L 1120.5 176.316406 L 1120.453125 176.3125 L 1120.40625 176.304688 L 1120.363281 176.300781 L 1120.320312 176.292969 L 1120.273438 176.289062 L 1120.226562 176.28125 L 1120.183594 176.273438 L 1120.136719 176.265625 L 1120.046875 176.253906 L 1120 176.246094 L 1119.957031 176.238281 L 1119.863281 176.222656 Z M 1112.445312 175.292969 C 1112.078125 175.304688 1111.769531 175.511719 1111.621094 175.847656 C 1111.363281 176.457031 1111.8125 177.125 1112.472656 177.117188 L 1112.683594 177.117188 L 1112.746094 177.113281 L 1112.996094 177.113281 L 1113.058594 177.117188 L 1113.308594 177.117188 L 1113.371094 177.121094 L 1113.496094 177.121094 L 1113.558594 177.125 L 1113.621094 177.125 L 1113.679688 177.128906 L 1113.742188 177.128906 L 1113.804688 177.132812 L 1113.867188 177.132812 L 1113.929688 177.136719 L 1113.988281 177.140625 L 1114.050781 177.140625 L 1114.113281 177.144531 L 1114.171875 177.148438 L 1114.234375 177.152344 L 1114.238281 177.152344 C 1115.066406 177.1875 1115.519531 176.210938 1114.945312 175.609375 C 1114.777344 175.441406 1114.574219 175.34375 1114.335938 175.332031 L 1114.328125 175.332031 L 1114.265625 175.328125 L 1114.066406 175.316406 L 1113.9375 175.3125 L 1113.871094 175.308594 L 1113.804688 175.308594 L 1113.738281 175.304688 L 1113.671875 175.304688 L 1113.605469 175.300781 L 1113.472656 175.300781 L 1113.40625 175.296875 L 1113.339844 175.296875 L 1113.273438 175.292969 Z M 1104.917969 176.964844 C 1104.191406 177.410156 1104.410156 178.507812 1105.253906 178.644531 C 1105.46875 178.675781 1105.679688 178.636719 1105.867188 178.523438 L 1105.871094 178.519531 L 1105.910156 178.496094 L 1105.949219 178.476562 L 1106.027344 178.429688 L 1106.066406 178.410156 L 1106.105469 178.386719 L 1106.144531 178.367188 L 1106.183594 178.34375 L 1106.226562 178.324219 L 1106.265625 178.304688 L 1106.308594 178.28125 L 1106.394531 178.242188 L 1106.4375 178.21875 L 1106.566406 178.160156 L 1106.613281 178.140625 L 1106.65625 178.121094 L 1106.703125 178.101562 L 1106.746094 178.082031 L 1106.792969 178.066406 L 1106.886719 178.027344 L 1106.933594 178.011719 L 1107.027344 177.972656 L 1107.125 177.9375 L 1107.175781 177.921875 L 1107.222656 177.902344 L 1107.273438 177.886719 L 1107.34375 177.863281 C 1108.164062 177.585938 1108.179688 176.4375 1107.367188 176.140625 C 1107.171875 176.070312 1106.964844 176.066406 1106.769531 176.132812 L 1106.738281 176.140625 L 1106.679688 176.160156 L 1106.621094 176.183594 L 1106.503906 176.222656 L 1106.445312 176.246094 L 1106.386719 176.265625 L 1106.332031 176.289062 L 1106.273438 176.308594 L 1106.214844 176.332031 L 1106.160156 176.355469 L 1106.101562 176.378906 L 1106.046875 176.398438 L 1105.988281 176.421875 L 1105.933594 176.449219 L 1105.769531 176.519531 L 1105.714844 176.546875 L 1105.660156 176.570312 L 1105.605469 176.597656 L 1105.550781 176.621094 L 1105.496094 176.648438 L 1105.445312 176.675781 L 1105.390625 176.703125 L 1105.339844 176.730469 L 1105.285156 176.757812 L 1105.234375 176.785156 L 1105.179688 176.8125 L 1105.128906 176.84375 L 1105.078125 176.871094 L 1105.027344 176.902344 L 1104.976562 176.929688 L 1104.925781 176.960938 Z M 1101.988281 184.117188 C 1101.910156 184.96875 1102.929688 185.453125 1103.542969 184.851562 C 1103.695312 184.699219 1103.785156 184.511719 1103.804688 184.296875 L 1103.808594 184.242188 L 1103.816406 184.191406 L 1103.824219 184.089844 L 1103.828125 184.035156 L 1103.855469 183.679688 L 1103.859375 183.632812 L 1103.863281 183.582031 L 1103.863281 183.53125 L 1103.867188 183.480469 L 1103.871094 183.433594 L 1103.875 183.382812 L 1103.875 183.332031 L 1103.878906 183.285156 L 1103.882812 183.234375 L 1103.886719 183.1875 L 1103.886719 183.140625 L 1103.890625 183.089844 L 1103.894531 183.042969 L 1103.894531 182.996094 L 1103.898438 182.945312 L 1103.902344 182.898438 L 1103.902344 182.851562 L 1103.910156 182.757812 L 1103.910156 182.710938 L 1103.921875 182.570312 L 1103.921875 182.527344 L 1103.925781 182.480469 L 1103.925781 182.449219 C 1103.945312 182.128906 1103.804688 181.828125 1103.542969 181.644531 C 1102.957031 181.234375 1102.152344 181.617188 1102.101562 182.328125 L 1102.101562 182.363281 L 1102.097656 182.414062 L 1102.09375 182.460938 L 1102.09375 182.507812 L 1102.089844 182.558594 L 1102.085938 182.605469 L 1102.085938 182.65625 L 1102.078125 182.75 L 1102.074219 182.800781 L 1102.074219 182.847656 L 1102.070312 182.894531 L 1102.066406 182.992188 L 1102.0625 183.039062 L 1102.058594 183.132812 L 1102.054688 183.183594 L 1102.050781 183.230469 L 1102.050781 183.277344 L 1102.039062 183.417969 L 1102.039062 183.464844 L 1102.035156 183.511719 L 1102.03125 183.5625 L 1102.027344 183.605469 L 1102.027344 183.652344 L 1102 183.980469 L 1101.996094 184.023438 Z M 1098.640625 189.332031 C 1098.347656 189.519531 1098.1875 189.84375 1098.21875 190.1875 C 1098.285156 190.867188 1099.035156 191.234375 1099.617188 190.875 L 1099.625 190.867188 L 1099.703125 190.820312 L 1099.78125 190.769531 L 1099.855469 190.722656 L 1099.933594 190.671875 L 1100.007812 190.621094 L 1100.078125 190.570312 L 1100.152344 190.519531 L 1100.433594 190.316406 L 1100.5 190.265625 L 1100.570312 190.214844 L 1100.632812 190.164062 L 1100.765625 190.0625 L 1100.828125 190.007812 L 1100.953125 189.90625 L 1101.015625 189.851562 L 1101.074219 189.800781 L 1101.136719 189.746094 L 1101.195312 189.695312 L 1101.207031 189.683594 C 1101.777344 189.160156 1101.476562 188.214844 1100.710938 188.109375 C 1100.433594 188.074219 1100.175781 188.15625 1099.96875 188.339844 L 1099.96875 188.34375 L 1099.921875 188.386719 L 1099.871094 188.429688 L 1099.824219 188.472656 L 1099.773438 188.511719 L 1099.671875 188.597656 L 1099.398438 188.8125 L 1099.164062 188.984375 L 1099.101562 189.027344 L 1099.042969 189.070312 L 1098.980469 189.113281 L 1098.914062 189.15625 L 1098.851562 189.199219 L 1098.71875 189.285156 L 1098.648438 189.328125 Z M 1092.324219 189.296875 C 1091.605469 189.09375 1090.957031 189.800781 1091.222656 190.5 C 1091.328125 190.769531 1091.542969 190.96875 1091.824219 191.050781 L 1091.90625 191.074219 L 1092.007812 191.101562 L 1092.113281 191.132812 L 1092.214844 191.160156 L 1092.320312 191.1875 L 1092.421875 191.214844 L 1092.527344 191.246094 L 1092.734375 191.296875 L 1092.9375 191.351562 L 1093.039062 191.375 L 1093.140625 191.402344 L 1093.246094 191.425781 L 1093.652344 191.519531 C 1094.464844 191.6875 1095.066406 190.789062 1094.59375 190.101562 C 1094.457031 189.914062 1094.269531 189.785156 1094.039062 189.738281 L 1093.949219 189.714844 L 1093.855469 189.695312 L 1093.761719 189.671875 L 1093.667969 189.652344 L 1093.574219 189.628906 L 1093.476562 189.605469 L 1093.382812 189.582031 L 1093.285156 189.558594 L 1093.191406 189.53125 L 1093.09375 189.507812 L 1092.996094 189.480469 L 1092.898438 189.457031 L 1092.800781 189.429688 L 1092.699219 189.402344 L 1092.40625 189.320312 Z M 1087.0625 187.71875 L 1086.589844 189.476562 Z M 1085.203125 187.300781 C 1084.851562 187.242188 1084.5 187.382812 1084.292969 187.675781 C 1083.914062 188.226562 1084.226562 188.972656 1084.882812 189.097656 L 1084.9375 189.105469 L 1085.109375 189.136719 L 1085.199219 189.15625 L 1085.289062 189.171875 L 1085.46875 189.210938 L 1085.558594 189.226562 L 1085.652344 189.25 L 1085.742188 189.269531 L 1085.835938 189.289062 L 1085.925781 189.3125 L 1086.019531 189.335938 L 1086.117188 189.359375 L 1086.398438 189.429688 L 1086.496094 189.453125 L 1086.589844 189.476562 L 1086.589844 189.480469 C 1087.429688 189.695312 1088.070312 188.753906 1087.558594 188.050781 C 1087.433594 187.886719 1087.261719 187.773438 1087.0625 187.71875 L 1087.058594 187.714844 L 1086.957031 187.691406 L 1086.753906 187.636719 L 1086.652344 187.613281 L 1086.550781 187.585938 L 1086.449219 187.5625 L 1086.351562 187.539062 L 1086.046875 187.46875 L 1085.949219 187.445312 L 1085.847656 187.425781 L 1085.75 187.40625 L 1085.648438 187.382812 L 1085.550781 187.363281 L 1085.453125 187.347656 L 1085.351562 187.328125 L 1085.253906 187.308594 Z M 1079.375 189.238281 L 1080.976562 190.113281 Z M 1078.773438 191.300781 C 1078.726562 191.660156 1078.894531 192.003906 1079.199219 192.195312 C 1079.765625 192.539062 1080.503906 192.1875 1080.585938 191.535156 L 1080.59375 191.460938 L 1080.605469 191.371094 L 1080.621094 191.28125 L 1080.632812 191.195312 L 1080.664062 191.03125 L 1080.683594 190.949219 L 1080.703125 190.871094 L 1080.71875 190.796875 L 1080.738281 190.722656 L 1080.761719 190.652344 L 1080.78125 190.585938 L 1080.828125 190.453125 L 1080.851562 190.390625 L 1080.898438 190.273438 L 1080.953125 190.164062 L 1080.976562 190.113281 L 1080.976562 190.109375 C 1081.136719 189.816406 1081.125 189.464844 1080.945312 189.183594 C 1080.574219 188.601562 1079.707031 188.628906 1079.375 189.238281 L 1079.355469 189.273438 L 1079.308594 189.359375 L 1079.265625 189.449219 L 1079.226562 189.542969 L 1079.183594 189.636719 L 1079.148438 189.730469 L 1079.109375 189.828125 L 1079.074219 189.925781 L 1078.980469 190.230469 L 1078.925781 190.441406 L 1078.898438 190.550781 L 1078.875 190.660156 L 1078.855469 190.769531 L 1078.832031 190.882812 L 1078.816406 190.996094 L 1078.796875 191.113281 L 1078.78125 191.230469 Z M 1079.5 198.824219 C 1079.660156 199.628906 1080.707031 199.835938 1081.164062 199.148438 C 1081.292969 198.945312 1081.339844 198.714844 1081.292969 198.476562 L 1081.292969 198.460938 L 1081.273438 198.367188 L 1081.234375 198.171875 L 1081.21875 198.078125 L 1081.199219 197.980469 L 1081.183594 197.886719 L 1081.148438 197.695312 L 1081.132812 197.597656 L 1081.113281 197.503906 L 1081.082031 197.316406 L 1081.050781 197.125 L 1081.035156 197.035156 L 1080.988281 196.753906 L 1080.980469 196.714844 C 1080.847656 195.882812 1079.761719 195.660156 1079.304688 196.371094 C 1079.1875 196.5625 1079.144531 196.773438 1079.175781 197 L 1079.183594 197.042969 L 1079.199219 197.136719 L 1079.246094 197.429688 L 1079.265625 197.527344 L 1079.3125 197.820312 L 1079.332031 197.917969 L 1079.347656 198.015625 L 1079.367188 198.113281 L 1079.386719 198.214844 L 1079.402344 198.3125 L 1079.421875 198.410156 L 1079.441406 198.511719 L 1079.460938 198.609375 L 1079.476562 198.710938 L 1079.496094 198.808594 Z M 1081.433594 205.992188 C 1081.730469 206.796875 1082.859375 206.796875 1083.152344 205.996094 C 1083.226562 205.792969 1083.226562 205.585938 1083.15625 205.378906 L 1083.148438 205.355469 L 1083.113281 205.261719 L 1083.042969 205.066406 L 1083.011719 204.96875 L 1082.976562 204.871094 L 1082.945312 204.773438 L 1082.910156 204.675781 L 1082.847656 204.480469 L 1082.8125 204.382812 L 1082.71875 204.089844 L 1082.6875 203.988281 L 1082.59375 203.695312 L 1082.59375 203.691406 C 1082.496094 203.382812 1082.253906 203.148438 1081.9375 203.070312 C 1081.246094 202.90625 1080.640625 203.542969 1080.84375 204.222656 L 1080.847656 204.230469 L 1080.910156 204.4375 L 1080.945312 204.539062 L 1080.976562 204.644531 L 1081.011719 204.746094 L 1081.042969 204.847656 L 1081.078125 204.949219 L 1081.109375 205.050781 L 1081.144531 205.15625 L 1081.214844 205.359375 L 1081.246094 205.460938 L 1081.316406 205.664062 L 1081.355469 205.765625 L 1081.425781 205.96875 Z M 1084.777344 212.722656 C 1085.226562 213.371094 1086.242188 213.175781 1086.417969 212.40625 C 1086.476562 212.15625 1086.425781 211.894531 1086.277344 211.683594 L 1086.25 211.644531 L 1086.097656 211.421875 L 1086.046875 211.34375 L 1085.996094 211.269531 L 1085.945312 211.191406 L 1085.894531 211.117188 L 1085.84375 211.039062 L 1085.796875 210.960938 L 1085.695312 210.804688 L 1085.648438 210.722656 L 1085.597656 210.644531 L 1085.550781 210.5625 L 1085.503906 210.484375 L 1085.453125 210.402344 L 1085.34375 210.210938 C 1084.953125 209.539062 1083.960938 209.625 1083.6875 210.355469 C 1083.601562 210.613281 1083.621094 210.878906 1083.757812 211.117188 L 1083.777344 211.152344 L 1083.828125 211.238281 L 1083.878906 211.328125 L 1083.933594 211.414062 L 1083.984375 211.503906 L 1084.035156 211.589844 L 1084.144531 211.761719 L 1084.195312 211.847656 L 1084.359375 212.105469 L 1084.414062 212.1875 L 1084.46875 212.273438 L 1084.523438 212.355469 L 1084.582031 212.441406 L 1084.636719 212.523438 L 1084.695312 212.605469 L 1084.75 212.6875 Z M 1090.644531 217.640625 C 1091.386719 218.015625 1092.203125 217.277344 1091.90625 216.5 C 1091.824219 216.285156 1091.667969 216.117188 1091.464844 216.011719 L 1091.421875 215.992188 L 1091.351562 215.957031 L 1091.285156 215.921875 L 1091.214844 215.886719 L 1091.148438 215.851562 L 1090.9375 215.746094 L 1090.871094 215.710938 L 1090.800781 215.671875 L 1090.730469 215.636719 L 1090.660156 215.597656 L 1090.589844 215.5625 L 1090.515625 215.523438 L 1090.445312 215.484375 L 1090.375 215.449219 L 1090.304688 215.410156 L 1090.230469 215.371094 L 1090.160156 215.332031 L 1090.085938 215.289062 L 1090.015625 215.25 L 1089.949219 215.214844 L 1089.898438 215.183594 C 1089.195312 214.777344 1088.347656 215.425781 1088.554688 216.207031 C 1088.621094 216.441406 1088.769531 216.640625 1088.980469 216.761719 L 1089.046875 216.800781 L 1089.128906 216.84375 L 1089.203125 216.886719 L 1089.28125 216.929688 L 1089.355469 216.96875 L 1089.429688 217.011719 L 1089.503906 217.050781 L 1089.582031 217.089844 L 1089.65625 217.132812 L 1089.804688 217.210938 L 1089.875 217.25 L 1089.949219 217.289062 L 1090.023438 217.324219 L 1090.097656 217.363281 L 1090.242188 217.4375 L 1090.3125 217.476562 L 1090.386719 217.511719 L 1090.457031 217.546875 L 1090.527344 217.585938 L 1090.601562 217.621094 Z M 1097.25 220.671875 C 1098.011719 221.085938 1098.867188 220.320312 1098.535156 219.523438 C 1098.453125 219.328125 1098.316406 219.183594 1098.136719 219.078125 L 1098.09375 219.054688 L 1098.046875 219.03125 L 1098 219.003906 L 1097.953125 218.980469 L 1097.90625 218.953125 L 1097.859375 218.929688 L 1097.8125 218.902344 L 1097.71875 218.855469 L 1097.671875 218.828125 L 1097.621094 218.804688 L 1097.574219 218.78125 L 1097.527344 218.753906 L 1097.476562 218.730469 L 1097.429688 218.707031 L 1097.378906 218.683594 L 1097.332031 218.65625 L 1097.230469 218.609375 L 1097.183594 218.585938 L 1097.082031 218.539062 L 1097.035156 218.515625 L 1096.476562 218.257812 L 1096.429688 218.238281 C 1095.746094 217.929688 1095.003906 218.53125 1095.160156 219.261719 C 1095.222656 219.542969 1095.417969 219.78125 1095.679688 219.898438 L 1095.722656 219.921875 L 1095.773438 219.941406 L 1095.820312 219.964844 L 1095.871094 219.984375 L 1095.964844 220.03125 L 1096.015625 220.050781 L 1096.109375 220.097656 L 1096.15625 220.117188 L 1096.203125 220.140625 L 1096.25 220.160156 L 1096.34375 220.207031 L 1096.386719 220.226562 L 1096.480469 220.273438 L 1096.523438 220.292969 L 1096.566406 220.316406 L 1096.613281 220.335938 L 1096.699219 220.382812 L 1096.746094 220.402344 L 1096.832031 220.449219 L 1096.871094 220.46875 L 1096.957031 220.515625 L 1097.042969 220.558594 L 1097.082031 220.582031 L 1097.125 220.605469 L 1097.164062 220.625 Z M 1100.796875 225.621094 C 1100.800781 225.917969 1100.945312 226.1875 1101.1875 226.359375 C 1101.796875 226.785156 1102.632812 226.339844 1102.625 225.601562 L 1102.625 225.515625 L 1102.609375 225.25 L 1102.601562 225.179688 L 1102.578125 224.980469 L 1102.566406 224.914062 L 1102.554688 224.84375 L 1102.542969 224.777344 L 1102.527344 224.707031 L 1102.496094 224.574219 L 1102.480469 224.503906 L 1102.464844 224.4375 L 1102.445312 224.367188 L 1102.425781 224.300781 L 1102.402344 224.234375 L 1102.382812 224.164062 L 1102.359375 224.097656 L 1102.335938 224.027344 L 1102.308594 223.960938 L 1102.214844 223.710938 L 1102.191406 223.652344 L 1102.167969 223.589844 L 1102.144531 223.53125 L 1102.128906 223.5 C 1101.816406 222.753906 1100.75 222.757812 1100.441406 223.507812 C 1100.351562 223.734375 1100.347656 223.976562 1100.445312 224.203125 L 1100.453125 224.226562 L 1100.472656 224.277344 L 1100.515625 224.378906 L 1100.535156 224.429688 L 1100.554688 224.484375 L 1100.574219 224.535156 L 1100.59375 224.589844 L 1100.613281 224.636719 L 1100.644531 224.730469 L 1100.65625 224.773438 L 1100.671875 224.820312 L 1100.683594 224.867188 L 1100.699219 224.910156 L 1100.710938 224.953125 L 1100.71875 224.996094 L 1100.730469 225.039062 L 1100.738281 225.085938 L 1100.746094 225.125 L 1100.757812 225.167969 L 1100.761719 225.210938 L 1100.769531 225.25 L 1100.78125 225.332031 L 1100.789062 225.410156 L 1100.792969 225.488281 L 1100.796875 225.527344 Z M 1096.414062 229.46875 C 1095.730469 229.726562 1095.601562 230.625 1096.191406 231.058594 C 1096.445312 231.238281 1096.753906 231.285156 1097.046875 231.179688 L 1097.082031 231.164062 L 1097.238281 231.109375 L 1097.3125 231.078125 L 1097.390625 231.050781 L 1097.464844 231.019531 L 1097.539062 230.992188 L 1097.617188 230.960938 L 1097.691406 230.929688 L 1097.765625 230.902344 L 1097.835938 230.871094 L 1098.058594 230.777344 L 1098.339844 230.652344 L 1098.414062 230.617188 L 1098.484375 230.585938 L 1098.550781 230.554688 L 1098.621094 230.519531 L 1098.691406 230.488281 L 1098.757812 230.453125 L 1098.820312 230.425781 C 1099.507812 230.082031 1099.484375 229.089844 1098.78125 228.777344 C 1098.527344 228.667969 1098.25 228.671875 1098 228.792969 L 1097.949219 228.820312 L 1097.890625 228.847656 L 1097.828125 228.878906 L 1097.769531 228.90625 L 1097.707031 228.933594 L 1097.648438 228.964844 L 1097.585938 228.992188 L 1097.519531 229.019531 L 1097.457031 229.050781 L 1097.332031 229.105469 L 1097.199219 229.160156 L 1097.136719 229.1875 L 1097.066406 229.214844 L 1096.867188 229.296875 L 1096.796875 229.324219 L 1096.730469 229.347656 L 1096.660156 229.375 L 1096.59375 229.402344 L 1096.523438 229.429688 L 1096.453125 229.453125 Z M 1089.488281 231.109375 C 1088.660156 231.242188 1088.429688 232.3125 1089.128906 232.773438 C 1089.320312 232.898438 1089.542969 232.945312 1089.769531 232.910156 L 1089.777344 232.910156 L 1090.070312 232.863281 L 1090.164062 232.847656 L 1090.554688 232.785156 L 1090.648438 232.769531 L 1090.746094 232.753906 L 1090.839844 232.734375 L 1090.9375 232.71875 L 1091.03125 232.703125 L 1091.128906 232.683594 L 1091.222656 232.667969 L 1091.320312 232.652344 L 1091.414062 232.632812 L 1091.507812 232.617188 L 1091.597656 232.601562 C 1091.9375 232.535156 1092.207031 232.292969 1092.308594 231.960938 C 1092.496094 231.308594 1091.933594 230.683594 1091.261719 230.808594 L 1091.175781 230.824219 L 1091.085938 230.839844 L 1090.992188 230.855469 L 1090.898438 230.875 L 1090.808594 230.890625 L 1090.714844 230.90625 L 1090.625 230.921875 L 1089.59375 231.09375 L 1089.5 231.105469 Z M 1082.296875 231.789062 C 1081.464844 231.847656 1081.132812 232.886719 1081.785156 233.410156 C 1081.96875 233.554688 1082.179688 233.621094 1082.414062 233.609375 L 1082.503906 233.601562 L 1082.601562 233.597656 L 1082.699219 233.589844 L 1082.792969 233.582031 L 1082.890625 233.578125 L 1082.984375 233.570312 L 1083.078125 233.566406 L 1083.171875 233.558594 L 1083.265625 233.554688 L 1083.445312 233.539062 L 1083.535156 233.535156 L 1083.625 233.527344 L 1083.714844 233.523438 L 1083.800781 233.519531 L 1083.886719 233.511719 L 1083.972656 233.507812 L 1084.058594 233.5 L 1084.140625 233.496094 L 1084.222656 233.488281 L 1084.238281 233.488281 C 1084.589844 233.464844 1084.890625 233.246094 1085.023438 232.921875 C 1085.277344 232.300781 1084.789062 231.621094 1084.117188 231.667969 L 1084.101562 231.671875 L 1084.015625 231.675781 L 1083.933594 231.679688 L 1083.851562 231.6875 L 1083.765625 231.691406 L 1083.679688 231.699219 L 1083.59375 231.703125 L 1083.503906 231.710938 L 1083.414062 231.714844 L 1083.324219 231.722656 L 1083.234375 231.726562 L 1083.144531 231.734375 L 1083.054688 231.738281 L 1082.960938 231.746094 L 1082.867188 231.75 L 1082.773438 231.757812 L 1082.675781 231.765625 L 1082.582031 231.769531 L 1082.484375 231.777344 L 1082.386719 231.78125 Z M 1075.007812 232.210938 C 1074.484375 232.242188 1074.097656 232.691406 1074.148438 233.210938 C 1074.199219 233.699219 1074.613281 234.054688 1075.105469 234.03125 L 1075.199219 234.027344 L 1075.316406 234.023438 L 1075.550781 234.007812 L 1075.667969 234.003906 L 1075.789062 233.996094 L 1075.90625 233.992188 L 1076.140625 233.976562 L 1076.257812 233.972656 L 1076.378906 233.964844 L 1076.496094 233.960938 L 1076.730469 233.945312 L 1076.847656 233.941406 L 1076.933594 233.933594 C 1077.289062 233.914062 1077.589844 233.699219 1077.726562 233.371094 C 1077.980469 232.75 1077.5 232.078125 1076.832031 232.117188 L 1076.75 232.121094 L 1076.632812 232.125 L 1076.511719 232.132812 L 1076.394531 232.140625 L 1076.277344 232.144531 L 1076.160156 232.152344 L 1076.042969 232.15625 L 1075.808594 232.171875 L 1075.691406 232.175781 L 1075.574219 232.183594 L 1075.457031 232.1875 L 1075.222656 232.203125 L 1075.105469 232.207031 Z M 1067.746094 232.480469 C 1067.390625 232.484375 1067.082031 232.679688 1066.925781 232.996094 C 1066.636719 233.609375 1067.082031 234.304688 1067.757812 234.304688 L 1067.8125 234.300781 L 1068.117188 234.300781 L 1068.195312 234.296875 L 1068.355469 234.296875 L 1068.4375 234.292969 L 1068.601562 234.292969 L 1068.683594 234.289062 L 1068.769531 234.289062 L 1068.855469 234.285156 L 1068.945312 234.285156 L 1069.03125 234.28125 L 1069.121094 234.28125 L 1069.210938 234.277344 L 1069.300781 234.277344 L 1069.480469 234.269531 L 1069.574219 234.269531 L 1069.605469 234.265625 C 1070.449219 234.238281 1070.808594 233.1875 1070.15625 232.648438 C 1069.980469 232.507812 1069.773438 232.441406 1069.550781 232.445312 L 1069.523438 232.445312 L 1069.429688 232.449219 L 1069.25 232.453125 L 1069.160156 232.457031 L 1069.074219 232.457031 L 1068.988281 232.460938 L 1068.902344 232.460938 L 1068.816406 232.464844 L 1068.730469 232.464844 L 1068.648438 232.46875 L 1068.484375 232.46875 L 1068.40625 232.472656 L 1068.246094 232.472656 L 1068.171875 232.476562 L 1068.019531 232.476562 L 1067.945312 232.480469 Z M 1128.875 177 C 1129.691406 176.820312 1129.859375 175.742188 1129.140625 175.320312 C 1128.9375 175.207031 1128.714844 175.171875 1128.488281 175.21875 C 1127.878906 175.351562 1127.28125 175.53125 1126.679688 175.691406 C 1125.878906 175.90625 1125.753906 176.980469 1126.484375 177.375 C 1126.691406 177.484375 1126.925781 177.507812 1127.148438 177.453125 C 1127.722656 177.300781 1128.296875 177.125 1128.875 177 " fill-opacity="1" fill-rule="nonzero"/></g></svg>