<svg xmlns="http://www.w3.org/2000/svg" xmlns:xlink="http://www.w3.org/1999/xlink" width="1920" zoomAndPan="magnify" viewBox="0 0 1440 809.999993" height="1080" preserveAspectRatio="xMidYMid meet" version="1.0"><defs><clipPath id="1f8c22e95d"><path d="M 320 185.050781 L 340 185.050781 L 340 205 L 320 205 Z M 320 185.050781 " clip-rule="nonzero"/></clipPath><clipPath id="66f604fff6"><path d="M 291.28125 206 L 360 206 L 360 301.300781 L 291.28125 301.300781 Z M 291.28125 206 " clip-rule="nonzero"/></clipPath><clipPath id="908c9bc709"><path d="M 477 185.050781 L 504 185.050781 L 504 211 L 477 211 Z M 477 185.050781 " clip-rule="nonzero"/></clipPath><clipPath id="79eb94181f"><path d="M 419.753906 254 L 467 254 L 467 301.300781 L 419.753906 301.300781 Z M 419.753906 254 " clip-rule="nonzero"/></clipPath><clipPath id="2348e05b08"><path d="M 516 254 L 563 254 L 563 301.300781 L 516 301.300781 Z M 516 254 " clip-rule="nonzero"/></clipPath><clipPath id="55bc796121"><path d="M 108 277 L 133 277 L 133 300.722656 L 108 300.722656 Z M 108 277 " clip-rule="nonzero"/></clipPath><clipPath id="1906e2c1ee"><path d="M 206 277 L 231 277 L 231 300.722656 L 206 300.722656 Z M 206 277 " clip-rule="nonzero"/></clipPath><clipPath id="5df6a44dac"><path d="M 203 272 L 231.773438 272 L 231.773438 287 L 203 287 Z M 203 272 " clip-rule="nonzero"/></clipPath><clipPath id="45a769876f"><path d="M 102.773438 218.222656 L 214 218.222656 L 214 287 L 102.773438 287 Z M 102.773438 218.222656 " clip-rule="nonzero"/></clipPath></defs><rect x="-144" width="1728" fill="#ffffff" y="-80.999999" height="971.999992" fill-opacity="1"/><rect x="-144" width="1728" fill="#ffffff" y="-80.999999" height="971.999992" fill-opacity="1"/><g clip-path="url(#1f8c22e95d)"><path fill="#000000" d="M 329.25 204.558594 C 334.539062 204.988281 339.121094 201.050781 339.550781 195.769531 C 339.960938 190.488281 336.03125 185.898438 330.738281 185.449219 C 325.503906 185.058594 320.882812 188.996094 320.492188 194.277344 C 320.046875 199.519531 323.976562 204.148438 329.25 204.558594 " fill-opacity="1" fill-rule="nonzero"/></g><g clip-path="url(#66f604fff6)"><path fill="#000000" d="M 321.144531 208.496094 C 323.027344 207.171875 325.316406 206.292969 327.871094 206.515625 C 331.148438 206.777344 333.832031 208.8125 335.46875 211.292969 L 345.121094 230.457031 L 358.289062 239.546875 C 359.410156 240.40625 360.117188 241.804688 359.96875 243.335938 C 359.78125 245.703125 357.714844 247.476562 355.347656 247.269531 C 354.621094 247.234375 354.023438 246.9375 353.371094 246.636719 L 339.007812 236.726562 C 338.5625 236.375 338.207031 235.925781 337.910156 235.460938 L 334.316406 228.273438 L 329.972656 247.382812 L 346.945312 267.460938 C 347.335938 268.078125 347.597656 268.804688 347.746094 269.535156 L 352.328125 293.773438 C 352.292969 294.3125 352.367188 294.648438 352.328125 295.078125 C 352.070312 298.699219 348.9375 301.3125 345.378906 301.050781 C 342.417969 300.808594 340.238281 298.625 339.550781 295.917969 L 335.226562 273.210938 L 321.421875 258.09375 L 318.238281 272.816406 C 318.125 273.507812 317.214844 274.964844 316.953125 275.542969 L 303.707031 297.898438 C 302.402344 299.929688 300.1875 301.238281 297.671875 301.03125 C 294.074219 300.769531 291.414062 297.636719 291.710938 294.054688 C 291.785156 293.046875 292.214844 291.980469 292.585938 291.253906 L 304.882812 270.597656 L 315.144531 225.066406 L 308.4375 230.496094 L 304.882812 246.710938 C 304.398438 248.800781 302.515625 250.5 300.296875 250.332031 C 297.894531 250.144531 296.144531 248.074219 296.332031 245.667969 C 296.332031 245.480469 296.367188 245.292969 296.40625 245.070312 L 300.613281 226.167969 C 300.875 225.363281 301.304688 224.636719 301.9375 224.078125 Z M 321.144531 208.496094 " fill-opacity="1" fill-rule="nonzero"/></g><path fill="#000000" d="M 514.570312 286.222656 C 499.625 285.464844 477.632812 288.109375 470.253906 278.707031 C 466.871094 260.816406 457.207031 251.8125 440.617188 251.628906 C 430.433594 231.851562 448.921875 228.753906 461.5625 223.671875 C 462.367188 232.867188 461.875 242.417969 476.335938 247.785156 C 476.917969 244.941406 478.101562 242.617188 481.898438 242.542969 L 503.277344 242.628906 L 518.398438 230.75 C 520.839844 234.65625 525.691406 239.664062 525.695312 242.457031 L 548.640625 242.542969 C 550.308594 243.972656 551.726562 247.769531 548.378906 251.542969 C 534.636719 251.121094 509.65625 252.632812 514.574219 286.222656 Z M 514.570312 286.222656 " fill-opacity="1" fill-rule="evenodd"/><g clip-path="url(#908c9bc709)"><path fill="#000000" d="M 477.277344 210.605469 L 477.339844 202.457031 L 486.414062 201.21875 L 486.414062 194.757812 L 477.15625 196.304688 C 477.835938 190.480469 481.5625 186.269531 489.765625 185.046875 C 494.917969 185.414062 500.324219 185.695312 503.394531 195.382812 C 504.296875 199.226562 503.734375 203.113281 501.363281 206.460938 C 493.675781 202.226562 487.925781 205.117188 482.675781 209.871094 Z M 477.277344 210.605469 " fill-opacity="1" fill-rule="evenodd"/></g><path fill="#000000" d="M 461.472656 228.214844 L 488.5 207.683594 C 492.132812 205.738281 496.140625 205.367188 500.929688 208.296875 C 505.023438 212.035156 511.9375 222.390625 517.441406 229.4375 L 502.058594 241.011719 L 487.285156 220.351562 L 463.90625 238.347656 C 462.109375 235.191406 461.6875 231.484375 461.472656 228.214844 Z M 461.472656 228.214844 " fill-opacity="1" fill-rule="evenodd"/><g clip-path="url(#79eb94181f)"><path stroke-linecap="round" transform="matrix(0.231946, 0, 0, 0.233164, 406.62793, 181.120264)" fill="none" stroke-linejoin="round" d="M 241.691908 414.193902 C 241.708749 460.382584 204.270818 497.826074 158.092317 497.826074 C 111.913816 497.826074 74.475885 460.382584 74.475885 414.193902 C 74.475885 368.021974 111.913816 330.578483 158.092317 330.578483 C 204.270818 330.578483 241.708749 368.021974 241.691908 414.193902 Z M 241.691908 414.193902 " stroke="#000000" stroke-width="35" stroke-opacity="1" stroke-miterlimit="4"/></g><g clip-path="url(#2348e05b08)"><path stroke-linecap="round" transform="matrix(0.231946, 0, 0, 0.233164, 502.787981, 181.147057)" fill="none" stroke-linejoin="round" d="M 241.692361 414.196262 C 241.709202 460.384943 204.271271 497.828434 158.09277 497.828434 C 111.914269 497.828434 74.476338 460.384943 74.476338 414.196262 C 74.476338 368.024333 111.914269 330.580843 158.09277 330.580843 C 204.271271 330.580843 241.709202 368.024333 241.692361 414.196262 Z M 241.692361 414.196262 " stroke="#000000" stroke-width="35" stroke-opacity="1" stroke-miterlimit="4"/></g><g clip-path="url(#55bc796121)"><path fill="#000000" d="M 120.277344 294.992188 C 117.058594 294.992188 114.449219 292.378906 114.449219 289.164062 C 114.449219 285.945312 117.058594 283.335938 120.277344 283.335938 C 123.492188 283.335938 126.101562 285.945312 126.101562 289.164062 C 126.101562 292.378906 123.492188 294.992188 120.277344 294.992188 Z M 120.277344 277.332031 C 113.742188 277.332031 108.445312 282.628906 108.445312 289.164062 C 108.445312 295.695312 113.742188 300.992188 120.277344 300.992188 C 126.808594 300.992188 132.105469 295.695312 132.105469 289.164062 C 132.105469 282.628906 126.808594 277.332031 120.277344 277.332031 " fill-opacity="1" fill-rule="nonzero"/></g><g clip-path="url(#1906e2c1ee)"><path fill="#000000" d="M 218.816406 294.988281 C 215.597656 294.988281 212.988281 292.378906 212.988281 289.160156 C 212.988281 285.945312 215.597656 283.335938 218.816406 283.335938 C 222.035156 283.335938 224.644531 285.945312 224.644531 289.160156 C 224.644531 292.378906 222.035156 294.988281 218.816406 294.988281 Z M 218.816406 277.332031 C 212.285156 277.332031 206.988281 282.628906 206.988281 289.160156 C 206.988281 295.695312 212.285156 300.992188 218.816406 300.992188 C 225.351562 300.992188 230.648438 295.695312 230.648438 289.160156 C 230.648438 282.628906 225.351562 277.332031 218.816406 277.332031 " fill-opacity="1" fill-rule="nonzero"/></g><g clip-path="url(#5df6a44dac)"><path fill="#000000" d="M 231.375 278.402344 C 228.394531 274.667969 223.800781 272.347656 218.816406 272.347656 C 215.355469 272.347656 212.078125 273.46875 209.40625 275.402344 C 207.90625 278.796875 205.921875 282.082031 203.308594 284.855469 C 203.363281 285.179688 203.519531 285.429688 203.632812 285.585938 C 203.96875 286.015625 204.46875 286.269531 205.011719 286.269531 L 205.625 286.269531 C 206.953125 280.203125 212.359375 275.652344 218.816406 275.652344 C 222.871094 275.652344 226.519531 277.449219 228.996094 280.292969 L 230.472656 280.292969 C 231.449219 280.292969 231.984375 279.167969 231.375 278.402344 " fill-opacity="1" fill-rule="nonzero"/></g><path fill="#000000" d="M 221.394531 265.179688 C 219.761719 265.335938 216.015625 267.027344 216.167969 268.65625 C 216.320312 270.292969 220.320312 271.25 221.949219 271.097656 C 223.585938 270.941406 224.785156 269.496094 224.628906 267.859375 C 224.476562 266.226562 223.023438 265.027344 221.394531 265.179688 " fill-opacity="1" fill-rule="nonzero"/><path fill="#000000" d="M 215.332031 272.0625 C 213.382812 272.476562 211.539062 273.242188 209.886719 274.289062 C 211.796875 269.632812 212.851562 264.847656 213.425781 260.964844 L 215.332031 272.0625 " fill-opacity="1" fill-rule="nonzero"/><g clip-path="url(#45a769876f)"><path fill="#000000" d="M 209.382812 259.875 L 202.160156 259.875 L 202.160156 256.980469 L 209.382812 256.980469 Z M 198.449219 231.175781 C 202.046875 238.085938 207.894531 249 209.90625 252.757812 L 201.445312 252.757812 Z M 195.246094 282.0625 C 195.246094 282.960938 194.523438 283.6875 193.625 283.6875 L 165.289062 283.6875 L 165.289062 282.113281 L 193.164062 282.113281 L 193.164062 277.238281 L 175.171875 277.238281 L 175.171875 266.992188 L 179.292969 266.992188 C 180.25 266.992188 180.964844 266.070312 180.707031 265.136719 C 179.898438 262.214844 177.21875 260.058594 174.03125 260.058594 L 162.207031 260.058594 L 162.207031 256.238281 L 163.917969 256.238281 C 165.460938 256.238281 166.707031 254.992188 166.707031 253.449219 L 166.707031 248.269531 C 166.707031 246.746094 165.460938 245.484375 163.917969 245.484375 L 162.207031 245.484375 L 162.207031 231.375 L 193.078125 231.375 C 194.265625 231.375 195.246094 232.339844 195.246094 233.542969 Z M 162.207031 266.992188 L 172.039062 266.992188 L 172.039062 277.238281 L 165.289062 277.238281 L 165.289062 270.664062 L 162.207031 270.664062 Z M 200.5 228.753906 C 200.101562 228.015625 199.878906 227.175781 199.867188 226.339844 C 199.84375 224.773438 198.59375 223.71875 197.347656 223.007812 C 196.191406 222.363281 138.722656 219.003906 130.585938 218.605469 C 126.710938 218.425781 123.414062 218.261719 119.703125 219.660156 C 117.25 220.582031 114.972656 221.960938 113.128906 223.839844 C 110.753906 226.242188 109.105469 229.394531 108.511719 232.71875 C 108.4375 233.117188 105.46875 255.328125 105.46875 255.328125 L 134.445312 255.328125 C 135.148438 255.328125 135.828125 255.402344 136.496094 255.535156 L 136.496094 233.542969 C 136.496094 232.339844 137.464844 231.375 138.664062 231.375 L 160.101562 231.375 L 160.101562 270.664062 L 157.273438 270.664062 L 157.273438 277.238281 L 142.433594 277.238281 L 142.433594 266.992188 L 146 266.992188 C 147.792969 266.992188 149.246094 265.539062 149.246094 263.742188 C 149.246094 261.949219 147.792969 260.492188 146 260.492188 L 140.664062 260.492188 C 139.199219 258.675781 136.964844 257.511719 134.445312 257.511719 L 104.96875 257.511719 L 102.863281 283.019531 C 103.066406 285.761719 106.039062 286.695312 106.886719 286.523438 C 108.121094 280.253906 113.648438 275.515625 120.273438 275.515625 C 126.90625 275.515625 132.445312 280.269531 133.667969 286.546875 C 133.683594 286.574219 133.707031 286.597656 133.71875 286.621094 L 199.117188 286.621094 C 199.527344 286.621094 199.9375 286.488281 200.257812 286.234375 C 213.058594 275.742188 213.058594 252.660156 213.058594 252.660156 L 200.5 228.753906 " fill-opacity="1" fill-rule="nonzero"/></g></svg>